SplineFontDB: 3.0
FontName: Heuristica-Italic
FullName: Heuristica Italic
FamilyName: Heuristica
Weight: Regular
Copyright: Copyright (c) 1989, 1991 Adobe Systems Incorporated.  All Rights Reserved. Utopia is either a registered trademark or trademark of Adobe Systems Incorporated in the United States and/or other countries. Used under license. The Utopia fonts are freely available; see http://tug.org/fonts/utopia.\n\nCopyright (c) 2008, 2009, 2010 Andrey V. Panov (panov@canopus.iacp.dvo.ru).\n
Version: 0.2.2
ItalicAngle: -13
UnderlinePosition: -100
UnderlineWidth: 50
Ascent: 750
Descent: 250
LayerCount: 2
Layer: 0 0 "Back"  1
Layer: 1 0 "Fore"  0
NeedsXUIDChange: 1
UniqueID: 36549
FSType: 8
OS2Version: 0
OS2_WeightWidthSlopeOnly: 0
OS2_UseTypoMetrics: 1
CreationTime: 1164221255
ModificationTime: 1291520058
PfmFamily: 17
TTFWeight: 400
TTFWidth: 5
LineGap: 200
VLineGap: 0
OS2TypoAscent: 750
OS2TypoAOffset: 0
OS2TypoDescent: -250
OS2TypoDOffset: 0
OS2TypoLinegap: 200
OS2WinAscent: 930
OS2WinAOffset: 0
OS2WinDescent: 250
OS2WinDOffset: 0
HheadAscent: 930
HheadAOffset: 0
HheadDescent: -250
HheadDOffset: 0
OS2Vendor: 'PfEd'
Lookup: 258 0 0 "LGC kerning"  {"LGC kerning subtable" [150,15,0] } ['kern' ('cyrl' <'dflt' > 'grek' <'dflt' > 'latn' <'dflt' > ) ]
MarkAttachClasses: 1
DEI: 91125
LangName: 1049 "" "+BC0EMgRABDgEQQRCBDgEOgQw" 

StartChar: exclam
Encoding: 33 33 1
Width: 240
Flags: HMW
HStem: -12 125<115 145.5> 687 20G<249.5 303.5>
VStem: 69 122<36 65.5>
LayerCount: 2
Fore
SplineSet
150 209 m 1
 205 644 l 2
 210 680 223 707 276 707 c 0
 331 707 331 679 318 639 c 2
 178 209 l 1
 150 209 l 1
EndSplineSet
Refer: 14 46 S 1 0 0 1 -13 0 2
EndChar

StartChar: numbersign
Encoding: 35 35 3
Width: 530
Flags: HMW
HStem: 0 21G<112 169 112 112 301 357 301 301> 231 48<106 193 89 210 267 382 106 250 455 543> 410 48<168 256 151 273 330 445 168 313 518 605> 648 20G<347 403 403 403 536 591 591 591>
VStem: 89 531<231 458>
LayerCount: 2
Fore
SplineSet
89 231 m 1
 106 279 l 1
 210 279 l 1
 256 410 l 1
 151 410 l 1
 168 458 l 1
 273 458 l 1
 347 668 l 1
 403 668 l 1
 330 458 l 1
 462 458 l 1
 536 668 l 1
 591 668 l 1
 518 458 l 1
 620 458 l 1
 605 410 l 1
 501 410 l 1
 455 279 l 1
 558 279 l 1
 543 231 l 1
 438 231 l 1
 357 0 l 1
 301 0 l 1
 382 231 l 1
 250 231 l 1
 169 0 l 1
 112 0 l 1
 193 231 l 1
 89 231 l 1
267 279 m 1
 399 279 l 1
 445 410 l 1
 313 410 l 1
 267 279 l 1
EndSplineSet
EndChar

StartChar: dollar
Encoding: 36 36 4
Width: 530
Flags: HW
HStem: -109 144<218 292 218 292> 0 21G<283 283> 0 35<283 292> 631 35<429 437> 633 110<346.5 454> 648 20G<396 396>
VStem: 171 80<483 540> 440 86<137 199>
LayerCount: 2
Fore
SplineSet
66 120 m 0
 67 150 90 170 113 170 c 0
 129 170 136 161 141 146 c 0
 168 65 212 42 250 37 c 1
 314 316 l 1
 208 360 171 414 171 482 c 0
 171 598 267 669 396 668 c 1x87
 414 743 l 1
 454 743 l 1
 437 666 l 1
 516 659 587 618 586 560 c 0
 585 532 559 515 538 515 c 0
 521 515 514 525 510 541 c 0
 496 596 467 625 429 631 c 1
 372 386 l 1
 455 348 526 299 526 195 c 0
 526 79 430 -2 283 0 c 1x53
 260 -109 l 1
 218 -109 l 1
 243 2 l 1
 136 9 65 64 66 120 c 0
251 512 m 0
 251 454 284 428 334 403 c 1x47
 388 633 l 1x4b
 305 633 251 586 251 512 c 0
292 35 m 1x27
 380 32 440 86 440 169 c 0
 440 229 410 270 351 298 c 1
 292 35 l 1x27
EndSplineSet
EndChar

StartChar: percent
Encoding: 37 37 5
Width: 826
Flags: HW
HStem: -12 30<607 682 607 709> 314 30<245 320 245 347> 324 30<649.5 721> 597 34<486 665 486 679 463 665> 650 30<287.5 359> 682 20G<775 775>
VStem: 133 77<414.5 448.5 408.5 490> 391 77<547 551.5 502 585.5> 495 77<88.5 122.5 82.5 164> 753 77<221 255 176 259.5>
LayerCount: 2
Fore
SplineSet
133 447 m 0
 133 533 185 680 333 680 c 0xcb40
 385 680 420 659 440 644 c 0
 451 635 460 631 486 631 c 2
 665 631 l 2
 698 633 722 649 750 677 c 2
 775 702 l 1xd740
 805 678 l 1xcb40
 200 -25 l 1
 169 3 l 1
 679 597 l 1
 463 597 l 1xdb40
 467 582 468 560 468 543 c 0
 468 461 422 314 272 314 c 0
 169 314 133 382 133 447 c 0
210 424 m 0
 210 393 217 344 273 344 c 0
 367 344 391 524 391 570 c 0
 391 601 386 650 332 650 c 0xcb40
 243 650 210 473 210 424 c 0
495 121 m 0
 495 207 547 354 695 354 c 0xabc0
 788 354 830 293 830 217 c 0
 830 135 784 -12 634 -12 c 0
 531 -12 495 56 495 121 c 0
572 98 m 0
 572 67 579 18 635 18 c 0
 729 18 753 198 753 244 c 0
 753 275 748 324 694 324 c 0xebc0
 605 324 572 147 572 98 c 0
EndSplineSet
EndChar

StartChar: ampersand
Encoding: 38 38 6
Width: 725
Flags: HW
HStem: -12 49<284.5 324> -7 25<730 734> 645 35<389 437>
VStem: 95 95<138.5 223.5> 242 80<505 551.5> 483 78<526 583.5> 653 85
LayerCount: 2
Fore
SplineSet
95 162 m 0
 95 285 204 335 277 369 c 1
 257 403 242 459 242 493 c 0
 242 610 325 680 417 680 c 0
 495 680 561 635 561 552 c 0
 561 456 472 415 373 375 c 1
 408 312 468 231 535 159 c 1
 621 248 646 340 653 417 c 1
 680 430 706 436 730 433 c 1
 745 389 738 361 723 330 c 0
 688 266 640 207 557 133 c 1
 600 94 659 31 734 18 c 1
 730 -7 l 1
 680 -5 l 2x7e
 601 -2 546 29 498 75 c 1
 423 13 362 -12 286 -12 c 0
 156 -12 95 76 95 162 c 0
190 172 m 0
 190 105 242 37 327 37 c 0
 385 37 437 64 475 99 c 1
 403 174 341 258 293 339 c 1
 265 327 190 276 190 172 c 0
322 524 m 0xbe
 322 486 336 435 358 401 c 1
 423 432 483 488 483 564 c 0
 483 603 463 645 411 645 c 0
 367 645 322 600 322 524 c 0xbe
EndSplineSet
EndChar

StartChar: quoteright
Encoding: 8217 8217 7
Width: 216
Flags: HMW
HStem: 479 20G<147 147> 722 20G<230 245>
VStem: 214 86
LayerCount: 2
Back
SplineSet
140.584 488 m 1
 176.644 524 205.984 562 211.324 600 c 0
 216.524 637 186.476 658 191.535 694 c 0
 195.33 721 216.281 742 246.281 742 c 0
 279.281 742 306.784 710 299.194 656 c 0
 289.217 585 211.8 518 155.335 472 c 1
 140.584 488 l 1
EndSplineSet
Fore
SplineSet
147 499 m 1
 181 532 210 570 214 607 c 0
 216 627 210 640 204 654 c 0
 199 666 192 678 192 692 c 0
 192 718 215 742 245 742 c 0
 280 744 300 708 300 678 c 0
 300 593 221 531 163 482 c 1
 147 499 l 1
EndSplineSet
EndChar

StartChar: parenleft
Encoding: 40 40 8
Width: 350
Flags: HMW
HStem: 667 25<488 493>
VStem: 141 67
LayerCount: 2
Fore
SplineSet
160 301 m 0
 212 536 323 698 493 692 c 1
 488 667 l 1
 395 652 288 554 231 306 c 0
 167 28 254 -92 309 -105 c 1
 303 -128 l 1
 167 -118 108 68 160 301 c 0
EndSplineSet
EndChar

StartChar: parenright
Encoding: 41 41 9
Width: 350
Flags: W
HStem: -128 23<-11 -6> 667 25<173 179> 672 20G<179 179>
VStem: 274 67
LayerCount: 2
Fore
SplineSet
-11 -128 m 1xb0
 -6 -105 l 1
 87 -90 194 10 251 258 c 0
 315 536 228 654 173 667 c 1xd0
 179 692 l 1
 315 682 374 496 322 263 c 0
 270 28 159 -134 -11 -128 c 1xb0
EndSplineSet
EndChar

StartChar: asterisk
Encoding: 42 42 10
Width: 412
Flags: HW
HStem: 509 19 687 20G<337.5 366>
VStem: 249 71 312 73
LayerCount: 2
Fore
SplineSet
146 441 m 0
 136 463 140 479 163 487 c 2
 283 528 l 2
 295 532 295 541 282 546 c 2
 196 577 l 2
 171 586 171 607 185 627 c 0
 203 652 219 651 231 639 c 2xe0
 299 569 l 2
 307 561 314 565 314 578 c 2
 312 676 l 2
 312 696 322 707 353 707 c 0
 379 707 391 695 381 675 c 2
 337 578 l 2
 331 564 338 560 350 569 c 2
 441 640 l 2
 459 653 474 651 486 629 c 0
 500 604 493 589 474 583 c 2
 355 544 l 2
 341 539 336 530 348 526 c 2
 444 487 l 2
 461 480 464 461 446 439 c 0
 430 419 415 415 400 432 c 2xd0
 337 503 l 2
 327 514 320 505 320 494 c 2
 322 389 l 2
 323 364 307 356 282 356 c 0
 251 356 243 373 253 396 c 2
 297 494 l 2
 303 506 298 515 283 503 c 2
 199 432 l 2
 175 412 158 417 146 441 c 0
EndSplineSet
EndChar

StartChar: plus
Encoding: 43 43 11
Width: 570
Flags: MW
HStem: 0 21G<301 369 301 301> 221 58<93 301 93 301 369 577> 470 20G<301 369 369 369>
VStem: 301 68<0 221 0 221 279 490>
LayerCount: 2
Fore
SplineSet
93 221 m 1
 93 279 l 1
 301 279 l 1
 301 490 l 1
 369 490 l 1
 369 279 l 1
 577 279 l 1
 577 221 l 1
 369 221 l 1
 369 0 l 1
 301 0 l 1
 301 221 l 1
 93 221 l 1
EndSplineSet
EndChar

StartChar: comma
Encoding: 44 44 12
Width: 265
Flags: HMW
HStem: -134 276<63 150>
VStem: 117 91
LayerCount: 2
Fore
SplineSet
46 -116 m 1
 82 -81 113 -41 117 -1 c 0
 119 20 113 34 106 49 c 0
 101 61 94 74 94 89 c 0
 94 117 118 142 150 142 c 0
 187 144 208 106 208 74 c 0
 208 -16 125 -82 63 -134 c 1
 46 -116 l 1
EndSplineSet
EndChar

StartChar: hyphen
Encoding: 45 45 13
Width: 392
Flags: HMW
HStem: 216 70<131 362 117 376>
VStem: 117 259<216 286>
LayerCount: 2
Fore
SplineSet
117 216 m 1
 131 286 l 1
 376 286 l 1
 362 216 l 1
 117 216 l 1
EndSplineSet
EndChar

StartChar: period
Encoding: 46 46 14
Width: 265
Flags: HMW
HStem: -12 125<128 158.5>
VStem: 82 122<36 65.5>
LayerCount: 2
Fore
SplineSet
82 45 m 0
 82 86 109 113 147 113 c 0
 183 113 204 87 204 57 c 0
 204 15 178 -12 139 -12 c 0
 103 -12 82 13 82 45 c 0
EndSplineSet
EndChar

StartChar: slash
Encoding: 47 47 15
Width: 270
Flags: HMW
HStem: -15 21G<35 106 35 35> 687 20G<305 376 376 376>
VStem: 35 341
LayerCount: 2
Fore
SplineSet
35 -15 m 1
 305 707 l 1
 376 707 l 1
 106 -15 l 1
 35 -15 l 1
EndSplineSet
EndChar

StartChar: zero
Encoding: 48 48 16
Width: 530
Flags: HMW
HStem: -12 35<251.5 321 251.5 332.5> 645 35<362.5 433>
VStem: 95 90<150 192 111.5 256> 486 90<489 504 425 546>
LayerCount: 2
Back
SplineSet
106 334 m 0
 149 534 239 680 404 680 c 0
 569 680 597 534 554 334 c 0
 511 134 421 -12 256 -12 c 0
 91 -12 63 134 106 334 c 0
208 334 m 0
 173 171 169 23 264 23 c 0
 359 23 417 171 452 334 c 0
 487 497 491 645 396 645 c 0
 301 645 243 497 208 334 c 0
EndSplineSet
Fore
SplineSet
95 204 m 0
 95 308 122 426 168 512 c 0
 222 612 294 680 397 680 c 0
 557 680 576 547 576 461 c 0
 576 389 557 262 507 161 c 0
 455 52 386 -12 279 -12 c 0
 138 -12 95 96 95 204 c 0
185 162 m 0
 185 61 224 23 279 23 c 0
 363 23 408 127 441 240 c 0
 474 350 486 472 486 506 c 0
 486 586 468 645 398 645 c 0
 327 645 272 556 236 444 c 0
 200 335 185 222 185 162 c 0
EndSplineSet
EndChar

StartChar: one
Encoding: 49 49 17
Width: 530
Flags: MW
HStem: 0 31.5 654 20G<464 464> 660 20G<456 456>
VStem: 109 355
DStem2: 239 72 328 72 0.22036 0.975419<-12.6093 547.825>
LayerCount: 2
Fore
SplineSet
109 0 m 1xb0
 115 29 l 1
 206 36 l 2
 223 37 234 48 239 72 c 2
 352 578 l 2
 356 597 354 609 340 611 c 2
 243 621 l 1
 251 645 l 1
 456 680 l 1
 464 674 l 1xd0
 328 72 l 2
 322 44 333 35 349 34 c 2
 438 29 l 1
 432 0 l 1
 109 0 l 1xb0
EndSplineSet
EndChar

StartChar: two
Encoding: 50 50 18
Width: 530
Flags: HMW
HStem: 0 74<135 385 385 407 135 453> 645 35<352.5 420>
VStem: 473 100<481.5 555.5>
LayerCount: 2
Fore
SplineSet
33 10 m 1
 60 88 114 160 266 264 c 0
 406 359 473 433 473 530 c 0
 473 581 461 645 379 645 c 0
 326 645 278 605 245 512 c 0
 241 499 235 487 216 487 c 0
 194 487 167 506 167 535 c 0
 167 592 250 680 381 680 c 0
 490 680 573 627 573 516 c 0
 573 389 467 333 345 262 c 0
 231 196 166 137 135 74 c 1
 385 74 l 2
 429 74 443 82 477 131 c 1
 507 125 l 1
 453 0 l 1
 44 0 l 1
 33 10 l 1
EndSplineSet
EndChar

StartChar: three
Encoding: 51 51 19
Width: 530
Flags: HW
HStem: -12 35<234 297 234 328> 350 38<297 354.5> 645 35<341 408>
VStem: 417 104<147 246> 461 98<499.5 561.5>
LayerCount: 2
Fore
SplineSet
54 111 m 0
 54 144 82 166 105 166 c 0
 121 166 129 155 135 135 c 0
 156 55 203 23 265 23 c 0
 329 23 417 71 417 223 c 0
 417 269 398 350 311 350 c 0xf0
 269 350 233 340 220 340 c 0
 204 340 201 350 201 362 c 0
 201 379 210 399 223 399 c 0
 241 399 274 388 320 388 c 0
 400 388 461 457 461 542 c 0
 461 581 448 645 368 645 c 0
 314 645 275 604 250 540 c 0
 242 521 233 513 219 513 c 0
 202 513 175 528 175 559 c 0
 175 615 261 680 373 680 c 0
 453 680 559 648 559 531 c 0xe8
 559 422 458 380 382 374 c 1
 382 371 l 1
 440 363 521 319 521 213 c 0
 521 58 394 -12 262 -12 c 0
 120 -12 54 63 54 111 c 0
EndSplineSet
EndChar

StartChar: four
Encoding: 52 52 20
Width: 530
Flags: MW
HStem: 0 31.5 187 46<151 351 446 534> 648 20G<469 537 537 537>
VStem: 67 477<206 233>
DStem2: 67 206 432 575 0.656421 0.754395<0 517.965> 326 67 411 67 0.20519 0.978722<-12.7261 122.576 187.091 517.394>
LayerCount: 2
Fore
SplineSet
67 206 m 1
 196 367 329 526 469 668 c 1
 537 668 l 1
 446 233 l 1
 544 233 l 1
 534 187 l 1
 436 187 l 1
 411 67 l 2
 406 43 411 33 431 32 c 2
 481 29 l 1
 474 0 l 1
 210 0 l 1
 218 29 l 1
 292 34 l 2
 308 35 321 42 326 67 c 2
 351 187 l 1
 76 187 l 1
 67 206 l 1
151 233 m 1
 361 233 l 1
 434 573 l 1
 432 575 l 1
 333 469 239 351 151 233 c 1
EndSplineSet
EndChar

StartChar: five
Encoding: 53 53 21
Width: 530
Flags: HW
HStem: -12 35<240 312 240 340.5> 381 46<322.5 349> 594 74<286.5 295 295 543> 657 11<239 585>
VStem: 431 104<170 276.5>
LayerCount: 2
Back
SplineSet
72 102 m 0
 78 135 114 155 134 155 c 0
 148 155 156 146 158 131 c 0
 168 74 195 23 265 23 c 0
 352 23 408 101 426 204 c 0
 449 336 388 383 324 383 c 0
 270 383 224 360 174 312 c 1
 152 324 l 1
 231 659 l 1
 243 668 l 1
 577 668 l 1
 580 660 l 1
 544 592 l 1
 295 592 l 2
 276 592 268 588 261 563 c 2
 205 376 l 1
 207 374 l 1
 244 403 307 427 362 427 c 0
 481 427 557 355 532 215 c 0
 510 88 417 -12 252 -12 c 0
 122 -12 64 56 72 102 c 0
EndSplineSet
Fore
SplineSet
59 108 m 0
 59 140 86 164 112 164 c 0
 126 164 135 153 140 135 c 0
 162 52 209 23 271 23 c 0
 353 23 431 106 431 230 c 0
 431 323 386 381 312 381 c 0
 259 381 215 357 180 315 c 1
 156 327 l 1
 229 660 l 1
 239 668 l 1xe8
 580 668 l 1
 585 657 l 1xd8
 543 594 l 1
 295 594 l 2
 278 594 269 592 263 570 c 2
 209 383 l 1
 211 381 l 1
 246 409 300 427 345 427 c 0
 462 427 535 358 535 242 c 0
 535 98 417 -12 264 -12 c 0
 126 -12 59 56 59 108 c 0
EndSplineSet
EndChar

StartChar: six
Encoding: 54 54 22
Width: 530
Flags: HMW
HStem: -12 35<247.5 334.5 247.5 380.5> 371 49 645 35<376 435>
VStem: 91 93<149 232 140 278> 448 97<181 284>
LayerCount: 2
Back
SplineSet
297 -12 m 0
 141 -12 91 91 91 207 c 0
 91 349 143 503 213 585 c 0
 268 649 339 680 413 680 c 0
 546 680 586 610 586 572 c 0
 586 544 555 526 533 526 c 0
 514 526 507 537 504 554 c 0
 492 613 460 645 410 645 c 0
 315 645 239 532 199 338 c 1
 201 338 l 1
 237 377 302 422 368 420 c 0
 485 422 545 343 545 239 c 0
 545 123 464 -12 297 -12 c 0
338 371 m 0
 243 371 184 296 184 168 c 0
 184 112 199 23 296 23 c 0
 373 23 448 103 448 247 c 0
 448 321 406 371 338 371 c 0
EndSplineSet
Fore
SplineSet
91 207 m 0
 91 349 143 503 213 585 c 0
 268 649 339 680 413 680 c 0
 546 680 586 610 586 572 c 0
 586 544 555 526 533 526 c 0
 514 526 507 537 504 554 c 0
 492 613 460 645 410 645 c 0
 315 645 239 532 199 338 c 1
 201 338 l 1
 237 377 297 420 368 420 c 0
 488 420 545 343 545 239 c 0
 545 123 464 -12 297 -12 c 0
 141 -12 91 91 91 207 c 0
184 168 m 0
 184 112 199 23 296 23 c 0
 373 23 448 103 448 247 c 0
 448 321 406 371 338 371 c 0
 243 371 184 296 184 168 c 0
EndSplineSet
EndChar

StartChar: seven
Encoding: 55 55 23
Width: 530
Flags: HW
HStem: -12 21G<210 244> 594 74<271 297 297 538> 657 11<207 635>
VStem: 165 470<530 657>
LayerCount: 2
Back
SplineSet
153 528 m 5
 209 668 l 5xd0
 625 668 l 5
 632 657 l 5xb0
 575 531 511 469 427 357 c 4
 358 264 312 158 294 26 c 4
 290 -3 267 -12 238 -12 c 4
 207 -12 185 -4 191 29 c 4
 212 147 288 259 396 382 c 4
 497 498 526 556 542 592 c 5
 272 592 l 6
 227 592 212 577 194 549 c 6
 180 528 l 5
 153 528 l 5
EndSplineSet
Fore
SplineSet
165 530 m 1
 207 668 l 1xd0
 627 668 l 1
 635 657 l 1xb0
 582 531 515 468 423 355 c 0
 350 267 305 179 280 29 c 0
 275 -3 262 -12 226 -12 c 0
 194 -12 178 2 178 25 c 0
 178 98 224 192 392 383 c 0
 477 479 521 547 538 594 c 1
 297 594 l 2
 245 594 226 580 211 556 c 2
 195 530 l 1
 165 530 l 1
EndSplineSet
EndChar

StartChar: eight
Encoding: 56 56 24
Width: 530
Flags: HW
HStem: -12 35<258.5 342.5 258.5 374> 343 38<325 362.5> 645 35<347 422>
VStem: 81 96<115.5 202.5 111 220> 178 89<467 511 452 560.5> 440 96<168 253 145.5 259> 481 89<504.5 564 481 578>
LayerCount: 2
Back
SplineSet
82 182 m 4xf2
 102 284 179 342 249 358 c 5
 249 361 l 5
 192 377 152 428 168 510 c 4
 189 618 287 680 402 680 c 4
 517 680 591 618 570 510 c 4xec
 554 428 495 377 431 361 c 5
 431 358 l 5
 496 342 548 284 528 182 c 4
 508 81 430 -12 268 -12 c 4
 106 -12 62 81 82 182 c 4xf2
182 179 m 4xf2
 165 91 190 23 274 23 c 4
 358 23 411 91 428 179 c 4
 446 270 416 338 336 338 c 4
 256 338 200 270 182 179 c 4xf2
266 512 m 4xec
 253 444 271 374 343 374 c 4
 415 374 461 444 474 512 c 4
 489 589 463 645 395 645 c 4
 327 645 281 589 266 512 c 4xec
EndSplineSet
Fore
SplineSet
81 159 m 0xf4
 81 281 166 359 260 370 c 1
 260 374 l 1
 215 393 178 434 178 500 c 0
 178 621 281 680 387 680 c 0xea
 526 680 570 598 570 530 c 0xf2
 570 432 501 382 431 368 c 1
 431 365 l 1
 474 350 536 299 536 207 c 0
 536 84 456 -12 292 -12 c 0
 143 -12 81 72 81 159 c 0xf4
177 151 m 0
 177 71 221 23 296 23 c 0
 389 23 440 115 440 221 c 0
 440 297 397 343 328 343 c 0xf4
 238 343 177 254 177 151 c 0
267 477 m 0
 267 427 291 381 359 381 c 0xea
 426 381 481 455 481 554 c 0
 481 602 453 645 391 645 c 0
 303 645 267 545 267 477 c 0
EndSplineSet
EndChar

StartChar: nine
Encoding: 57 57 25
Width: 530
Flags: HW
HStem: -12 35<212.197 327.417> 266 50<274.026 398.071> 645 35<301.416 420.55>
VStem: 86 78<69.7425 141.622> 133 93<366.171 545.006> 476 95<374.095 559.173>
LayerCount: 2
Back
SplineSet
131 457 m 4
 155 595 262 680 390 680 c 4
 454 680 505 658 535 613 c 4
 566 566 577 485 555 361 c 4
 529 216 489 128 438 71 c 4
 391 18 323 -12 242 -12 c 4
 121 -12 78 49 86 93 c 4
 91 124 123 144 142 144 c 4
 159 144 165 136 167 123 c 4
 174 76 189 23 257 23 c 4
 321 23 365 73 395 139 c 4
 425 208 444 289 455 352 c 5
 453 352 l 5
 410 303 352 268 290 268 c 4
 187 268 109 332 131 457 c 4
236 485 m 4
 219 389 252 321 330 321 c 4
 383 321 428 353 452 400 c 4
 461 416 465 436 468 453 c 4
 485 550 463 645 383 645 c 4
 305 645 252 577 236 485 c 4
86 96 m 0
 86 132 114 152 135 152 c 0
 151 152 159 141 164 122 c 0
 183 51 218 23 266 23 c 0
 329 23 373 69 406 138 c 0
 440 210 457 278 466 338 c 1
 464 338 l 1
 419 293 371 266 310 266 c 0
 210 266 133 334 133 439 c 0
 133 589 242 680 363 680 c 0
 514 680 573 574 571 426 c 0
 565 283 529 167 464 86 c 0
 413 22 351 -12 263 -12 c 0
 150 -12 86 51 86 96 c 0
226 452 m 0
 226 381 256 316 350 316 c 0
 425 316 476 372 476 459 c 0
 476 561 455 645 361 645 c 0
 289 645 226 579 226 452 c 0
EndSplineSet
Fore
SplineSet
86 96 m 0xf4
 86 132 114 152 135 152 c 0
 151 152 159 141 164 122 c 0xf4
 183 51 218 23 266 23 c 0
 329 23 373 69 406 138 c 0
 440 210 457 278 466 338 c 1
 464 338 l 1
 419 293 371 266 310 266 c 0
 210 266 133 334 133 439 c 0xec
 133 589 242 680 363 680 c 0
 509 680 571 582 571 426 c 0
 571 324 539 180 464 86 c 0
 413 22 351 -12 263 -12 c 0
 150 -12 86 51 86 96 c 0xf4
226 452 m 0xec
 226 381 256 316 350 316 c 0
 425 316 476 372 476 459 c 0
 476 561 455 645 361 645 c 0
 289 645 226 579 226 452 c 0xec
EndSplineSet
EndChar

StartChar: colon
Encoding: 58 58 26
Width: 265
Flags: HW
HStem: -12 125<128 158.5> 365 125<207 237.5>
VStem: 82 122<36 65.5> 161 122<413 442.5>
LayerCount: 2
Back
SplineSet
82 51 m 4
 91 88 122 116 160 116 c 4
 199 116 217 88 208 51 c 4
 199 15 169 -12 130 -12 c 4
 92 -12 74 15 82 51 c 4
168 425 m 4
 177 462 208 490 246 490 c 4
 285 490 303 462 294 425 c 4
 285 389 256 362 217 362 c 4
 179 362 160 389 168 425 c 4
EndSplineSet
Fore
Refer: 14 46 S 1 0 0 1 79 377 2
Refer: 14 46 S 1 0 0 1 0 0 2
EndChar

StartChar: less
Encoding: 60 60 28
Width: 570
Flags: HMW
HStem: 477 20G<564 564>
VStem: 86 59<248 248 248 288 248 288>
LayerCount: 2
Fore
SplineSet
86 207 m 1
 86 288 l 1
 564 497 l 1
 564 428 l 1
 145 248 l 1
 564 68 l 1
 564 1 l 1
 86 207 l 1
EndSplineSet
EndChar

StartChar: greater
Encoding: 62 62 30
Width: 570
Flags: MW
HStem: 477 20G<86 86>
VStem: 505 59<248 248>
LayerCount: 2
Fore
SplineSet
86 1 m 1
 86 68 l 1
 505 248 l 1
 86 428 l 1
 86 497 l 1
 564 288 l 1
 564 207 l 1
 86 1 l 1
EndSplineSet
EndChar

StartChar: question
Encoding: 63 63 31
Width: 425
Flags: W
HStem: -12 125<196 226.5> 199 45<260.659 346.551> 672 35<293.928 380.322>
VStem: 150 122<36 65.5> 160 89<255.777 343.754> 164 75<556.36 614.162> 398 93<519.192 648.821>
LayerCount: 2
Fore
SplineSet
160 285 m 0xea
 160 332 195 368 264 408 c 0
 359 464 398 536 398 599 c 0
 398 640 380 672 339 672 c 0
 290 672 261 624 239 568 c 0
 235 557 225 549 208 549 c 0
 192 549 164 564 164 593 c 0xe6
 164 634 222 707 334 707 c 0
 431 707 491 655 491 580 c 0
 491 495 440 460 363 421 c 0
 298 388 249 354 249 302 c 0
 249 259 280 244 313 244 c 0
 331 244 344 246 356 247 c 1
 362 230 l 1
 340 214 298 199 264 199 c 0
 214 199 160 223 160 285 c 0xea
EndSplineSet
Refer: 14 46 S 1 0 0 1 68 0 2
EndChar

StartChar: at
Encoding: 64 64 32
Width: 794
Flags: HMW
HStem: -15 39<380.5 495> 172 38<630 665.5> 504 29<500.5 563> 666 41<427.5 599>
VStem: 123 78<245.5 398.5 245.5 430> 300 82<253.5 292> 537 69 782 50<357.5 409>
LayerCount: 2
Fore
SplineSet
123 303 m 0
 123 557 320 707 526 707 c 0
 716 707 832 576 832 414 c 0
 832 277 724 172 607 172 c 0
 547 172 517 203 551 309 c 1
 549 310 l 1
 521 260 442 170 366 172 c 0
 336 173 300 190 300 255 c 0
 300 329 374 533 552 533 c 0
 575 533 588 530 607 520 c 1
 611 528 l 1
 676 528 l 1
 610 270 l 2
 598 222 616 210 644 210 c 0
 711 210 782 306 782 409 c 0
 785 573 670 666 528 666 c 0
 327 666 201 490 201 307 c 0
 201 184 267 24 492 24 c 0
 550 24 616 36 661 55 c 1
 669 30 l 1
 607 -4 526 -15 464 -15 c 0
 297 -15 123 87 123 303 c 0
382 270 m 0
 382 237 394 219 416 219 c 0
 487 219 581 397 600 490 c 1
 585 500 573 504 553 504 c 0
 448 504 382 331 382 270 c 0
EndSplineSet
EndChar

StartChar: A
Encoding: 65 65 33
Width: 624
Flags: W
HStem: 0 29<-17 16 153 202 412 465 620 652> 267 38<263 462> 672 20G<423.61 508.458>
DStem2: 267 397 140 71 0.496297 0.868153<-373.648 -343.576 -81.8553 216.571> 506 692 427 599 0.122005 -0.992529<82.6668 378.741 417.067 646.9> 435 692 425 599 0.496297 0.868153<-660.998 -464.254 -421.338 -85.7012>
LayerCount: 2
Fore
SplineSet
-23 0 m 1
 -17 29 l 1
 16 33 l 2
 47 36 64 47 96 99 c 0
 133 159 216 308 267 397 c 2
 435 692 l 1
 506 692 l 1
 580 90 l 2
 585 49 589 35 620 32 c 2
 658 29 l 1
 652 0 l 1
 406 0 l 1
 412 29 l 1
 465 34 l 2
 485 36 493 44 490 73 c 2
 467 267 l 1
 243 267 l 1
 206 200 173 135 140 71 c 0
 131 50 133 36 153 34 c 2
 208 29 l 1
 202 0 l 1
 -23 0 l 1
263 305 m 1
 462 305 l 1
 427 599 l 1
 425 599 l 1
 371 502 316 404 263 305 c 1
EndSplineSet
EndChar

StartChar: B
Encoding: 66 66 34
Width: 632
Flags: W
HStem: 0 35<44 100 248.5 423.941> 355 35<306 444.052> 657 35<186 239 364.875 516.308>
VStem: 524 108<123.523 289.523> 569 102<468.599 613.596>
DStem2: 122.838 0 219.144 0 0.224951 0.97437<77.6297 385.529 421.207 665.965>
LayerCount: 2
Fore
SplineSet
38 0 m 1xf0
 44 29 l 1
 100 35 l 2
 124 38 135 50 142 83 c 2
 260 609 l 2
 268 643 262 655 239 657 c 2
 180 663 l 1
 186 692 l 1
 427 692 l 2
 499 693 564 686 608 659 c 0
 650 634 671 593 671 541 c 0xe8
 671 465 615 391 482 375 c 1
 481 372 l 1
 554 358 632 312 632 207 c 0
 632 124 584 0 342 0 c 2
 38 0 l 1xf0
242 99 m 2
 233 60 237 35 336 35 c 0
 470 35 524 124 524 213 c 0xf0
 524 327 437 355 338 355 c 2
 299 355 l 1
 242 99 l 2
306 390 m 1
 371 390 l 2
 425 390 477 402 510 427 c 0
 545 455 569 494 569 545 c 0xe8
 569 615 522 657 438 657 c 0
 371 657 366 652 359 622 c 2
 306 390 l 1
EndSplineSet
EndChar

StartChar: C
Encoding: 67 67 35
Width: 661
Flags: HMW
HStem: -15 35<362 462.5> 672 35<475.5 572 443 591.5>
VStem: 114 107<209 294 172 309.5> 692 30<504 504>
LayerCount: 2
Back
SplineSet
114 270 m 0
 114 336 128 430 183 523 c 0
 241 619 340 707 500 707 c 0
 665 707 789 619 789 414 c 0
 789 375 780 273 726 175 c 0
 671 76 584 -15 407 -15 c 0
 208 -15 114 105 114 270 c 0
219 230 m 0
 219 91 290 20 398 20 c 0
 528 20 596 113 637 220 c 0
 678 326 684 409 684 466 c 0
 684 607 614 672 504 672 c 0
 398 672 327 599 281 504 c 0
 235 407 219 314 219 230 c 0
EndSplineSet
Fore
SplineSet
114 275 m 0
 114 344 127 436 182 525 c 0
 240 619 349 707 537 707 c 0
 607 707 701 690 758 654 c 1
 722 504 l 1
 692 504 l 1
 697 613 654 672 529 672 c 0
 422 672 343 614 293 530 c 0
 245 450 221 339 221 249 c 0
 221 95 304 20 420 20 c 0
 543 20 594 86 649 186 c 1
 679 186 l 1
 630 27 l 1
 566 -5 498 -15 427 -15 c 0
 179 -15 114 143 114 275 c 0
EndSplineSet
EndChar

StartChar: D
Encoding: 68 68 36
Width: 763
Flags: W
HStem: 0 35<46 102 245.083 450.904> 657 35<188 241 368.172 567.095>
VStem: 695 107<287.876 528.342>
DStem2: 123.838 0 219.145 0 0.224951 0.97437<74.7764 666.332>
LayerCount: 2
Fore
SplineSet
40 0 m 1
 46 29 l 1
 102 35 l 2
 126 37 136 50 143 83 c 2
 262 609 l 2
 269 642 264 656 241 658 c 2
 182 663 l 1
 188 692 l 1
 457 692 l 2
 568 692 658 669 716 620 c 0
 773 572 802 492 802 411 c 0
 802 351 792 267 735 181 c 0
 663 72 547 0 347 0 c 2
 40 0 l 1
239 86 m 2
 229 42 266 35 321 35 c 0
 487 35 573 97 630 191 c 0
 675 265 695 347 695 433 c 0
 695 513 677 653 469 657 c 0
 382 657 368 654 360 620 c 2
 239 86 l 2
EndSplineSet
EndChar

StartChar: E
Encoding: 69 69 37
Width: 596
Flags: W
HStem: 0 35<44 100 245.578 482.332> 341 38<304 504.311> 657 35<186 239 363.984 601.571>
VStem: 514 30<255 286.804> 560 30<432.196 464> 581 30<151.843 176> 624 30<525 555.763>
DStem2: 121.838 0 216.834 0 0.224951 0.97437<75.9067 371.438 410.264 667.949>
LayerCount: 2
Fore
SplineSet
38 0 m 1xfa
 44 29 l 1
 100 35 l 2
 124 37 133 49 141 83 c 2
 261 611 l 2
 269 645 262 657 239 659 c 2
 179 663 l 1
 186 692 l 1
 692 692 l 1
 654 525 l 1
 624 525 l 1
 633 615 636 657 510 657 c 2
 389 657 l 2
 372 657 366 652 361 628 c 2
 304 379 l 1
 435 379 l 2
 523 379 534 395 560 464 c 1
 590 464 l 1xfa
 544 255 l 1
 514 255 l 1
 518 320 515 341 427 341 c 2
 296 341 l 1
 245 122 l 2
 234 75 235 60 250 48 c 0
 263 38 313 35 362 35 c 0
 485 35 530 53 581 176 c 1
 611 176 l 1xf6
 560 0 l 1
 38 0 l 1xfa
EndSplineSet
EndChar

StartChar: F
Encoding: 70 70 38
Width: 571
Flags: W
HStem: 0 29<44 100 260 329> 241 21G<512 546.381> 327 38<301 502.311> 657 35<186 239 364.65 604.571>
VStem: 512 30<241 272.957> 558 30<419.043 451> 627 30<527 557.395>
DStem2: 122.531 0 217.506 0 0.224951 0.97437<63.9625 356.966 395.792 665.765>
LayerCount: 2
Fore
SplineSet
38 0 m 1
 44 29 l 1
 100 34 l 2
 124 36 134 50 141 80 c 2
 261 612 l 2
 268 641 262 655 239 657 c 2
 180 663 l 1
 186 692 l 1
 695 692 l 1
 657 527 l 1
 627 527 l 1
 636 615 639 657 513 657 c 2
 390 657 l 2
 372 657 367 652 361 627 c 2
 301 365 l 1
 433 365 l 2
 521 365 532 381 558 451 c 1
 588 451 l 1
 542 241 l 1
 512 241 l 1
 516 306 513 327 425 327 c 2
 293 327 l 1
 237 80 l 2
 230 50 236 36 260 34 c 2
 335 29 l 1
 329 0 l 1
 38 0 l 1
EndSplineSet
EndChar

StartChar: G
Encoding: 71 71 39
Width: 709
Flags: MW
HStem: -15 35<347.027 533.78> 280 29<509 578 722 766> 672 35<441.854 634.332>
VStem: 114 110<155.993 418.195> 701 30<501 531.333>
DStem2: 537.453 -15 635.227 -15 0.224951 0.97437<48.4712 289.936>
LayerCount: 2
Fore
SplineSet
114 285 m 0
 114 373 143 479 209 563 c 0
 279 652 390 707 543 707 c 0
 627 707 706 690 767 657 c 1
 731 501 l 1
 701 501 l 1
 708 587 689 672 542 672 c 0
 303 672 224 438 224 278 c 0
 224 101 313 20 434 20 c 0
 538 20 551 45 558 74 c 2
 595 225 l 2
 604 260 597 271 578 273 c 2
 503 280 l 1
 509 309 l 1
 772 309 l 1
 766 280 l 1
 722 276 l 2
 705 274 699 259 691 225 c 2
 644 23 l 1
 587 2 505 -15 432 -15 c 0
 339 -15 258 8 199 59 c 0
 147 104 114 185 114 285 c 0
EndSplineSet
EndChar

StartChar: H
Encoding: 72 72 40
Width: 775
Flags: W
HStem: 0 29<46 101 261 314 475 530 690 743> 341 38<306 631> 663 29<189 241 401 456 618 670 830 885>
DStem2: 123.838 0 219.838 0 0.224951 0.97437<63.8975 371.213 410.264 667.283> 552.838 0 648.838 0 0.224951 0.97437<62.7316 349.843 388.893 667.283>
LayerCount: 2
Fore
SplineSet
40 0 m 1
 46 29 l 1
 101 35 l 2
 125 37 135 49 143 83 c 2
 263 609 l 2
 270 641 264 657 241 659 c 2
 182 663 l 1
 189 692 l 1
 463 692 l 1
 456 663 l 1
 401 658 l 2
 376 656 367 642 359 609 c 2
 306 379 l 1
 640 379 l 1
 692 609 l 2
 699 641 693 657 670 659 c 2
 611 663 l 1
 618 692 l 1
 892 692 l 1
 885 663 l 1
 830 658 l 2
 805 656 796 642 788 609 c 2
 668 83 l 2
 660 50 666 35 690 33 c 2
 749 29 l 1
 743 0 l 1
 469 0 l 1
 475 29 l 1
 530 35 l 2
 554 37 564 49 572 83 c 2
 631 341 l 1
 297 341 l 1
 239 83 l 2
 232 50 237 35 261 33 c 2
 320 29 l 1
 314 0 l 1
 40 0 l 1
EndSplineSet
EndChar

StartChar: I
Encoding: 73 73 41
Width: 345
Flags: HW
HStem: 0 29<46 101 261 314> 663 29<189 241 401 456>
DStem2: 123.838 0 219.838 0 0.224951 0.97437<63.6142 667.57>
LayerCount: 2
Back
SplineSet
35 0 m 1
 42 29 l 1
 131 35 133 37 146 93 c 2
 263 599 l 2
 276 655 275 657 188 663 c 1
 195 692 l 1
 470 692 l 1
 463 663 l 1
 375 657 371 655 358 599 c 2
 241 93 l 2
 228 37 231 35 317 29 c 1
 310 0 l 1
 35 0 l 1
EndSplineSet
Fore
SplineSet
40 0 m 1
 46 29 l 1
 101 35 l 2
 125 37 136 51 143 83 c 2
 263 609 l 2
 270 639 264 657 241 659 c 2
 182 663 l 1
 189 692 l 1
 463 692 l 1
 456 663 l 1
 401 658 l 2
 376 656 366 640 359 609 c 2
 239 83 l 2
 232 52 237 35 261 33 c 2
 320 29 l 1
 314 0 l 1
 40 0 l 1
EndSplineSet
EndChar

StartChar: J
Encoding: 74 74 42
Width: 352
Flags: W
HStem: -117 25<-43 -10.5156> 663 29<196 248 409 464>
DStem2: 101.282 -119 197.362 -119 0.224951 0.97437<111.04 789.501>
LayerCount: 2
Fore
SplineSet
-43 -92 m 1
 7 -87 48 -73 82 -42 c 0
 113 -13 140 50 162 144 c 2
 271 612 l 2
 278 643 272 656 248 658 c 2
 189 663 l 1
 196 692 l 1
 471 692 l 1
 464 663 l 1
 409 659 l 2
 384 657 374 643 367 612 c 2
 250 109 l 2
 227 9 192 -47 145 -80 c 0
 105 -108 36 -119 -10 -119 c 0
 -21 -119 -32 -118 -43 -117 c 1
 -43 -92 l 1
EndSplineSet
EndChar

StartChar: K
Encoding: 75 75 43
Width: 650
Flags: W
HStem: 0 29<46 64.3333 290.5 314 624.415 677> 663 29<189 241 401 456 572 606 733.627 817>
DStem2: 122.684 -5 218.684 -5 0.224951 0.97437<68.7457 396.957 408.35 672.701>
LayerCount: 2
Fore
SplineSet
40 0 m 1
 46 29 l 1
 101 35 l 2
 125 37 136 51 143 83 c 2
 263 609 l 2
 270 639 264 657 241 659 c 2
 182 663 l 1
 189 692 l 1
 463 692 l 1
 456 663 l 1
 401 658 l 2
 376 656 366 640 359 609 c 2
 305 372 l 1
 307 370 l 1
 411 458 509 539 605 627 c 0
 625 646 625 658 606 660 c 2
 568 663 l 1
 572 692 l 1
 821 692 l 1
 817 663 l 1
 736 658 712 643 655 603 c 0
 563 539 480 471 390 395 c 1
 432 307 500 185 567 101 c 0
 603 56 627 29 684 24 c 1
 677 -5 l 1
 628 -4 l 2
 551 -2 508 19 460 84 c 0
 399 167 350 267 304 361 c 1
 302 361 l 1
 239 83 l 2
 232 52 237 35 261 33 c 2
 320 29 l 1
 314 0 l 1
 40 0 l 1
EndSplineSet
EndChar

StartChar: L
Encoding: 76 76 44
Width: 565
Flags: W
HStem: 0 35<46 101 247.578 476.264> 663 29<189 241 401 461>
VStem: 573 30<151.843 176>
DStem2: 123.838 0 218.834 0 0.224951 0.97437<75.6761 667.224>
LayerCount: 2
Fore
SplineSet
40 0 m 1
 46 29 l 1
 101 35 l 2
 125 37 135 48 143 83 c 2
 263 609 l 2
 271 642 264 656 241 658 c 2
 182 663 l 1
 189 692 l 1
 468 692 l 1
 461 663 l 1
 401 659 l 2
 376 657 366 642 358 609 c 2
 247 122 l 2
 236 75 237 60 252 48 c 0
 265 38 315 35 364 35 c 0
 477 35 522 53 573 176 c 1
 603 176 l 1
 552 0 l 1
 40 0 l 1
EndSplineSet
EndChar

StartChar: M
Encoding: 77 77 45
Width: 920
Flags: W
HStem: 0 29<36 67 233 267 622 677 835 888> 663 29<181 233 975 1030>
DStem2: 115.057 0 162.057 0 0.224951 0.97437<62.4992 632.071> 375 692 302 606 0.19802 -0.980198<69.8416 555.604> 491 148 450 12 0.547856 0.836572<0 527.44> 699.838 0 793.838 0 0.224951 0.97437<65.1236 622.448>
LayerCount: 2
Fore
SplineSet
31 0 m 1
 36 29 l 1
 67 32 l 2
 96 35 114 43 126 75 c 0
 138 108 149 146 161 199 c 2
 255 609 l 2
 263 642 256 655 233 657 c 2
 174 663 l 1
 181 692 l 1
 375 692 l 1
 392 603 412 515 432 425 c 2
 488 148 l 1
 491 148 l 1
 668 418 l 2
 729 511 788 601 841 692 c 1
 1037 692 l 1
 1030 663 l 1
 975 659 l 2
 950 657 941 643 933 609 c 2
 813 83 l 2
 806 51 811 37 835 35 c 2
 894 29 l 1
 888 0 l 1
 616 0 l 1
 622 29 l 1
 677 35 l 2
 701 37 711 49 719 83 c 2
 842 606 l 1
 839 606 l 1
 450 12 l 1
 422 12 l 1
 302 606 l 1
 300 606 l 1
 208 199 l 2
 196 146 190 108 187 75 c 0
 184 44 201 35 233 32 c 2
 272 29 l 1
 267 0 l 1
 31 0 l 1
EndSplineSet
EndChar

StartChar: N
Encoding: 78 78 46
Width: 763
Flags: W
HStem: 0 29<36 67 233 267> 663 29<181 233 654 688 854 885>
DStem2: 115.057 0 162.057 0 0.224951 0.97437<62.5107 635.203> 371 692 305 609 0.415265 -0.9097<48.0976 616.65> 600.756 0 648 0 0.224951 0.97437<134.446 657.799>
LayerCount: 2
Fore
SplineSet
31 0 m 1
 36 29 l 1
 67 32 l 2
 97 35 114 43 126 75 c 0
 138 108 149 146 161 199 c 2
 255 609 l 2
 263 642 256 655 233 657 c 2
 174 663 l 1
 181 692 l 1
 371 692 l 1
 455 505 541 318 627 131 c 1
 631 131 l 1
 713 493 l 2
 725 546 731 584 734 617 c 0
 737 650 720 655 688 659 c 2
 649 663 l 1
 654 692 l 1
 890 692 l 1
 885 663 l 1
 854 660 l 2
 824 657 807 649 795 617 c 0
 783 584 772 546 760 493 c 2
 648 0 l 1
 583 0 l 1
 491 203 399 406 305 609 c 1
 302 609 l 1
 208 199 l 2
 196 146 190 108 187 75 c 0
 184 44 201 35 233 32 c 2
 272 29 l 1
 267 0 l 1
 31 0 l 1
EndSplineSet
EndChar

StartChar: O
Encoding: 79 79 47
Width: 753
Flags: HMW
HStem: -15 35<344 463 344 495.5> 672 35<451 559>
VStem: 114 105<187.5 272 160.5 303> 684 105<437.5 516.5 394.5 536.5>
LayerCount: 2
Fore
SplineSet
114 270 m 0
 114 336 128 430 183 523 c 0
 241 619 340 707 500 707 c 0
 665 707 789 619 789 414 c 0
 789 375 780 273 726 175 c 0
 671 76 584 -15 407 -15 c 0
 208 -15 114 105 114 270 c 0
219 230 m 0
 219 91 290 20 398 20 c 0
 528 20 596 113 637 220 c 0
 678 326 684 409 684 466 c 0
 684 607 614 672 504 672 c 0
 398 672 327 599 281 504 c 0
 235 407 219 314 219 230 c 0
EndSplineSet
EndChar

StartChar: P
Encoding: 80 80 48
Width: 614
Flags: W
HStem: 0 29<46 101 261 324> 280 35<298.056 461.298> 657 35<189 241 368.256 512.949>
VStem: 576 105<417.059 594.345>
DStem2: 123.838 0 219.838 0 0.224951 0.97437<65.1236 308.852 353.162 666.721>
LayerCount: 2
Fore
SplineSet
40 0 m 1
 46 29 l 1
 101 35 l 2
 125 37 135 49 143 83 c 2
 263 609 l 2
 271 642 264 656 241 658 c 2
 182 663 l 1
 189 692 l 1
 423 692 l 2
 489 692 553 683 600 656 c 0
 649 628 681 576 681 508 c 0
 681 433 644 366 580 327 c 0
 523 292 443 280 358 280 c 2
 284 280 l 1
 239 83 l 2
 232 51 237 37 261 35 c 2
 330 29 l 1
 324 0 l 1
 40 0 l 1
301 357 m 2
 294 325 292 315 361 315 c 0
 496 315 576 383 576 526 c 0
 576 611 525 657 426 657 c 0
 375 657 368 648 362 622 c 2
 301 357 l 2
EndSplineSet
EndChar

StartChar: Q
Encoding: 81 81 49
Width: 753
Flags: HMW
HStem: -203 33 -11 31 672 35<451 559>
VStem: 114 105<195.5 272 160.5 303> 684 105<437.5 516.5 394.5 536.5>
LayerCount: 2
Fore
SplineSet
114 270 m 0
 114 336 128 430 183 523 c 0
 241 619 340 707 500 707 c 0
 665 707 789 619 789 414 c 0
 789 375 780 273 726 175 c 0
 678 88 605 8 468 -11 c 1
 480 -30 505 -62 534 -91 c 0
 582 -139 629 -171 696 -170 c 1
 699 -187 l 1
 682 -197 650 -203 624 -203 c 0
 570 -203 505 -180 454 -137 c 0
 411 -101 373 -53 351 -11 c 1
 191 9 114 121 114 270 c 0
219 230 m 0
 219 91 290 20 398 20 c 0
 528 20 596 113 637 220 c 0
 678 326 684 409 684 466 c 0
 684 607 614 672 504 672 c 0
 398 672 327 599 281 504 c 0
 235 407 219 314 219 230 c 0
EndSplineSet
EndChar

StartChar: R
Encoding: 82 82 50
Width: 640
Flags: W
HStem: 0 29<46 101 261 314 599.195 648> 326 35<302 429.287> 657 35<189 241 368.191 520.056>
VStem: 462 101<55.2623 295.867> 572 105<450.777 613.407>
DStem2: 123.838 0 219.838 0 0.224951 0.97437<64.7334 355.923 391.825 666.771>
LayerCount: 2
Fore
SplineSet
40 0 m 1
 46 29 l 1
 101 35 l 2
 125 37 135 48 143 83 c 2
 263 609 l 2
 271 642 264 656 241 658 c 2
 182 663 l 1
 189 692 l 1
 459 692 l 2
 646 692 677 602 677 531 c 0
 677 432 593 362 471 345 c 1
 471 343 l 1
 562 318 564 250 563 170 c 0
 562 118 567 81 577 64 c 0
 589 44 613 33 657 29 c 1
 648 0 l 1
 570 0 l 2
 506 0 476 27 469 77 c 0
 460 151 468 228 462 264 c 0
 458 286 447 303 430 313 c 0
 415 323 387 326 354 326 c 2
 294 326 l 1
 239 83 l 2
 231 49 237 36 261 34 c 2
 320 29 l 1
 314 0 l 1
 40 0 l 1
302 361 m 1
 366 361 l 2
 495 361 572 422 572 541 c 0
 572 628 512 657 447 657 c 0
 371 657 368 648 361 619 c 2
 302 361 l 1
EndSplineSet
EndChar

StartChar: S
Encoding: 83 83 51
Width: 533
Flags: HMW
HStem: -15 35<244 278> 672 35<347.5 429 310.5 439>
VStem: 95 29<220 220> 168 84<507 551> 441 90<152.5 205>
LayerCount: 2
Fore
SplineSet
69 67 m 1
 95 220 l 1
 124 220 l 1
 118 87 198 20 290 20 c 0
 390 20 441 94 441 165 c 0
 441 245 393 287 313 327 c 0
 232 366 168 415 168 509 c 0
 168 593 223 707 398 707 c 0
 460 707 534 690 577 656 c 1
 541 516 l 1
 512 516 l 1
 524 619 487 672 391 672 c 0
 304 672 252 616 252 545 c 0
 252 469 323 435 381 405 c 0
 482 353 531 296 531 206 c 0
 531 99 472 -13 278 -15 c 0
 205 -15 108 15 69 67 c 1
EndSplineSet
EndChar

StartChar: T
Encoding: 84 84 52
Width: 606
Flags: MW
HStem: 0 31 657 35<284 333 333 402 498 498 498 561>
VStem: 678 27
DStem2: 272 81 368 81 0.220157 0.975464<-19.999 590.488>
LayerCount: 2
Fore
SplineSet
137 525 m 1
 175 692 l 1
 743 692 l 1
 705 525 l 1
 675 525 l 1
 684 615 685 657 561 657 c 2
 498 657 l 1
 368 81 l 2
 361 50 366 35 394 33 c 2
 467 29 l 1
 460 0 l 1
 152 0 l 1
 159 29 l 1
 224 33 l 2
 254 35 265 50 272 81 c 2
 402 657 l 1
 333 657 l 2
 235 657 199 627 167 525 c 1
 137 525 l 1
EndSplineSet
EndChar

StartChar: U
Encoding: 85 85 53
Width: 794
Flags: W
HStem: -15 35<333.553 497.942> 663 29<187 239 399 454 641 693 853 908>
DStem2: 114.435 -15 212.433 -15 0.224951 0.97437<179.353 684.101> 570.511 -15 665.513 -15 0.224951 0.97437<142.572 683.498>
LayerCount: 2
Fore
SplineSet
177 256 m 2
 261 609 l 2
 269 642 262 656 239 658 c 2
 180 663 l 1
 187 692 l 1
 461 692 l 1
 454 663 l 1
 399 659 l 2
 374 657 365 643 357 609 c 2
 278 269 l 2
 234 81 304 20 415 20 c 0
 554 20 603 127 634 260 c 2
 715 609 l 2
 723 642 716 656 693 658 c 2
 634 663 l 1
 641 692 l 1
 915 692 l 1
 908 663 l 1
 853 658 l 2
 828 656 819 643 811 609 c 2
 726 247 l 2
 671 14 546 -15 410 -15 c 0
 238 -15 130 57 177 256 c 2
EndSplineSet
EndChar

StartChar: V
Encoding: 86 86 54
Width: 637
Flags: W
HStem: 0 21G<284.375 367.768> 663 29<136 171 317 381 601 651 752.869 816>
DStem2: 300 624 208 611 0.128229 -0.991745<-30.4542 528.009> 367 100 356 0 0.489711 0.871885<0 513.494>
LayerCount: 2
Fore
SplineSet
131 663 m 1
 136 692 l 1
 386 692 l 1
 381 663 l 1
 317 657 l 2
 299 655 298 643 300 624 c 0
 308 541 318 454 330 366 c 2
 365 100 l 1
 367 100 l 1
 510 349 l 2
 594 495 642 582 663 627 c 0
 674 650 669 656 651 658 c 2
 596 663 l 1
 601 692 l 1
 821 692 l 1
 816 663 l 1
 763 659 747 653 725 619 c 0
 685 557 624 456 559 345 c 2
 356 0 l 1
 287 0 l 1
 245 320 l 2
 232 420 220 519 208 611 c 0
 203 647 194 655 171 658 c 2
 131 663 l 1
EndSplineSet
EndChar

StartChar: W
Encoding: 87 87 55
Width: 946
Flags: MW
HStem: 0 21G<236.571 317.946 637.113 718.748> 663 29<127 165 308 373 886 946 1043.75 1105>
DStem2: 287 625 194 616 0.071247 -0.997459<-30.1941 504.073> 325 122 308 0 0.445262 0.8954<0 498.559> 666 674 587 551 0.0919995 -0.995759<115.21 554.351> 721 122 709 0 0.423877 0.90572<0 487.834>
LayerCount: 2
Fore
SplineSet
121 663 m 1
 127 692 l 1
 380 692 l 1
 373 663 l 1
 308 657 l 2
 292 656 285 648 287 625 c 2
 320 122 l 1
 325 122 l 1
 596 674 l 1
 666 674 l 1
 717 122 l 1
 721 122 l 1
 841 373 l 2
 902 500 939 582 955 622 c 0
 963 643 962 654 946 656 c 2
 881 663 l 1
 886 692 l 1
 1110 692 l 1
 1105 663 l 1
 1043 657 1036 651 1008 603 c 0
 990 572 939 471 883 357 c 2
 709 0 l 1
 639 0 l 1
 587 551 l 1
 582 551 l 1
 308 0 l 1
 238 0 l 1
 194 616 l 2
 192 646 187 656 165 658 c 2
 121 663 l 1
EndSplineSet
EndChar

StartChar: X
Encoding: 88 88 56
Width: 632
Flags: W
HStem: 0 29<5 77.5889 197 248 403 455 599.882 668> 663 29<151 215.189 353 405 540 577 690.499 764>
DStem2: 336 623 238 620 0.391495 -0.92018<-28.2946 215.218 248.256 269.053 306.711 590.473> 352 349 368 305 0.654685 0.755902<-225.666 -22.7847 101.211 280.751>
LayerCount: 2
Fore
SplineSet
-1 0 m 1
 5 29 l 1
 67 35 84 39 116 73 c 0
 174 135 274 255 352 349 c 1
 312 440 268 555 238 620 c 0
 222 655 205 658 145 663 c 1
 151 692 l 1
 411 692 l 1
 405 663 l 1
 353 659 l 2
 332 657 327 646 336 623 c 0
 362 559 390 489 418 424 c 1
 420 424 l 1
 482 495 557 590 586 628 c 0
 599 645 597 657 577 659 c 2
 534 663 l 1
 540 692 l 1
 770 692 l 1
 764 663 l 1
 711 659 690 653 668 634 c 0
 612 583 504 465 436 383 c 1
 483 277 547 131 571 80 c 0
 591 37 608 34 674 29 c 1
 668 0 l 1
 398 0 l 1
 403 29 l 1
 455 34 l 2
 477 36 481 48 472 70 c 0
 442 145 406 225 372 305 c 1
 368 305 l 1
 302 224 219 115 183 63 c 0
 172 47 178 37 197 35 c 2
 254 29 l 1
 248 0 l 1
 -1 0 l 1
EndSplineSet
EndChar

StartChar: Y
Encoding: 89 89 57
Width: 591
Flags: W
HStem: 0 29<161 233 395 465> 663 29<137 196.97 325 380 550 615.406 708.574 773>
DStem2: 306 629 214 617 0.284195 -0.958767<-21.9224 320.203> 255.992 0 353.992 0 0.224951 0.97437<65.5435 317.96>
LayerCount: 2
Fore
SplineSet
131 663 m 1
 137 692 l 1
 386 692 l 1
 380 663 l 1
 325 658 l 2
 306 656 302 647 306 629 c 2
 397 322 l 1
 400 322 l 1
 479 429 572 563 611 630 c 0
 620 647 617 658 596 659 c 2
 544 663 l 1
 550 692 l 1
 779 692 l 1
 773 663 l 1
 716 659 704 652 668 612 c 0
 614 551 514 418 438 307 c 0
 428 293 417 274 410 247 c 2
 372 78 l 2
 366 50 371 37 395 35 c 2
 471 29 l 1
 465 0 l 1
 155 0 l 1
 161 29 l 1
 233 36 l 2
 259 39 268 50 274 78 c 2
 312 246 l 2
 317 267 317 282 312 299 c 0
 279 409 248 518 214 617 c 0
 201 656 194 658 131 663 c 1
EndSplineSet
EndChar

StartChar: Z
Encoding: 90 90 58
Width: 622
Flags: W
HStem: 0 35<154 504.952> 657 35<294.9 598>
VStem: 188 30<523 554.973> 611 30<151.843 176>
DStem2: 15 13 154 35 0.671756 0.740772<109.671 868.691>
LayerCount: 2
Fore
SplineSet
15 13 m 1
 212 229 408 446 598 657 c 1
 403 657 l 2
 292 657 259 639 218 523 c 1
 188 523 l 1
 225 692 l 1
 733 692 l 1
 738 679 l 1
 541 463 344 246 154 35 c 1
 357 35 l 2
 515 35 558 53 611 176 c 1
 641 176 l 1
 590 0 l 1
 19 0 l 1
 15 13 l 1
EndSplineSet
EndChar

StartChar: bracketleft
Encoding: 91 91 59
Width: 330
Flags: W
HStem: -128 27<190.125 263> 665 27<359.125 444>
DStem2: 104 -128 166.069 -128 0.224951 0.97437<56.4291 823.336>
LayerCount: 2
Fore
SplineSet
104 -128 m 1
 290 692 l 1
 449 692 l 1
 444 665 l 1
 353 660 345 654 335 610 c 2
 185 -46 l 2
 176 -90 180 -96 268 -101 c 1
 263 -128 l 1
 104 -128 l 1
EndSplineSet
EndChar

StartChar: backslash
Encoding: 92 92 60
Width: 390
Flags: W
HStem: -15 21G<329.155 406> 687 20G<124 200.845>
VStem: 124 71<636 707> 335 71<-15 56>
DStem2: 195 707 124 707 0.28051 -0.959851<0 732.284>
LayerCount: 2
Fore
SplineSet
124 707 m 1
 195 707 l 1
 406 -15 l 1
 335 -15 l 1
 124 707 l 1
EndSplineSet
EndChar

StartChar: bracketright
Encoding: 93 93 61
Width: 330
Flags: W
HStem: -128 27<19 104.25> 665 27<200 273.625>
DStem2: 109.069 -128 173 -128 0.224951 0.97437<31.9669 798.941>
LayerCount: 2
Fore
SplineSet
14 -128 m 1
 19 -101 l 1
 111 -96 118 -90 128 -46 c 2
 278 610 l 2
 288 654 284 660 195 665 c 1
 200 692 l 1
 359 692 l 1
 173 -128 l 1
 14 -128 l 1
EndSplineSet
EndChar

StartChar: asciicircum
Encoding: 94 94 62
Width: 570
Flags: W
HStem: 648 20G<305.091 399.682>
VStem: 118 76<228 304> 506 76<228 304>
DStem2: 118 228 194 228 0.406909 0.913469<30.9251 430.46> 391 668 352 595 0.398192 -0.917302<51.4335 449.405>
LayerCount: 2
Fore
SplineSet
118 228 m 1
 314 668 l 1
 391 668 l 1
 582 228 l 1
 506 228 l 1
 352 595 l 1
 194 228 l 1
 118 228 l 1
EndSplineSet
EndChar

StartChar: underscore
Encoding: 95 95 63
Width: 500
Flags: HMW
HStem: -125 50<0 500 0 500>
VStem: 0 500<-125 -75 -125 -75>
LayerCount: 2
Fore
SplineSet
0 -75 m 1
 500 -75 l 1
 500 -125 l 1
 0 -125 l 1
 0 -75 l 1
EndSplineSet
EndChar

StartChar: quoteleft
Encoding: 8216 8216 64
Width: 216
Flags: HMW
HStem: 488 260<220 302>
VStem: 165 86
LayerCount: 2
Fore
SplineSet
165 552 m 0
 165 637 244 699 302 748 c 1
 318 731 l 1
 284 698 255 660 251 623 c 0
 249 603 255 590 261 576 c 0
 266 564 273 552 273 538 c 0
 273 512 250 488 220 488 c 0
 185 486 165 522 165 552 c 0
EndSplineSet
EndChar

StartChar: a
Encoding: 97 97 65
Width: 561
Flags: W
HStem: -12 52<133.996 239.503 422.932 502.947> 467 35<352.6 475.116> 474 20G<491 580>
VStem: 66 99<47.3401 221.932>
DStem2: 388 100 474 95 0.256758 0.966476<-31.9163 118.908 142.103 365.14 394.673 408.521>
LayerCount: 2
Fore
SplineSet
66 107 m 0xb0
 66 239 180 502 418 502 c 0xd0
 445 502 474 493 491 481 c 1
 496 494 l 1
 580 494 l 1
 474 95 l 2
 465 63 464 40 484 40 c 0
 512 40 556 111 574 146 c 1
 598 132 l 1
 564 56 508 -12 432 -12 c 0
 378 -12 367 29 388 100 c 2
 422 214 l 1
 420 214 l 1
 362 112 269 -12 162 -12 c 0
 94 -12 66 47 66 107 c 0xb0
165 110 m 0
 165 71 176 40 209 40 c 0
 257 40 318 107 374 192 c 0
 427 272 463 371 481 445 c 1
 466 459 444 467 420 467 c 0
 263 467 165 220 165 110 c 0
EndSplineSet
EndChar

StartChar: b
Encoding: 98 98 66
Width: 559
Flags: W
HStem: -12 35<235.871 345.537> 0 21G<82 128.69> 450 52<407.741 522> 695 23<158 209> 722 20G<187.833 342> 722 20G<187.833 342>
VStem: 494 98<255.106 438.854>
DStem2: 79.2296 -12 159.893 -12 0.224951 0.97437<334.247 711.808>
LayerCount: 2
Fore
SplineSet
82 0 m 1x72
 229 639 l 2
 238 678 234 685 209 688 c 2
 152 695 l 1
 158 718 l 1
 337 742 l 1
 342 737 l 1
 231 296 l 1
 233 296 l 1
 310 433 409 502 485 502 c 0
 559 502 592 450 592 376 c 0
 592 331 576 242 526 154 c 0
 477 66 392 -12 275 -12 c 0xba
 218 -12 167 16 149 58 c 1
 118 0 l 1
 82 0 l 1x72
205 109 m 0
 205 59 236 23 287 23 c 0
 434 23 494 295 494 367 c 0
 494 424 477 450 440 450 c 0
 378 450 303 364 258 284 c 0
 226 226 205 157 205 109 c 0
EndSplineSet
EndChar

StartChar: c
Encoding: 99 99 67
Width: 441
Flags: HMW
HStem: -12 49<231.5 261> 467 35<301 363>
VStem: 81 99<132.5 230>
LayerCount: 2
Fore
SplineSet
81 148 m 0
 81 312 193 502 371 502 c 0
 446 502 500 464 500 413 c 0
 500 380 460 357 436 357 c 0
 418 357 409 369 407 387 c 0
 401 447 379 467 347 467 c 0
 255 467 180 298 180 168 c 0
 180 97 195 37 268 37 c 0
 335 37 394 108 428 154 c 1
 452 135 l 1
 383 20 298 -12 224 -12 c 0
 154 -12 81 26 81 148 c 0
EndSplineSet
EndChar

StartChar: d
Encoding: 100 100 68
Width: 587
Flags: MW
HStem: -12 52<136.727 253.979 483.293 519.052> 467 35<349.088 483.474> 695 47<458 642>
VStem: 72 99<49.8567 229.129>
DStem2: 378.37 -12.0179 464.293 -12.0179 0.224951 0.97437<79.296 237.312 254.397 478.756 678.561 714.462>
LayerCount: 2
Fore
SplineSet
72 120 m 0
 72 241 179 502 412 502 c 0
 446 502 477 495 496 485 c 1
 498 487 l 1
 536 648 l 2
 544 680 542 687 518 689 c 2
 458 695 l 1
 464 718 l 1
 642 742 l 1
 647 737 l 1
 489 95 l 2
 481 63 479 40 499 40 c 0
 527 40 571 111 589 146 c 1
 613 132 l 1
 579 56 523 -12 450 -12 c 0
 399 -13 384 28 404 99 c 2
 437 218 l 1
 435 218 l 1
 376 111 287 -12 172 -12 c 0
 91 -12 72 55 72 120 c 0
171 112 m 0
 171 67 189 40 221 40 c 0
 274 40 340 115 388 193 c 0
 439 276 472 370 487 447 c 1
 475 458 449 467 418 467 c 0
 258 467 171 220 171 112 c 0
EndSplineSet
EndChar

StartChar: e
Encoding: 101 101 69
Width: 453
Flags: HMW
HStem: -12 49<235 265.5> 467 35<337 371.5>
VStem: 80 99<136.5 178.5 136.5 194> 412 94<388 425.5>
LayerCount: 2
Fore
SplineSet
80 152 m 0
 80 236 110 323 163 388 c 0
 218 456 292 502 382 502 c 0
 464 502 506 455 506 402 c 0
 506 374 499 341 464 306 c 0
 421 266 348 226 180 192 c 1
 179 185 179 181 179 176 c 0
 179 97 200 37 270 37 c 0
 345 37 399 104 435 151 c 1
 458 131 l 1
 390 20 302 -12 229 -12 c 0
 171 -12 80 12 80 152 c 0
182 226 m 1
 351 262 412 338 412 408 c 0
 412 443 389 467 354 467 c 0
 274 467 199 347 182 226 c 1
EndSplineSet
EndChar

StartChar: f
Encoding: 102 102 70
Width: 315
Flags: HMW
HStem: -242 37<47.5 58 47.5 69> 452 38<123 201 112 210 302 422> 707 35<392.5 409.5>
VStem: -72 611
LayerCount: 2
Fore
SplineSet
-72 -184 m 0
 -72 -159 -49 -134 -27 -134 c 0
 -14 -134 -7 -146 0 -156 c 0
 27 -197 42 -205 53 -205 c 0
 63 -205 73 -199 85 -137 c 2
 201 452 l 1
 112 452 l 1
 123 490 l 1
 210 490 l 1
 220 527 l 2
 234 580 254 634 285 673 c 0
 318 715 360 742 425 742 c 0
 485 742 539 707 539 664 c 0
 539 639 510 620 490 620 c 0
 475 620 468 627 463 637 c 0
 441 685 423 707 396 707 c 0
 368 707 349 679 330 603 c 2
 302 490 l 1
 432 490 l 1
 422 452 l 1
 296 452 l 1
 203 31 l 2
 161 -161 119 -242 19 -242 c 0
 -28 -242 -71 -217 -72 -184 c 0
EndSplineSet
EndChar

StartChar: g
Encoding: 103 103 71
Width: 499
Flags: HW
HStem: -242 35<228.5 309.5 228.5 317.5> 180 35<288.5 334.5 270.5 365.5> 467 35<292.5 355>
VStem: 30 92<-123 -54.5> 113 85<130 138> 120 94<281 332.5 276 353.5> 409 85<-130 -52> 420 92<336.5 372.5 307.5 417.5>
LayerCount: 2
Fore
SplineSet
30 -96 m 0xf2
 30 -13 116 29 184 41 c 1
 184 43 l 1
 143 62 113 85 113 118 c 0xea
 113 158 173 180 204 193 c 1
 204 195 l 1
 174 206 120 244 120 318 c 0
 120 389 169 502 333 502 c 0
 382 502 431 489 457 472 c 1
 602 512 l 1
 608 503 l 1
 575 440 l 1
 491 428 l 1
 504 411 512 386 512 359 c 0
 512 256 435 180 296 180 c 0
 281 180 262 180 242 183 c 1
 218 177 198 163 198 144 c 0xe9
 198 116 235 102 319 82 c 0
 437 54 494 0 494 -75 c 0
 494 -185 385 -242 250 -242 c 0
 123 -242 30 -185 30 -96 c 0xf2
122 -87 m 0
 122 -159 185 -207 272 -207 c 0xf2
 347 -207 409 -170 409 -94 c 0
 409 -10 291 16 228 25 c 1
 187 19 122 -15 122 -87 c 0
214 301 m 0
 214 251 244 215 297 215 c 0
 372 215 420 290 420 383 c 0
 420 452 370 467 340 467 c 0xf7
 245 467 214 364 214 301 c 0
EndSplineSet
EndChar

StartChar: h
Encoding: 104 104 72
Width: 607
Flags: MW
HStem: -12 52<435.5 523> 450 52<460.5 478> 675 20G<161 161> 722 20G<347 347>
VStem: 404 89 499 90
DStem2: 92 -12 179 0 0.228524 0.973538<31.564 277.548 317.121 710.338>
LayerCount: 2
Fore
SplineSet
92 -12 m 1
 238 639 l 2
 247 678 243 685 218 688 c 2
 161 695 l 1
 167 718 l 1
 347 742 l 1
 352 737 l 1
 240 279 l 1
 243 279 l 1
 307 399 413 502 508 502 c 0
 589 502 602 436 578 357 c 2xf4
 499 95 l 2
 489 63 489 40 509 40 c 0
 537 40 581 111 599 146 c 1
 623 132 l 1
 589 56 533 -12 464 -12 c 0
 407 -12 393 30 412 96 c 2xf8
 494 380 l 2
 506 421 494 450 462 450 c 0
 375 450 276 298 246 220 c 0
 221 157 206 102 179 0 c 1
 92 -12 l 1
EndSplineSet
EndChar

StartChar: i
Encoding: 105 105 73
Width: 317
Flags: W
HStem: -12 52<145 240.283> 450 24<132 177.5> 482 20<184 319> 593 122<260.375 348.333>
VStem: 244 119<608.017 699.5>
DStem2: 120 86 210 95 0.261695 0.965151<-18.7826 364.391>
LayerCount: 2
Fore
SplineSet
244 649 m 0
 244 681 266 715 309 715 c 0
 337 715 363 699 363 660 c 0
 363 620 338 593 299 593 c 0
 269 593 244 612 244 649 c 0
EndSplineSet
Refer: 144 305 S 1 0 0 1 0 0 2
EndChar

StartChar: j
Encoding: 106 106 74
Width: 309
Flags: W
HStem: -242 35<9 87.0091> 450 24<142 186.75> 482 20<193.143 326> 593 122<262.375 350.333>
VStem: 246 119<608.017 699.5>
DStem2: 75.7627 -242 157.823 -242 0.224951 0.97437<75.9433 696.309>
LayerCount: 2
Fore
SplineSet
246 649 m 0
 246 681 268 715 311 715 c 0
 339 715 365 699 365 660 c 0
 365 620 340 593 301 593 c 0
 271 593 246 612 246 649 c 0
EndSplineSet
Refer: 230 567 S 1 0 0 1 0 0 2
EndChar

StartChar: k
Encoding: 107 107 75
Width: 545
Flags: W
HStem: -12 55<408 494.162> 426 76<458 572.915> 695 23<176 227> 722 20G<205.833 360> 722 20G<205.833 360>
DStem2: 92 -12 181.23 -12 0.224951 0.97437<32.3879 712.827>
LayerCount: 2
Fore
SplineSet
92 -12 m 1xf0
 247 639 l 2
 256 678 252 685 227 688 c 2
 170 695 l 1
 176 718 l 1
 355 742 l 1
 360 737 l 1
 184 0 l 1
 92 -12 l 1xf0
255 267 m 1
 302 324 354 379 410 428 c 0
 461 471 510 502 550 502 c 0
 589 502 602 480 602 453 c 0
 602 428 581 399 553 399 c 0
 542 399 532 403 525 407 c 0
 502 421 491 426 476 426 c 0
 440 426 362 341 334 309 c 1
 353 242 378 177 409 114 c 0
 434 62 448 43 465 43 c 0
 492 43 517 82 545 142 c 1
 570 129 l 1
 540 45 496 -12 432 -12 c 0
 384 -12 355 19 326 83 c 0
 298 144 274 203 255 267 c 1
EndSplineSet
EndChar

StartChar: l
Encoding: 108 108 76
Width: 306
Flags: MW
HStem: -12 52<141 236.225> 695 47<176 361>
DStem2: 93.3749 -12 180.528 -12 0.224951 0.97437<79.6292 713.469>
LayerCount: 2
Fore
SplineSet
116 86 m 2
 253 639 l 2
 263 678 258 685 233 688 c 2
 176 695 l 1
 182 718 l 1
 361 742 l 1
 366 737 l 1
 205 94 l 2
 197 61 197 40 215 40 c 0
 239 40 284 101 307 146 c 1
 331 132 l 1
 299 57 238 -12 168 -12 c 0
 114 -12 102 29 116 86 c 2
EndSplineSet
EndChar

StartChar: m
Encoding: 109 109 77
Width: 912
Flags: MW
HStem: -12 52<741 835.142> 450 52<430.383 540.63 729.71 846.654> 450 24<132 177.25>
DStem2: 98 -12 185 0 0.258509 0.966009<34.0824 279.971 332.321 465.05> 396 -12 483 0 0.255752 0.966742<33.8513 278.991 331.854 459.441> 714 86 805 95 0.280752 0.95978<-16.5231 360.62>
LayerCount: 2
Fore
SplineSet
98 -12 m 1xc0
 201 397 l 2
 209 429 211 443 187 445 c 2
 126 450 l 1
 132 474 l 1xa0
 313 502 l 1
 318 497 l 1
 255 290 l 1
 258 290 l 1
 327 416 420 502 512 502 c 0
 582 502 602 449 572 353 c 2
 552 290 l 1
 556 290 l 1
 628 419 719 502 809 502 c 0
 892 502 905 436 882 357 c 2
 805 95 l 2
 796 63 795 40 815 40 c 0
 843 40 887 111 905 146 c 1
 929 132 l 1
 895 56 839 -12 766 -12 c 0
 716 -12 696 24 714 86 c 2
 800 380 l 2
 813 423 799 450 766 450 c 0
 682 450 591 306 554 221 c 0
 528 160 512 102 483 0 c 1
 396 -12 l 1
 422 86 l 1
 496 366 l 2
 512 428 496 450 466 450 c 0
 383 450 285 300 251 213 c 0
 230 160 214 102 185 0 c 1
 98 -12 l 1xc0
EndSplineSet
EndChar

StartChar: n
Encoding: 110 110 78
Width: 618
Flags: HMW
HStem: -12 52<443 540.089> 450 52<440.924 559> 450 24<132 177.75>
DStem2: 98 -12 186 0 0.260322 0.965522<34.4946 281.902 321.837 465.308> 419 86 511 95 0.281634 0.959522<-16.1437 361.278>
LayerCount: 2
Fore
SplineSet
98 -12 m 1xc0
 203 397 l 2
 212 429 212 443 188 445 c 2
 126 450 l 1
 132 474 l 1xa0
 315 502 l 1
 320 497 l 1
 255 279 l 1
 258 279 l 1
 318 396 422 502 518 502 c 0
 600 502 612 436 589 357 c 2
 511 95 l 2
 502 63 501 40 521 40 c 0
 549 40 593 111 611 146 c 1
 635 132 l 1
 601 56 545 -12 470 -12 c 0
 416 -12 403 30 419 86 c 2
 505 379 l 2
 516 418 507 450 472 450 c 0
 391 450 295 304 258 218 c 0
 232 156 215 102 186 0 c 1
 98 -12 l 1xc0
EndSplineSet
EndChar

StartChar: o
Encoding: 111 111 79
Width: 537
Flags: HMW
HStem: -12 35<242 322.5> 467 35<311 407.5>
VStem: 84 97<115.5 183 93.5 212> 460 97<326.5 393>
LayerCount: 2
Fore
SplineSet
84 169 m 0
 84 255 141 502 378 502 c 0
 459 502 557 465 557 327 c 0
 557 273 540 188 494 116 c 0
 447 42 377 -12 268 -12 c 0
 142 -12 84 62 84 169 c 0
181 129 m 0
 181 58 213 23 271 23 c 0
 408 23 460 291 460 362 c 0
 460 424 438 467 377 467 c 0
 245 467 181 237 181 129 c 0
EndSplineSet
EndChar

StartChar: p
Encoding: 112 112 80
Width: 590
Flags: W
HStem: -242 21G<61.3818 146> -12 35<228.876 362.651> 450 52<432.185 547> 450 24<126 171.25>
VStem: 522 99<253.078 437.672>
DStem2: 57 -242 143.23 -242 0.224951 0.97437<31.7131 277.934 313.245 556.296 559.683 697.427>
LayerCount: 2
Fore
SplineSet
57 -242 m 1xe8
 197 397 l 2
 204 427 206 443 182 445 c 2
 120 450 l 1
 126 474 l 1xd8
 307 502 l 1
 312 497 l 1
 255 286 l 1
 258 286 l 1
 334 429 433 502 510 502 c 0
 584 502 621 455 621 368 c 0
 621 292 554 -12 309 -12 c 0
 257 -12 222 -3 201 10 c 1
 146 -230 l 1
 57 -242 l 1xe8
211 53 m 1
 233 34 260 23 299 23 c 0
 463 23 522 288 522 367 c 0
 522 420 504 450 468 450 c 0xe8
 411 450 338 370 290 286 c 0
 252 219 224 117 211 53 c 1
EndSplineSet
EndChar

StartChar: q
Encoding: 113 113 81
Width: 559
Flags: W
HStem: -242 21G<335.583 424> -12 52<143.5 249.418> 467 35<354.451 488.494>
VStem: 73 99<48.8735 229.279>
DStem2: 331 -242 419.383 -242 0.224951 0.97437<40.4078 443.198 477.171 714.172>
LayerCount: 2
Fore
SplineSet
73 107 m 0
 73 244 174 502 423 502 c 0
 470 502 505 489 521 480 c 1
 564 525 l 1
 602 525 l 5
 424 -222 l 5
 331 -242 l 5
 430 190 l 5
 427 190 l 5
 353 66 251 -12 168 -12 c 0
 119 -12 73 20 73 107 c 0
172 123 m 0
 172 76 184 40 220 40 c 0
 261 40 317 84 372 156 c 0
 426 228 470 331 494 446 c 1
 479 457 456 467 424 467 c 0
 258 467 172 221 172 123 c 0
EndSplineSet
EndChar

StartChar: r
Encoding: 114 114 82
Width: 402
Flags: MW
HStem: -12 21G<104 104> 396 106<420 448.5> 421 81<297 381.5> 447.5 26.5 477 20G<302 302>
VStem: 104 379
DStem2: 104 -12 190 0 0.219839 0.975536<30.6126 463.167>
LayerCount: 2
Fore
SplineSet
104 -12 m 1
 196 397 l 2
 203 429 205 443 181 445 c 2
 119 450 l 1
 125 474 l 1x94
 297 502 l 1
 302 497 l 1x8c
 257 331 l 1
 259 331 l 1
 313 439 382 502 438 502 c 0
 470 502 484 485 483 458 c 0
 483 429 461 396 436 396 c 0xc4
 404 396 397 421 366 421 c 0xa4
 328 421 278 335 242 204 c 0
 226 146 207 65 190 0 c 1x8c
 104 -12 l 1
EndSplineSet
EndChar

StartChar: s
Encoding: 115 115 83
Width: 389
Flags: HMW
HStem: -12 35<209.5 249 209.5 258> 467 35<257.5 292.5>
VStem: 143 71<388 395.5> 300 77<98 117.5>
LayerCount: 2
Fore
SplineSet
54 83 m 0
 54 110 76 137 106 137 c 0
 123 137 132 126 138 107 c 0
 154 54 191 23 228 23 c 0
 270 23 300 51 300 98 c 0
 300 137 274 181 231 215 c 0
 179 257 143 303 143 355 c 0
 143 436 203 502 305 502 c 0
 394 502 432 455 432 424 c 0
 432 393 404 378 384 378 c 0
 369 378 361 386 356 398 c 0
 335 445 309 467 276 467 c 0
 239 467 214 434 214 402 c 0
 214 374 225 341 285 292 c 0
 352 237 377 194 377 139 c 0
 377 57 312 -12 204 -12 c 0
 109 -12 54 40 54 83 c 0
EndSplineSet
EndChar

StartChar: t
Encoding: 116 116 84
Width: 341
Flags: W
HStem: -12 52<147 249.234> 452 38<143 215 312 428>
DStem2: 102.375 -12 190.913 -12 0.224951 0.97437<79.5532 477.443 536.289 536.289>
LayerCount: 2
Fore
SplineSet
125 86 m 2
 215 452 l 1
 132 452 l 1
 143 490 l 1
 224 490 l 1
 237 539 l 1
 334 616 l 1
 346 609 l 1
 312 490 l 1
 439 490 l 1
 428 452 l 1
 303 452 l 1
 214 88 l 2
 208 63 208 40 229 40 c 0
 260 40 311 107 334 146 c 1
 356 129 l 1
 316 54 252 -12 172 -12 c 0
 122 -12 110 29 125 86 c 2
EndSplineSet
EndChar

StartChar: u
Encoding: 117 117 85
Width: 618
Flags: HMW
HStem: -12 52<232 249> 450 52<126 314>
VStem: 124 92 423 88
DStem2: 134 133 223 128 0.251781 0.967784<-57.0164 316.163> 431 96 515 94 0.253676 0.967289<-30.1552 118.642 159.182 406.987>
LayerCount: 2
Back
SplineSet
428 86 m 2
 532 490 l 1
 621 502 l 1
 518 95 l 2
 509 63 508 40 528 40 c 0
 556 40 600 111 618 146 c 1
 642 132 l 1
 608 56 552 -12 480 -12 c 0
 426 -12 413 29 428 86 c 2
EndSplineSet
Fore
SplineSet
126 450 m 1
 132 474 l 1
 314 502 l 1
 319 497 l 1
 223 128 l 2
 208 70 216 40 248 40 c 0
 331 40 418 173 462 274 c 0
 488 335 504 388 533 490 c 1
 622 502 l 1
 515 94 l 2
 507 63 507 40 528 40 c 0
 556 40 600 112 620 146 c 1
 644 131 l 1
 609 57 549 -12 477 -12 c 0
 424 -12 412 29 431 96 c 2
 464 210 l 1
 462 210 l 1
 402 94 297 -12 201 -12 c 0
 121 -12 113 53 134 133 c 2
 203 397 l 2
 211 428 212 443 188 445 c 2
 126 450 l 1
EndSplineSet
EndChar

StartChar: v
Encoding: 118 118 86
Width: 510
Flags: MW
HStem: -12 52<239.5 247> 447.5 26.5 477 20G<307 307> 482 20G<302 302 520 536>
VStem: 129 88 471 92<356 443.5>
DStem2: 135 119 220 110 0.219332 0.97565<-46.0675 328.581>
LayerCount: 2
Fore
SplineSet
119 450 m 1
 125 474 l 1xdc
 302 502 l 1
 307 497 l 1xac
 220 110 l 2
 209 62 227 40 252 40 c 0
 334 37 463 219 471 356 c 0
 471 408 469 446 459 481 c 1
 480 494 508 502 532 502 c 0
 540 502 563 463 563 424 c 0x9c
 562 362 514 253 446 161 c 0
 377 68 290 -12 204 -12 c 0
 147 -12 115 28 135 119 c 2
 196 397 l 2
 203 430 204 443 181 445 c 2
 119 450 l 1
EndSplineSet
EndChar

StartChar: w
Encoding: 119 119 87
Width: 785
Flags: MW
HStem: -12 52<241 247.5 528.5 549.5> 447.5 26.5 473 20G<588 588> 477 20G<311 311> 482 20G<306 306 800 816>
VStem: 129 89 424 84 752 91<297 444.5>
DStem2: 135 124 223 121 0.227884 0.973688<-48.0316 323.957> 440 192 518 178 0.21693 0.976187<-106.63 0 58.3048 301.425>
LayerCount: 2
Fore
SplineSet
122 450 m 1
 127 474 l 1xcf
 306 502 l 1
 311 497 l 1x97
 223 121 l 2
 209 63 228 40 254 40 c 0
 294 40 341 90 382 152 c 0
 440 240 469 361 502 487 c 1
 588 493 l 1xa7
 518 178 l 2
 498 86 506 40 551 40 c 0
 631 40 752 228 752 366 c 0
 752 408 750 446 740 481 c 1
 761 494 788 502 812 502 c 0
 820 502 843 465 843 424 c 0x8f
 842 365 797 256 731 160 c 0
 666 65 591 -12 508 -12 c 0
 448 -12 424 30 424 85 c 0
 424 113 433 156 440 192 c 1
 438 194 l 1
 378 74 289 -12 206 -12 c 0
 150 -12 113 29 135 124 c 2
 198 397 l 2
 206 432 205 443 183 445 c 2
 122 450 l 1
EndSplineSet
EndChar

StartChar: x
Encoding: 120 120 88
Width: 516
Flags: W
HStem: -12 77<64.4631 156.298> -12 52<366.5 453.702> 427 75<454.398 541.691> 428 24<127.75 148.1>
DStem2: 336 330 239 383 0.233267 -0.972413<-130.87 0 25.0771 75.2327 125.214 301.818> 247 190 243 123 0.544421 0.838812<-157.495 18.7604 166.976 311.333>
LayerCount: 2
Fore
SplineSet
31 39 m 0x80
 31 63 48 89 74 89 c 0
 91 89 104 79 114 74 c 0
 123 69 133 65 143 65 c 0
 167 65 204 117 247 190 c 2
 275 238 l 1
 239 383 l 2
 228 429 221 434 203 433 c 2
 128 428 l 1
 125 452 l 1x90
 290 502 l 1
 296 498 l 1
 336 330 l 1
 338 330 l 1
 382 398 l 2
 417 454 462 502 515 502 c 0
 543 502 566 490 566 459 c 0
 566 432 545 411 523 411 c 0
 511 411 501 415 491 419 c 0
 480 425 472 427 463 427 c 0
 434 427 383 347 347 283 c 1
 379 152 l 2
 401 63 409 40 428 40 c 0
 456 40 483 93 507 138 c 1
 533 124 l 1
 503 63 465 -12 392 -12 c 0x60
 341 -12 322 31 303 111 c 2
 285 189 l 1
 283 189 l 1
 243 123 l 2
 202 56 163 -12 95 -12 c 0
 55 -12 31 10 31 39 c 0x80
EndSplineSet
EndChar

StartChar: y
Encoding: 121 121 89
Width: 468
Flags: HMW
HStem: -242 60<46 132> 482 20G<239 239 512.5 525.5>
VStem: 210 77<-2 61> 444 96
LayerCount: 2
Fore
SplineSet
-5 -187 m 0
 -5 -158 20 -128 46 -127 c 0
 61 -127 69 -135 81 -151 c 0
 96 -171 107 -182 122 -182 c 0
 142 -182 168 -153 186 -111 c 0
 208 -58 210 -17 210 13 c 0
 210 93 188 285 177 363 c 0
 169 415 164 432 142 431 c 2
 74 429 l 1
 71 454 l 1
 239 502 l 1
 247 498 l 1
 261 425 280 214 287 61 c 1
 290 61 l 1
 356 175 415 283 431 339 c 0
 443 381 445 442 444 477 c 1
 469 494 503 502 522 502 c 0
 529 502 540 481 540 446 c 0
 540 406 477 309 420 215 c 0
 358 113 298 7 278 -27 c 0
 190 -179 153 -242 68 -242 c 0
 24 -242 -5 -214 -5 -187 c 0
EndSplineSet
EndChar

StartChar: z
Encoding: 122 122 90
Width: 468
Flags: MW
HStem: -12 78<363.5 401.5 363.5 411.5> 426 64<214.5 238 238 414> 476 14<185 518>
VStem: 39 70<11.5 12 12 26>
DStem2: 63 72 172 123 0.704091 0.710109<112.962 498.515>
LayerCount: 2
Fore
SplineSet
39 18 m 0
 39 34 47 56 63 72 c 0
 171 182 287 298 414 426 c 1
 238 426 l 2
 191 426 175 395 143 337 c 1
 118 348 l 1
 140 417 171 472 185 490 c 1xd0
 510 490 l 1xd0
 518 476 l 1xb0
 397 358 283 239 172 123 c 1
 198 120 233 107 266 95 c 0
 303 81 348 66 379 66 c 0
 424 66 448 126 473 188 c 1
 501 181 l 1
 474 76 444 -12 379 -12 c 0
 332 -12 285 7 232 28 c 0
 173 51 138 74 122 74 c 0
 114 74 109 67 109 56 c 2
 109 12 l 2
 109 -5 76 -12 62 -12 c 0
 45 -12 39 5 39 18 c 0
EndSplineSet
EndChar

StartChar: braceleft
Encoding: 123 123 91
Width: 340
Flags: HW
HStem: -128 25<229.5 277 258 277> 269 21G<138 138> 672 20G<441 458 458 458>
VStem: 135 63 214 68
LayerCount: 2
Fore
SplineSet
135 -39 m 0xf8
 134 1 152 46 180 107 c 0
 212 180 252 266 138 269 c 1
 146 295 l 1
 260 298 258 384 260 465 c 0
 266 588 292 692 441 692 c 2
 458 692 l 1
 451 667 l 1
 391 663 359 639 345 603 c 0
 333 568 332 525 331 495 c 0
 328 382 330 312 212 285 c 1
 212 279 l 1xe8
 315 258 287 180 235 69 c 0
 221 37 197 -12 198 -47 c 0
 200 -78 220 -99 277 -103 c 1
 269 -128 l 1
 258 -128 l 2
 201 -128 138 -108 135 -39 c 0xf8
EndSplineSet
EndChar

StartChar: bar
Encoding: 124 124 92
Width: 270
Flags: MW
HStem: -250 1000<165 233 165 233>
VStem: 165 68<-250 750 -250 750>
LayerCount: 2
Fore
SplineSet
165 -250 m 1
 165 750 l 1
 233 750 l 1
 233 -250 l 1
 165 -250 l 1
EndSplineSet
EndChar

StartChar: braceright
Encoding: 125 125 93
Width: 340
Flags: HW
HStem: 667 25<196 214>
VStem: 191 67 275 62
LayerCount: 2
Fore
SplineSet
15 -128 m 1
 22 -103 l 1
 82 -99 114 -75 128 -39 c 0
 141 -5 141 39 142 69 c 0
 145 182 143 252 261 279 c 1
 261 285 l 1xc0
 158 306 186 384 238 495 c 0
 253 527 276 576 275 611 c 0
 273 642 253 663 196 667 c 1
 204 692 l 1
 214 692 l 2
 271 692 334 672 337 603 c 0xe0
 338 563 319 518 292 457 c 0
 260 384 220 298 334 295 c 1
 326 269 l 1
 212 266 216 180 212 99 c 0
 206 -24 185 -128 31 -128 c 2
 15 -128 l 1
EndSplineSet
EndChar

StartChar: asciitilde
Encoding: 126 126 94
Width: 570
Flags: HW
HStem: 192 69<428 457 428 465.5> 238 69<233 265>
VStem: 133 424<201 293>
LayerCount: 2
Fore
SplineSet
133 201 m 1
 157 251 190 307 263 307 c 0x60
 293 307 325 296 356 284 c 0
 387 273 416 261 440 261 c 0
 474 261 488 275 517 318 c 1xe0
 557 293 l 1
 529 232 494 192 437 192 c 0xa0
 408 192 374 204 342 215 c 0
 310 227 278 238 252 238 c 0
 214 238 195 217 174 176 c 1
 133 201 l 1
EndSplineSet
EndChar

StartChar: exclamdown
Encoding: 161 161 95
Width: 240
Flags: HMW
HStem: 377 125<196.5 227>
VStem: 151 122<424.5 454>
LayerCount: 2
Fore
SplineSet
24 -149 m 2
 164 281 l 1
 192 281 l 1
 137 -154 l 2
 132 -190 119 -217 66 -217 c 0
 11 -217 11 -189 24 -149 c 2
151 433 m 0
 151 475 177 502 216 502 c 0
 252 502 273 477 273 445 c 0
 273 404 246 377 208 377 c 0
 172 377 151 403 151 433 c 0
EndSplineSet
EndChar

StartChar: cent
Encoding: 162 162 96
Width: 530
Flags: HMW
HStem: 87 42<334 375> 563 36<343.5 409 409 443> 649 20G<424 424>
VStem: 129 95
LayerCount: 2
Fore
SplineSet
129 275 m 0
 132 426 235 594 409 599 c 1
 424 669 l 1
 465 668 l 1
 451 599 l 1
 522 597 599 559 598 500 c 0
 598 468 563 454 542 455 c 0
 526 455 518 465 515 480 c 0
 503 533 470 562 443 563 c 1
 344 129 l 1
 406 129 459 151 514 220 c 1
 536 201 l 1
 486 124 410 88 334 87 c 1
 310 -21 l 1
 269 -21 l 1
 293 87 l 1
 229 89 127 131 129 275 c 0
224 277 m 0
 223 210 238 155 305 138 c 1
 401 563 l 1
 286 563 226 382 224 277 c 0
EndSplineSet
EndChar

StartChar: sterling
Encoding: 163 163 97
Width: 530
Flags: HW
HStem: 0 72<203 420 420 445 203 467> 291 38<131 238 131 244 122 238 337 337 337 472> 645 35<373 430>
VStem: 213 85 252 81
LayerCount: 2
Fore
SplineSet
44 5 m 1
 67 45 l 1
 139 70 221 105 244 175 c 0
 254 204 256 239 244 291 c 1xe8
 122 291 l 1
 131 329 l 1
 238 329 l 1
 223 373 212 426 213 477 c 0
 215 584 283 680 424 680 c 0
 533 680 585 620 584 582 c 0
 584 546 552 534 533 534 c 0
 516 534 511 547 508 559 c 0
 492 615 454 645 406 645 c 0
 340 645 301 591 298 519 c 0
 295 451 317 393 333 329 c 1xf0
 481 329 l 1
 472 291 l 1
 337 291 l 1
 338 273 337 254 333 232 c 0
 324 180 286 123 202 76 c 1
 203 72 l 1
 420 72 l 2
 470 72 487 103 505 125 c 1
 531 115 l 1
 467 0 l 1xe8
 47 0 l 1
 44 5 l 1
EndSplineSet
EndChar

StartChar: fraction
Encoding: 8260 8260 98
Width: 100
Flags: HW
HStem: 651 20G<404 404> 678 20G<370 370>
VStem: -166 570
LayerCount: 2
Fore
SplineSet
-166 6 m 1
 370 698 l 1x60
 404 671 l 1xa0
 -133 -24 l 1
 -166 6 l 1
EndSplineSet
EndChar

StartChar: yen
Encoding: 165 165 99
Width: 530
Flags: HMW
HStem: 0 31.5 187 36<117 259 107 267 352 506> 311 36<144 274 144 283 134 274 399 529> 638 30<653 653>
VStem: 107 573<187 668>
LayerCount: 2
Fore
SplineSet
107 187 m 1
 117 223 l 1
 267 223 l 1
 283 311 l 1
 134 311 l 1
 144 347 l 1
 274 347 l 1
 207 598 l 2
 202 617 195 636 177 637 c 2
 142 639 l 1
 149 668 l 1
 369 668 l 1
 363 639 l 1
 321 637 l 2
 298 636 293 627 297 609 c 2
 357 347 l 1
 359 347 l 1
 426 446 495 538 534 601 c 0
 548 624 549 634 532 635 c 2
 481 639 l 1
 487 668 l 1
 680 668 l 1
 674 639 l 1
 653 638 l 2
 626 637 605 622 580 588 c 2
 399 347 l 1
 538 347 l 1
 529 311 l 1
 373 311 l 1
 352 223 l 1
 515 223 l 1
 506 187 l 1
 344 187 l 1
 317 63 l 2
 313 44 322 36 342 34 c 2
 402 29 l 1
 396 0 l 1
 132 0 l 1
 138 29 l 1
 198 34 l 2
 214 35 227 44 231 63 c 2
 259 187 l 1
 107 187 l 1
EndSplineSet
EndChar

StartChar: florin
Encoding: 402 402 100
Width: 530
Flags: HMW
HStem: -135 35<147 156> 368 36<194 283 185 292 386 512> 656 35<483.5 502>
VStem: 39 584
LayerCount: 2
Fore
SplineSet
39 -77 m 0
 40 -53 63 -37 79 -37 c 0
 90 -37 98 -42 107 -58 c 0
 124 -90 140 -100 154 -100 c 0
 166 -100 177 -92 189 -40 c 2
 283 368 l 1
 185 368 l 1
 194 404 l 1
 292 404 l 1
 304 447 l 2
 319 504 342 570 372 613 c 0
 407 662 454 691 513 691 c 0
 590 691 623 653 623 624 c 0
 622 598 597 584 579 584 c 0
 567 584 560 589 553 603 c 0
 533 643 512 656 492 656 c 0
 464 656 441 624 413 511 c 2
 386 404 l 1
 521 404 l 1
 512 368 l 1
 375 368 l 1
 354 282 l 2
 306 91 284 17 256 -41 c 0
 226 -103 186 -135 126 -135 c 0
 77 -135 39 -105 39 -77 c 0
EndSplineSet
EndChar

StartChar: section
Encoding: 167 167 101
Width: 530
Flags: HMW
HStem: -115 35<251.5 290 251.5 300.5> 672 35<387 428.5>
VStem: 121 60 258 64 355 68 490 58
LayerCount: 2
Fore
SplineSet
90 -23 m 0
 90 12 121 25 138 25 c 0
 152 25 159 13 165 -1 c 0
 192 -65 235 -80 268 -80 c 0
 312 -80 354 -46 355 9 c 0
 356 46 352 101 243 173 c 0
 132 246 120 312 121 360 c 0
 123 447 182 522 256 572 c 1
 262 621 310 707 431 707 c 0
 525 707 568 660 568 626 c 0
 567 596 538 586 520 586 c 0
 508 586 501 595 494 611 c 0
 477 650 447 672 410 672 c 0
 364 672 323 636 322 587 c 0
 322 562 324 516 421 454 c 0
 511 396 549 341 548 259 c 0
 546 169 489 96 426 39 c 1
 417 -48 357 -115 244 -115 c 0
 146 -115 89 -65 90 -23 c 0
181 406 m 0
 180 356 203 302 284 245 c 0
 365 189 414 135 423 85 c 1
 456 110 489 147 490 207 c 0
 491 272 454 329 389 375 c 0
 317 425 266 472 258 526 c 1
 220 506 182 463 181 406 c 0
EndSplineSet
EndChar

StartChar: currency
Encoding: 164 164 102
Width: 530
Flags: HMW
HStem: 109 53<308.5 353.5> 506 53<308.5 353.5 308.5 374.5>
VStem: 109 72<309.5 358.5> 481 72<309.5 358.5 309.5 383>
LayerCount: 2
Fore
SplineSet
108 101 m 0
 83 121 85 142 116 166 c 2
 155 196 l 1
 119 242 109 285 109 334 c 0
 109 383 119 426 155 472 c 1
 116 502 l 2
 85 526 83 547 108 567 c 0
 132 587 151 580 170 552 c 2
 197 513 l 1
 234 548 286 559 331 559 c 0
 376 559 428 548 465 513 c 1
 492 552 l 2
 511 580 530 587 554 567 c 0
 579 547 577 526 546 502 c 2
 507 472 l 1
 543 426 553 383 553 334 c 0
 553 285 543 242 507 196 c 1
 546 166 l 2
 577 142 579 121 554 101 c 0
 530 81 511 88 492 116 c 2
 465 155 l 1
 428 120 376 109 331 109 c 0
 286 109 234 120 197 155 c 1
 170 116 l 2
 151 88 132 81 108 101 c 0
181 334 m 0
 181 236 244 162 331 162 c 0
 418 162 481 236 481 334 c 0
 481 432 418 506 331 506 c 0
 244 506 181 432 181 334 c 0
EndSplineSet
EndChar

StartChar: quotesingle
Encoding: 39 39 103
Width: 216
Flags: HMW
HStem: 722 20G<244 284>
VStem: 202 107
LayerCount: 2
Fore
SplineSet
196 469 m 1
 208 690 l 2
 211 725 225 742 263 742 c 0
 305 742 317 725 304 690 c 2
 224 469 l 1
 196 469 l 1
EndSplineSet
EndChar

StartChar: guilsinglleft
Encoding: 8249 8249 106
Width: 277
Flags: HW
HStem: 41 394<228 282>
VStem: 106 90 106 196
LayerCount: 2
Fore
SplineSet
109 223 m 2
 103 232 105 246 113 254 c 2xc0
 282 435 l 1xa0
 302 418 l 1
 200 255 l 2
 193 244 192 233 196 221 c 2
 251 56 l 1
 228 41 l 1
 109 223 l 2
EndSplineSet
EndChar

StartChar: guilsinglright
Encoding: 8250 8250 107
Width: 277
Flags: HW
HStem: 41 394<99 153>
VStem: 79 196 185 90
LayerCount: 2
Fore
SplineSet
79 58 m 1
 181 221 l 2
 188 232 189 243 185 255 c 2
 130 420 l 1
 153 435 l 1
 272 253 l 2
 278 244 276 230 268 222 c 2xa0
 99 41 l 1xc0
 79 58 l 1
EndSplineSet
EndChar

StartChar: fi
Encoding: 64257 64257 108
Width: 607
Flags: HW
HStem: -242 37<47.5 58 47.5 69> -12 52<434.5 523> 452 38<123 201 112 210 303 412 412 458> 477 20G<609 609> 707 35<410.5 470>
VStem: 403 90
LayerCount: 2
Fore
SplineSet
-72 -184 m 0
 -72 -159 -49 -134 -27 -134 c 0
 -14 -134 -7 -146 0 -156 c 0
 27 -197 42 -205 53 -205 c 0
 63 -205 73 -199 85 -137 c 2
 201 452 l 1xec
 112 452 l 1
 123 490 l 1
 210 490 l 1
 221 527 l 2
 255 642 311 742 461 742 c 0
 571 742 622 683 624 639 c 0
 625 606 594 589 569 589 c 0
 550 589 543 599 539 613 c 0
 523 673 492 707 448 707 c 0
 373 707 341 637 310 516 c 2
 303 490 l 1
 412 490 l 2xec
 504 490 565 498 605 502 c 1
 609 497 l 1xdc
 499 95 l 2
 490 63 489 40 509 40 c 0
 537 40 581 111 599 146 c 1
 623 132 l 1
 589 56 533 -12 462 -12 c 0
 407 -12 394 29 409 86 c 2
 495 406 l 2
 504 440 503 452 461 452 c 2
 296 452 l 1
 203 31 l 2
 161 -161 119 -242 19 -242 c 0
 -28 -242 -71 -217 -72 -184 c 0
EndSplineSet
EndChar

StartChar: fl
Encoding: 64258 64258 109
Width: 603
Flags: HW
HStem: -242 37<47.5 58 47.5 69> -12 52<443 529> 452 38<122 201 111 209 302 421> 674 20G<575 575> 707 35<411 477.5>
VStem: 413 89
LayerCount: 2
Fore
SplineSet
-72 -184 m 0
 -72 -159 -49 -134 -27 -134 c 0
 -14 -134 -7 -146 0 -156 c 0
 27 -197 42 -205 53 -205 c 0
 63 -205 73 -199 85 -137 c 2
 201 452 l 1
 111 452 l 1
 122 490 l 1
 209 490 l 1
 220 527 l 2
 253 637 316 742 459 742 c 0xec
 509 742 551 722 575 694 c 1
 649 742 l 1
 663 733 l 1
 507 94 l 2
 499 61 499 40 517 40 c 0
 541 40 586 101 609 146 c 1
 633 132 l 1
 601 57 540 -12 470 -12 c 0
 416 -12 404 29 418 86 c 2
 546 610 l 1
 537 662 507 707 448 707 c 0
 374 707 340 637 309 516 c 2
 302 490 l 1
 431 490 l 1
 421 452 l 1
 296 452 l 1
 203 31 l 2
 161 -161 119 -242 19 -242 c 0
 -28 -242 -71 -217 -72 -184 c 0
EndSplineSet
EndChar

StartChar: endash
Encoding: 8211 8211 110
Width: 500
Flags: HMW
HStem: 221 58<59 547 47 559>
VStem: 47 512<221 279>
LayerCount: 2
Fore
SplineSet
47 221 m 1
 59 279 l 1
 559 279 l 1
 547 221 l 1
 47 221 l 1
EndSplineSet
EndChar

StartChar: dagger
Encoding: 8224 8224 111
Width: 500
Flags: HW
HStem: 428 70<164 171.5 518.5 526>
VStem: 322 44 328 33 342 98<681 681>
LayerCount: 2
Fore
SplineSet
138 463 m 0
 144 492 156 498 172 498 c 0
 199 498 247 485 328 479 c 1xa0
 336 586 336 655 342 681 c 0
 346 702 358 717 398 717 c 0
 438 717 444 702 440 681 c 0
 434 655 406 586 368 479 c 1
 453 485 505 498 532 498 c 0x90
 548 498 558 492 552 463 c 0
 546 434 534 428 518 428 c 0
 491 428 444 441 362 447 c 1
 365 405 371 363 361 316 c 0
 354 279 297 112 236 -125 c 1xc0
 208 -125 l 1
 247 112 260 279 267 316 c 0
 277 363 301 405 322 447 c 1xc0
 238 441 185 428 158 428 c 0
 142 428 132 434 138 463 c 0
EndSplineSet
EndChar

StartChar: daggerdbl
Encoding: 8225 8225 112
Width: 490
Flags: HW
HStem: 113 66<101 108 441 448> 444 66<171 177 511 517> 473 20G
VStem: 74 470 256 106
LayerCount: 2
Fore
SplineSet
75 146 m 0
 81 173 93 179 109 179 c 0
 133 179 199 164 256 162 c 1
 266 266 261 291 268 327 c 0
 277 368 293 398 318 461 c 1
 261 459 189 444 165 444 c 0xc8
 149 444 139 450 145 477 c 0
 150 504 163 510 179 510 c 0xd0
 203 510 269 495 325 493 c 1
 333 582 331 652 338 682 c 0
 342 704 359 719 394 717 c 0xb0
 431 719 440 704 436 682 c 0
 429 652 399 582 369 493 c 1xb0
 427 495 499 510 523 510 c 0
 539 510 548 504 543 477 c 0
 537 450 525 444 509 444 c 0
 485 444 419 459 362 461 c 1
 361 398 365 368 356 327 c 0
 349 291 334 266 300 162 c 1
 357 164 429 179 453 179 c 0
 469 179 479 173 473 146 c 0
 468 119 456 113 440 113 c 0
 416 113 350 128 293 130 c 1
 282 22 282 -54 275 -84 c 0
 271 -106 255 -121 219 -119 c 0
 183 -121 173 -106 177 -84 c 0
 183 -54 215 22 249 130 c 1
 192 128 120 113 96 113 c 0
 80 113 70 119 75 146 c 0
EndSplineSet
EndChar

StartChar: paragraph
Encoding: 182 182 114
Width: 560
Flags: HMW
HStem: -101 30.5 661.5 30.5
VStem: 144 528<383 692>
LayerCount: 2
Fore
SplineSet
144 437 m 0
 144 574 261 692 415 692 c 2
 427 692 l 1
 335 250 l 1
 324 250 l 2
 218 250 144 329 144 437 c 0
237 -101 m 1
 242 -75 l 1
 318 -66 l 2
 339 -63 348 -55 354 -26 c 2
 504 692 l 1
 672 692 l 1
 667 666 l 1
 597 657 l 2
 577 654 568 649 562 620 c 2
 411 -101 l 1
 237 -101 l 1
EndSplineSet
EndChar

StartChar: bullet
Encoding: 8226 8226 115
Width: 500
Flags: HMW
HStem: 192 320<261.5 348>
VStem: 145 319<308 395.5>
LayerCount: 2
Fore
SplineSet
145 352 m 0
 145 439 218 512 305 512 c 0
 391 512 464 439 464 352 c 0
 464 264 391 192 305 192 c 0
 218 192 145 264 145 352 c 0
EndSplineSet
EndChar

StartChar: perthousand
Encoding: 8240 8240 121
Width: 1200
Flags: HW
HStem: -12 30<607 682 607 709 982 1057> 314 30<245 320 245 347> 324 30<649.5 721 1024.5 1096> 597 34<486 665 486 679 463 665> 650 30<287.5 359> 682 20G<775 775>
VStem: 133 77<414.5 448.5 408.5 490> 391 77<547 551.5 502 585.5> 495 77<88.5 122.5 82.5 164> 753 77<221 255 176 259.5> 870 77<88.5 122.5 82.5 164> 1128 77<221 255 176 259.5>
LayerCount: 2
Fore
SplineSet
870 121 m 0
 870 207 922 354 1070 354 c 0xa030
 1163 354 1205 293 1205 217 c 0
 1205 135 1159 -12 1009 -12 c 0
 906 -12 870 56 870 121 c 0
947 98 m 0
 947 67 954 18 1010 18 c 0
 1104 18 1128 198 1128 244 c 0
 1128 275 1123 324 1069 324 c 0xab70
 980 324 947 147 947 98 c 0
EndSplineSet
Refer: 5 37 S 1 0 0 1 0 0 2
EndChar

StartChar: questiondown
Encoding: 191 191 122
Width: 425
Flags: HW
HStem: -217 35<169.5 214.5 169.5 251> 246 45<207 290> 377 125<302.5 333>
VStem: 38 93<-127.5 -77.5 -129.5 -47.5> 257 122<424.5 454> 280 89<181.5 209.5>
LayerCount: 2
Fore
SplineSet
38 -90 m 0
 38 -5 89 30 166 69 c 0
 231 102 280 136 280 188 c 0
 280 231 249 246 216 246 c 0
 198 246 185 244 173 243 c 1
 167 260 l 1
 189 276 231 291 265 291 c 0
 315 291 369 267 369 205 c 0xf4
 369 158 334 122 265 82 c 0
 170 26 131 -46 131 -109 c 0
 131 -150 149 -182 190 -182 c 0
 239 -182 268 -134 290 -78 c 0
 294 -67 304 -59 321 -59 c 0
 337 -59 365 -74 365 -103 c 0
 365 -144 307 -217 195 -217 c 0xf8
 98 -217 38 -165 38 -90 c 0
257 433 m 0
 257 475 283 502 322 502 c 0
 358 502 379 477 379 445 c 0
 379 404 352 377 314 377 c 0
 278 377 257 403 257 433 c 0
EndSplineSet
EndChar

StartChar: grave
Encoding: 96 96 123
Width: 400
Flags: HMW
HStem: 542 181<212.5 388>
VStem: 181 222<562 690>
LayerCount: 2
Back
SplineSet
181 680 m 0
 181 700 205 723 220 723 c 0
 237 723 254 713 284 682 c 2
 403 562 l 1
 388 542 l 1
 237 626 l 2
 207 642 181 659 181 680 c 0
EndSplineSet
Fore
SplineSet
181 680 m 0
 181 700 205 723 220 723 c 0
 237 723 254 713 284 682 c 2
 403 562 l 1
 388 542 l 1
 237 626 l 2
 207 642 181 659 181 680 c 0
EndSplineSet
EndChar

StartChar: acute
Encoding: 180 180 124
Width: 400
Flags: HMW
HStem: 542 181<264 439.5>
VStem: 249 222<562 690>
LayerCount: 2
Back
SplineSet
249 562 m 1
 368 682 l 2
 398 713 415 723 432 723 c 0
 447 723 471 700 471 680 c 0
 471 659 445 642 415 626 c 2
 264 542 l 1
 249 562 l 1
EndSplineSet
Fore
SplineSet
249 562 m 1
 368 682 l 2
 398 713 415 723 432 723 c 0
 447 723 471 700 471 680 c 0
 471 659 445 642 415 626 c 2
 264 542 l 1
 249 562 l 1
EndSplineSet
EndChar

StartChar: circumflex
Encoding: 710 710 125
Width: 400
Flags: HMW
HStem: 546 174<236 405.5 394 496>
VStem: 222 297<567 567>
LayerCount: 2
Fore
SplineSet
222 567 m 1
 360 696 l 2
 375 709 388 720 400 720 c 0
 411 720 421 708 430 696 c 2
 519 567 l 1
 496 546 l 1
 411 621 l 2
 401 629 392 636 383 636 c 0
 376 636 363 629 351 621 c 2
 236 546 l 1
 222 567 l 1
EndSplineSet
EndChar

StartChar: tilde
Encoding: 732 732 126
Width: 400
Flags: W
HStem: 576 60<355.299 477.782> 614 60<224.816 352.035>
LayerCount: 2
Fore
SplineSet
172 576 m 1x80
 192 616 220 674 284 674 c 0x40
 308 674 336 665 363 655 c 0
 391 646 418 636 439 636 c 0
 467 636 479 647 507 682 c 1
 527 671 l 1
 498 614 472 576 423 576 c 0x80
 401 576 372 586 343 595 c 0
 314 605 285 614 263 614 c 0x40
 230 614 213 598 191 563 c 1
 172 576 l 1x80
EndSplineSet
EndChar

StartChar: macron
Encoding: 175 175 127
Width: 400
Flags: HMW
HStem: 597 59<246 506 228 524>
VStem: 228 296<597 656>
LayerCount: 2
Fore
SplineSet
228 597 m 1
 246 656 l 1
 524 656 l 1
 506 597 l 1
 228 597 l 1
EndSplineSet
EndChar

StartChar: breve
Encoding: 728 728 128
Width: 400
Flags: HMW
HStem: 568 62<341 426.5> 678 20G<273 297 297 297 510 536 536 536>
VStem: 262 274<615.5 698>
LayerCount: 2
Back
SplineSet
267 704 m 1
 291 704 l 1
 288 683 294 633 387 633 c 0
 480 633 510 683 517 704 c 1
 541 704 l 1
 526 641 497 568 372 568 c 0
 247 568 252 641 267 704 c 1
EndSplineSet
Fore
SplineSet
262 646 m 0
 262 661 266 682 273 698 c 1
 297 698 l 1
 295 678 297 630 385 630 c 0
 474 630 499 678 510 698 c 1
 536 698 l 1
 520 629 486 568 367 568 c 0
 310 568 262 585 262 646 c 0
EndSplineSet
EndChar

StartChar: dotaccent
Encoding: 729 729 129
Width: 402
Flags: W
HStem: 570 110<300.339 380.856>
VStem: 287 107<582.915 666.817>
LayerCount: 2
Fore
SplineSet
287 619 m 0
 287 655 313 680 346 680 c 0
 376 680 394 656 394 631 c 0
 394 597 371 570 336 570 c 0
 304 570 287 590 287 619 c 0
EndSplineSet
EndChar

StartChar: ring
Encoding: 730 730 131
Width: 400
Flags: HMW
HStem: 550 33<308 346.5 308 364.5> 719 33<315.5 351>
VStem: 221 57<618 647 618 653> 380 57<660.5 686.5>
LayerCount: 2
Fore
SplineSet
221 636 m 0
 221 670 239 752 342 752 c 0
 392 752 437 721 437 661 c 0
 437 613 412 550 317 550 c 0
 263 550 221 580 221 636 c 0
278 636 m 0
 278 600 297 583 319 583 c 0
 374 583 380 650 380 671 c 0
 380 702 362 719 340 719 c 0
 291 719 278 658 278 636 c 0
EndSplineSet
EndChar

StartChar: cedilla
Encoding: 184 184 132
Width: 400
Flags: HMW
HStem: -230 34
VStem: 97 179
LayerCount: 2
Fore
SplineSet
97 -220 m 1
 101 -196 l 1
 146 -202 199 -195 199 -147 c 0
 199 -120 179 -97 144 -95 c 1
 141 -86 l 1
 201 0 l 1
 246 0 l 1
 202 -60 l 1
 248 -66 284 -107 274 -157 c 0
 265 -203 216 -230 163 -230 c 0
 138 -230 112 -226 97 -220 c 1
EndSplineSet
EndChar

StartChar: hungarumlaut
Encoding: 733 733 133
Width: 400
Flags: HMW
HStem: 546 204<235 311.5 286.5 377>
VStem: 211 279<559 722.5>
LayerCount: 2
Back
SplineSet
211 559 m 1
 257 703 l 2
 266 730 275 750 298 750 c 0
 325 750 348 733 348 712 c 0
 348 696 336 675 317 650 c 2
 235 546 l 1
 211 559 l 1
353 559 m 1
 399 703 l 2
 408 730 417 750 440 750 c 0
 467 750 490 733 490 712 c 0
 490 696 478 675 459 650 c 2
 377 546 l 1
 353 559 l 1
EndSplineSet
Fore
SplineSet
211 559 m 1
 257 703 l 2
 266 730 275 750 298 750 c 0
 325 750 348 733 348 712 c 0
 348 696 336 675 317 650 c 2
 235 546 l 1
 211 559 l 1
353 559 m 1
 399 703 l 2
 408 730 417 750 440 750 c 0
 467 750 490 733 490 712 c 0
 490 696 478 675 459 650 c 2
 377 546 l 1
 353 559 l 1
EndSplineSet
EndChar

StartChar: ogonek
Encoding: 731 731 134
Width: 350
Flags: HMW
HStem: -219 42<149.5 235>
VStem: 103 66<-144 -113>
LayerCount: 2
Fore
SplineSet
103 -140 m 0
 103 -86 148 -30 207 0 c 1
 248 0 l 1
 200 -38 169 -78 169 -126 c 0
 169 -162 196 -177 225 -177 c 0
 245 -177 257 -174 276 -166 c 1
 283 -182 l 1
 253 -211 219 -219 190 -219 c 0
 109 -219 103 -164 103 -140 c 0
EndSplineSet
EndChar

StartChar: caron
Encoding: 711 711 135
Width: 400
Flags: MW
HStem: 557 174<271 373>
VStem: 248 297<710 710>
LayerCount: 2
Fore
SplineSet
248 710 m 1
 271 731 l 1
 356 656 l 2
 366 648 375 641 384 641 c 0
 391 641 404 648 416 656 c 2
 531 731 l 1
 545 710 l 1
 407 581 l 2
 392 568 379 557 367 557 c 0
 356 557 346 569 337 581 c 2
 248 710 l 1
EndSplineSet
EndChar

StartChar: emdash
Encoding: 8212 8212 136
Width: 1000
Flags: HMW
HStem: 221 58<59 1047 47 1059>
VStem: 47 1012<221 279>
LayerCount: 2
Fore
SplineSet
47 221 m 1
 59 279 l 1
 1059 279 l 1
 1047 221 l 1
 47 221 l 1
EndSplineSet
EndChar

StartChar: AE
Encoding: 198 198 137
Width: 880
Flags: HW
HStem: 0 32<-11 -11 -11 185> 0 35<384 384 621.5 707.5> 341 38<343 483 316 492 588 711> 654 38<550 555 550 550> 657 35<464 464 664.5 673 673 794>
VStem: 912 26
LayerCount: 2
Fore
SplineSet
-53 0 m 1x6c
 -45 29 l 1
 -11 32 l 2
 17 35 32 48 54 76 c 0xac
 155 199 331 435 452 599 c 0
 484 642 482 656 464 657 c 2
 397 663 l 1
 406 692 l 1
 976 692 l 1
 938 525 l 1
 908 525 l 1
 917 615 920 657 794 657 c 2
 673 657 l 2
 656 657 650 652 645 628 c 2
 588 379 l 1
 719 379 l 2
 807 379 818 395 844 464 c 1
 874 464 l 1
 828 255 l 1
 798 255 l 1
 802 320 799 341 711 341 c 2
 580 341 l 1
 529 122 l 2
 518 75 519 60 534 48 c 0
 547 38 597 35 646 35 c 0
 769 35 814 53 865 176 c 1
 895 176 l 1
 844 0 l 1
 322 0 l 1x6c
 328 29 l 1
 384 35 l 2
 408 37 417 49 425 83 c 2
 483 341 l 1
 316 341 l 1
 248 250 183 159 127 71 c 0
 113 50 116 36 134 34 c 2
 193 29 l 1xac
 185 0 l 1
 -53 0 l 1x6c
343 379 m 1x6c
 492 379 l 1
 555 654 l 1
 550 654 l 1x74
 343 379 l 1x6c
EndSplineSet
EndChar

StartChar: ordfeminine
Encoding: 170 170 138
Width: 425
Flags: HMW
HStem: 265 42<210.5 218> 562 28<305.5 359 269 365>
VStem: 112 79<330 377 330 382.5> 332 71
LayerCount: 2
Fore
SplineSet
112 341 m 0
 112 424 191 590 347 590 c 0
 371 590 387 586 402 577 c 1
 405 585 l 1
 478 585 l 1
 408 344 l 2
 401 320 400 307 412 307 c 0
 432 307 461 349 475 371 c 1
 495 359 l 1
 468 306 423 265 371 265 c 0
 339 265 324 289 336 330 c 2
 356 398 l 1
 353 398 l 1
 317 343 257 265 179 265 c 0
 130 265 112 301 112 341 c 0
191 342 m 0
 191 318 200 307 221 307 c 0
 252 307 294 349 325 396 c 0
 359 446 384 507 397 549 c 1
 391 557 375 562 355 562 c 0
 256 562 191 412 191 342 c 0
EndSplineSet
EndChar

StartChar: Lslash
Encoding: 321 321 139
Width: 571
Flags: HW
HStem: 0 32 0 35<107 107 345.5 426.5> 476 20G<463 463> 661 31
VStem: 46 563<0 176>
LayerCount: 2
Fore
SplineSet
46 0 m 1x78
 52 29 l 1
 107 35 l 2
 131 37 141 48 149 83 c 2xb8
 196 291 l 1
 88 222 l 1
 103 275 l 1
 208 342 l 1
 269 609 l 2
 277 642 270 656 247 658 c 2
 188 663 l 1
 195 692 l 1
 474 692 l 1
 467 663 l 1
 407 659 l 2
 382 657 372 642 364 609 c 2
 317 403 l 1
 463 496 l 1
 453 445 l 1x78
 305 351 l 1
 253 122 l 2
 242 75 243 60 258 48 c 0
 271 38 321 35 370 35 c 0
 483 35 528 53 579 176 c 1
 609 176 l 1
 558 0 l 1
 46 0 l 1x78
EndSplineSet
EndChar

StartChar: Oslash
Encoding: 216 216 140
Width: 753
Flags: HMW
HStem: -15 35<369.5 463 369.5 495.5> 672 35<451 532>
VStem: 114 105<226.5 272 208 303> 684 105<437.5 466 394.5 489.5>
LayerCount: 2
Fore
SplineSet
114 270 m 0
 114 336 128 430 183 523 c 0
 241 619 340 707 500 707 c 0
 565 707 625 693 672 663 c 1
 730 736 l 1
 762 710 l 1
 705 638 l 1
 757 592 789 518 789 414 c 0
 789 375 780 273 726 175 c 0
 671 76 584 -15 407 -15 c 0
 332 -15 272 2 227 33 c 1
 165 -45 l 1
 135 -17 l 1
 194 58 l 1
 141 108 114 183 114 270 c 0
219 230 m 0
 219 186 226 148 241 117 c 1
 637 619 l 1
 606 655 560 672 504 672 c 0
 398 672 327 599 281 504 c 0
 235 407 219 314 219 230 c 0
263 79 m 1
 294 40 341 20 398 20 c 0
 528 20 596 113 637 220 c 0
 678 326 684 409 684 466 c 0
 684 513 676 552 661 582 c 1
 263 79 l 1
EndSplineSet
EndChar

StartChar: OE
Encoding: 338 338 141
Width: 1020
Flags: HMW
HStem: 0 35<395.5 472 472 493.5 761.5 847.5> 341 38<728 851 720 859> 657 35<580 633 804.5 813 813 934>
VStem: 114 108<192.5 308> 1052 26
LayerCount: 2
Fore
SplineSet
114 293 m 0
 114 323 119 410 178 503 c 0
 248 614 357 689 580 692 c 2
 1116 692 l 1
 1078 525 l 1
 1048 525 l 1
 1057 615 1060 657 934 657 c 2
 813 657 l 2
 796 657 790 652 785 628 c 2
 728 379 l 1
 859 379 l 2
 947 379 958 395 984 464 c 1
 1014 464 l 1
 968 255 l 1
 938 255 l 1
 942 320 939 341 851 341 c 2
 720 341 l 1
 669 122 l 2
 658 75 659 60 674 48 c 0
 687 38 737 35 786 35 c 0
 909 35 954 53 1005 176 c 1
 1035 176 l 1
 984 0 l 1
 472 0 l 2
 234 0 114 92 114 293 c 0
222 274 m 0
 222 99 330 35 461 35 c 0
 526 35 555 41 569 103 c 2
 681 595 l 2
 693 646 683 657 583 657 c 0
 329 657 222 454 222 274 c 0
EndSplineSet
EndChar

StartChar: ordmasculine
Encoding: 186 186 142
Width: 389
Flags: HMW
HStem: 265 28<238 276.5 238 293.5> 562 28<282.5 345>
VStem: 121 78<348.5 391.5 337.5 398.5> 377 78<478.5 510.5>
LayerCount: 2
Fore
SplineSet
121 383 m 0
 121 414 131 465 161 508 c 0
 192 554 243 590 318 590 c 0
 382 590 455 565 455 467 c 0
 455 442 445 391 416 347 c 0
 384 301 333 265 254 265 c 0
 166 265 121 314 121 383 c 0
199 359 m 0
 199 316 221 293 255 293 c 0
 298 293 327 329 348 375 c 0
 368 420 377 463 377 494 c 0
 377 527 368 562 322 562 c 0
 243 562 199 424 199 359 c 0
EndSplineSet
EndChar

StartChar: ae
Encoding: 230 230 143
Width: 779
Flags: HW
HStem: -12 49<561.5 590.5> -12 52<194 216> 455 35<417 430> 467 35<677.5 698.5>
VStem: 69 99<90 165 90 167> 408 98<137 158> 738 94<388.5 425>
LayerCount: 2
Fore
SplineSet
69 107 m 0
 69 227 178 490 421 490 c 0
 446 490 476 483 499 473 c 1
 534 514 l 1
 571 514 l 1
 546 440 l 1
 548 438 l 1
 598 483 650 502 705 502 c 0
 790 502 832 455 832 402 c 0x9e
 832 375 825 347 788 310 c 0
 751 275 669 227 507 192 c 1
 507 187 506 181 506 176 c 0
 506 98 527 37 596 37 c 0
 671 37 725 104 760 152 c 1
 783 131 l 1
 715 20 627 -12 554 -12 c 0
 494 -12 408 12 408 152 c 0
 408 164 410 175 412 195 c 1
 410 195 l 1
 359 108 268 -12 164 -12 c 0
 97 -12 69 47 69 107 c 0
168 110 m 0
 168 70 179 40 209 40 c 0x6e
 258 40 326 113 380 200 c 0
 426 274 464 371 481 436 c 1xae
 467 447 443 455 417 455 c 0
 266 454 168 220 168 110 c 0
509 226 m 1
 677 262 738 338 738 407 c 0
 738 443 717 467 680 467 c 0
 600 467 526 347 509 226 c 1
EndSplineSet
EndChar

StartChar: dotlessi
Encoding: 305 305 144
Width: 317
Flags: W
HStem: -12 52<145 240.283> 450 24<132 177.5> 482 20G<184 319>
DStem2: 120 86 210 95 0.261695 0.965151<-18.7826 364.391>
LayerCount: 2
Fore
SplineSet
120 86 m 2
 204 399 l 2
 213 434 210 443 183 445 c 2
 126 450 l 1
 132 474 l 1
 314 502 l 1
 319 497 l 1
 210 95 l 2
 201 63 200 40 220 40 c 0
 248 40 292 111 310 146 c 1
 334 132 l 1
 300 56 244 -12 172 -12 c 0
 118 -12 105 29 120 86 c 2
EndSplineSet
EndChar

StartChar: lslash
Encoding: 322 322 145
Width: 318
Flags: HMW
HStem: -12 52<147 233> 675 20G<182 182> 722 20G<367 367>
VStem: 117 89
LayerCount: 2
Fore
SplineSet
80 277 m 1
 99 330 l 1
 196 389 l 1
 259 639 l 2
 269 678 264 685 239 688 c 2
 182 695 l 1
 188 718 l 1
 367 742 l 1
 372 737 l 1
 299 443 l 1
 411 511 l 1
 396 458 l 1
 286 392 l 1
 211 94 l 2
 203 61 203 40 221 40 c 0
 245 40 290 101 313 146 c 1
 337 132 l 1
 305 57 244 -12 174 -12 c 0
 120 -12 108 29 122 86 c 2
 184 340 l 1
 80 277 l 1
EndSplineSet
EndChar

StartChar: oslash
Encoding: 248 248 146
Width: 537
Flags: HMW
HStem: -12 35<253 322.5> 467 35<308.5 393.5>
VStem: 84 92<143 183 124 212> 465 92<326.5 357.5 300 368>
LayerCount: 2
Fore
SplineSet
84 169 m 0
 84 255 141 502 378 502 c 0
 411 502 447 496 477 479 c 1
 517 529 l 1
 546 504 l 1
 508 456 l 1
 538 429 557 388 557 327 c 0
 557 273 540 188 494 116 c 0
 447 42 377 -12 268 -12 c 0
 223 -12 186 -2 159 16 c 1
 115 -39 l 1
 88 -12 l 1
 129 39 l 1
 99 71 84 117 84 169 c 0
176 129 m 0
 176 119 178 110 179 102 c 1
 445 438 l 1
 431 457 410 467 377 467 c 0
 240 467 176 237 176 129 c 0
194 60 m 1
 209 35 235 23 271 23 c 0
 413 23 465 291 465 362 c 0
 465 374 463 386 461 396 c 1
 194 60 l 1
EndSplineSet
EndChar

StartChar: oe
Encoding: 339 339 147
Width: 806
Flags: HW
HStem: -12 35<242 304> -12 49<588 618.5> 467 35<311 404.5 259.5 407.5 697 724.5>
VStem: 84 97<115.5 183 93.5 212> 765 94<388 425.5>
LayerCount: 2
Fore
SplineSet
84 169 m 0
 84 255 141 502 378 502 c 0
 431 502 507 478 534 397 c 1
 589 461 659 502 735 502 c 0
 817 502 859 455 859 402 c 0
 859 374 852 341 817 306 c 0
 774 266 701 226 533 192 c 1
 532 185 532 181 532 176 c 0
 532 97 553 37 623 37 c 0x78
 698 37 752 104 788 151 c 1
 811 131 l 1
 743 20 655 -12 582 -12 c 0
 544 -12 479 3 455 79 c 1
 408 25 342 -12 266 -12 c 0xb8
 142 -12 84 62 84 169 c 0
181 129 m 0
 181 58 213 23 271 23 c 0
 408 23 460 291 460 362 c 0
 460 424 438 467 377 467 c 0xb8
 245 467 181 237 181 129 c 0
535 226 m 1
 704 262 765 338 765 408 c 0
 765 443 742 467 707 467 c 0
 627 467 552 347 535 226 c 1
EndSplineSet
EndChar

StartChar: germandbls
Encoding: 223 223 148
Width: 577
Flags: HW
HStem: -242 37<48 59 48 69> -12 37<435.5 461.5 435.5 469> 452 38<123 200 112 210> 470 20G<123 210 210 210> 707 35<493 509>
VStem: 379 76<366 392> 505 73<96.5 113.5> 581 84<592.5 645.5>
LayerCount: 2
Fore
SplineSet
-72 -184 m 0
 -72 -159 -49 -134 -27 -134 c 0
 -14 -134 -7 -146 0 -156 c 0
 27 -197 42 -205 54 -205 c 0
 64 -205 73 -197 77 -175 c 2
 200 452 l 1xed
 112 452 l 1
 123 490 l 1
 210 490 l 1
 217 512 l 2
 245 607 316 744 493 742 c 0
 604 742 665 686 665 606 c 0xed
 665 570 655 528 592 471 c 1
 480 473 455 422 455 387 c 0
 455 345 496 300 521 269 c 0
 547 236 578 192 578 137 c 0
 578 56 520 -12 418 -12 c 0
 359 -12 304 17 303 46 c 0
 301 72 325 91 344 91 c 0
 355 91 363 86 371 74 c 0
 399 32 424 25 447 25 c 0
 476 25 505 48 505 93 c 0xde
 505 134 479 174 439 222 c 0
 407 260 379 305 379 350 c 0
 379 434 444 487 523 491 c 1
 567 528 581 574 581 611 c 0
 581 680 528 707 490 707 c 0
 380 707 328 585 285 395 c 2
 203 31 l 2
 160 -161 119 -242 19 -242 c 0
 -28 -242 -71 -217 -72 -184 c 0
EndSplineSet
EndChar

StartChar: onesuperior
Encoding: 185 185 149
Width: 370
Flags: HW
HStem: 272 25 656 20G<361 361> 660 20G<358 358>
VStem: 125 236
LayerCount: 2
Back
SplineSet
125 272 m 1
 129 294 l 1
 186 299 l 2
 199 300 208 306 212 325 c 2
 272 608 l 2
 275 623 273 630 262 632 c 2
 203 640 l 1
 207 659 l 1
 355 680 l 1
 361 676 l 1xd0
 286 325 l 2
 282 306 289 300 303 299 c 2
 355 294 l 1
 351 272 l 1xb0
 125 272 l 1
EndSplineSet
Fore
SplineSet
125 272 m 1
 130 295 l 1
 181 299 l 2
 199 300 209 306 212 322 c 2
 274 611 l 2
 277 623 275 629 260 631 c 2
 205 640 l 1
 208 659 l 1
 358 680 l 1
 361 676 l 1xd0
 285 322 l 2
 282 306 288 300 307 299 c 2
 355 295 l 1
 350 272 l 1xb0
 125 272 l 1
EndSplineSet
EndChar

StartChar: minus
Encoding: 8722 8722 150
Width: 570
Flags: MW
HStem: 221 58<93 577 93 577>
VStem: 93 484<221 279 221 279>
LayerCount: 2
Fore
SplineSet
93 221 m 1
 93 279 l 1
 577 279 l 1
 577 221 l 1
 93 221 l 1
EndSplineSet
EndChar

StartChar: degree
Encoding: 176 176 151
Width: 400
Flags: HMW
HStem: 404 48<303 346.5 303 362.5> 632 48<302.5 346>
VStem: 187 56<516 542 516 542> 407 56<516 567.5>
LayerCount: 2
Fore
SplineSet
187 542 m 0
 186 617 249 680 325 680 c 0
 400 680 463 617 463 542 c 0
 463 466 400 404 325 404 c 0
 249 404 187 466 187 542 c 0
243 542 m 0
 243 490 281 452 325 452 c 0
 368 452 407 490 407 542 c 0
 407 593 368 632 324 632 c 0
 281 632 242 593 243 542 c 0
EndSplineSet
EndChar

StartChar: onequarter
Encoding: 188 188 157
Width: 890
Flags: HW
HStem: 0 24.5 104 33<576 695 772 830> 272 25 329 72<739 828 739 828> 651 20G<802 802> 678 20G<768 768>
VStem: 132 708<137 272>
LayerCount: 2
Fore
SplineSet
515 120 m 1
 596 220 683 317 766 401 c 1
 828 401 l 1
 772 137 l 1
 840 137 l 1
 830 104 l 1
 765 104 l 1
 754 50 l 2
 751 34 757 27 771 26 c 2
 804 23 l 1
 799 0 l 1
 606 0 l 1
 611 23 l 1
 657 26 l 2
 670 27 681 34 684 50 c 2
 695 104 l 1
 524 104 l 1
 515 120 l 1
576 137 m 1
 702 137 l 1
 745 329 l 1
 739 329 l 1
 683 273 629 207 576 137 c 1
EndSplineSet
Refer: 98 8260 S 1 0 0 1 398 0 2
Refer: 149 185 S 1 0 0 1 7 0 2
EndChar

StartChar: logicalnot
Encoding: 172 172 158
Width: 570
Flags: HMW
HStem: 331 58<93 509 93 577>
VStem: 509 68<102 331 331 331>
LayerCount: 2
Fore
SplineSet
93 331 m 1
 93 389 l 1
 577 389 l 1
 577 102 l 1
 509 102 l 1
 509 331 l 1
 93 331 l 1
EndSplineSet
EndChar

StartChar: brokenbar
Encoding: 166 166 167
Width: 270
Flags: HMW
HStem: 655 20G<165 233 233 233>
VStem: 165 68<-175 175 -175 175 325 675>
LayerCount: 2
Fore
SplineSet
165 -175 m 1
 165 175 l 1
 233 175 l 1
 233 -175 l 1
 165 -175 l 1
165 325 m 1
 165 675 l 1
 233 675 l 1
 233 325 l 1
 165 325 l 1
EndSplineSet
EndChar

StartChar: thorn
Encoding: 254 254 168
Width: 584
Flags: HW
HStem: -242 21G<51 51> -12 35<277 375 273.5 425.5> 450 52<465.5 480> 645.5 26.5 652 20G<160 160> 675 20G<346 346> 680 20G<341 341>
VStem: 516 99<330 393.5>
LayerCount: 2
Fore
SplineSet
51 -242 m 1
 234 595 l 2
 241 626 240 641 216 643 c 2
 154 648 l 1xf3
 160 672 l 1xeb
 341 700 l 1
 346 695 l 1xe5
 249 286 l 1
 252 286 l 1
 328 429 427 502 504 502 c 0
 578 502 615 455 615 368 c 0
 615 292 548 -12 303 -12 c 0
 251 -12 216 -3 195 10 c 1
 140 -230 l 1
 51 -242 l 1
205 53 m 1
 227 34 254 23 293 23 c 0xe3
 457 23 516 288 516 367 c 0
 516 420 498 450 462 450 c 0
 405 450 332 370 284 286 c 0
 246 219 218 117 205 53 c 1
EndSplineSet
EndChar

StartChar: Aring
Encoding: 197 197 169
Width: 624
Flags: HW
HStem: 0 31.5 267 38<263 462 263 467 243 462> 665 27<456 509> 672 20G<456 494.5> 828 33<463.5 499>
VStem: 369 57<729 756 727 762> 528 57<769.5 795.5>
LayerCount: 2
Back
SplineSet
369 745 m 0
 369 779 387 861 490 861 c 0
 540 861 585 830 585 770 c 0
 585 722 560 659 465 659 c 0
 411 659 369 689 369 745 c 0
426 745 m 0
 426 709 445 692 467 692 c 0
 522 692 528 759 528 780 c 0
 528 811 510 828 488 828 c 0
 439 828 426 767 426 745 c 0
EndSplineSet
Fore
SplineSet
-23 0 m 1
 -17 29 l 1
 16 33 l 2
 47 36 64 47 96 99 c 0
 133 159 216 308 267 397 c 2
 423 666 l 1
 384 681 369 713 369 745 c 0
 369 779 387 861 491 861 c 0
 540 861 585 830 585 770 c 0
 585 706 547 674 509 665 c 1xee
 580 90 l 2
 585 49 589 35 620 32 c 2
 658 29 l 1
 652 0 l 1
 406 0 l 1
 412 29 l 1
 465 34 l 2
 485 36 493 44 490 73 c 2
 467 267 l 1
 243 267 l 1
 206 200 173 135 140 71 c 0
 131 50 133 36 153 34 c 2
 208 29 l 1
 202 0 l 1
 -23 0 l 1
263 305 m 1
 462 305 l 1xde
 427 599 l 1
 425 599 l 1
 371 502 315 404 263 305 c 1
426 745 m 0
 426 709 445 692 467 692 c 0
 522 692 528 759 528 780 c 0
 528 811 510 828 488 828 c 0
 439 828 426 767 426 745 c 0
EndSplineSet
EndChar

StartChar: trademark
Encoding: 8482 8482 172
Width: 1100
Flags: HW
HStem: 277 23<209 425 209 209> 637 55<635 639 635 635 993 997 993 993> 665 27<209.5 246 246 278 356 390 356 356> 669 23<546 546 1129 1129>
VStem: 126 21<591 692> 278 78<339 665> 486 21<591 692> 602 33<405 630 630 637> 997 76<339 630>
LayerCount: 2
Fore
SplineSet
126 591 m 1
 126 692 l 1
 507 692 l 1
 507 591 l 1
 486 591 l 1
 475 654 460 665 390 665 c 2
 356 665 l 1xaf80
 356 339 l 2
 356 308 359 304 425 300 c 1
 425 277 l 1
 209 277 l 1
 209 300 l 1
 274 304 278 308 278 339 c 2
 278 665 l 1
 246 665 l 2
 173 665 158 654 147 591 c 1
 126 591 l 1
542 277 m 1
 542 300 l 1
 578 303 596 307 599 331 c 0
 601 351 602 373 602 405 c 2
 602 630 l 2
 602 661 599 664 546 669 c 1x9f80
 546 692 l 1
 698 692 l 1
 720 639 746 586 771 532 c 2
 838 390 l 1
 840 390 l 1
 907 533 l 2
 932 586 958 639 980 692 c 1
 1129 692 l 1xaf80
 1129 669 l 1
 1076 664 1073 661 1073 630 c 2x9f80
 1073 339 l 2
 1073 308 1076 304 1129 300 c 1
 1129 277 l 1
 941 277 l 1
 941 300 l 1
 994 304 997 308 997 339 c 2
 997 637 l 1
 993 637 l 1
 826 288 l 1
 805 288 l 1
 639 637 l 1
 635 637 l 1xcf80
 635 405 l 2
 635 373 637 351 639 331 c 0
 642 307 659 304 709 300 c 1
 709 277 l 1
 542 277 l 1
EndSplineSet
EndChar

StartChar: registered
Encoding: 174 174 173
Width: 836
Flags: HW
HStem: -15 45<406 574 406 590.5> 159 15<634 678> 159 22 334 28<441 475 441 479> 512 28<465.5 505> 662 45<406 574>
VStem: 126 64<257.5 434.5 257.5 446> 376 65<211 334 362 486 486 491> 565 70<418.5 468.5> 790 64<257.5 434.5>
LayerCount: 2
Fore
SplineSet
126 346 m 0
 126 546 289 707 490 707 c 0
 691 707 854 546 854 346 c 0
 854 146 691 -15 490 -15 c 0
 289 -15 126 146 126 346 c 0
190 346 m 0
 190 169 322 30 490 30 c 0
 658 30 790 169 790 346 c 0
 790 523 658 662 490 662 c 0
 322 662 190 523 190 346 c 0
325 159 m 1
 325 179 l 1
 356 183 l 2
 373 185 376 194 376 211 c 2xbfc0
 376 486 l 2
 376 505 373 513 356 516 c 2
 325 520 l 1
 325 540 l 1
 505 540 l 2
 602 540 635 500 635 446 c 0
 635 391 594 360 538 351 c 1
 538 349 l 1
 598 334 608 297 616 253 c 0
 621 224 630 206 643 191 c 0
 651 183 664 178 678 174 c 1
 678 159 l 1
 634 159 l 2
 591 159 571 174 561 202 c 0xdfc0
 547 242 544 285 535 304 c 0
 525 325 506 334 475 334 c 2
 441 334 l 1
 441 211 l 2
 441 194 445 185 463 183 c 2
 493 179 l 1
 493 159 l 1xbfc0
 325 159 l 1
441 362 m 1
 479 362 l 2
 530 362 565 383 565 438 c 0
 565 499 524 512 486 512 c 0
 445 512 441 506 441 491 c 2
 441 362 l 1
EndSplineSet
EndChar

StartChar: eth
Encoding: 240 240 184
Width: 537
Flags: HW
HStem: -12 35<241 338.5 241 372.5> 467 35<309.5 390 263.5 406.5> 475 20G<419 419> 655 20G<538 538> 687 20G<515 515> 722 20G<277 277>
VStem: 82 97<115.5 181 91.5 211> 459 97<329 369 271.5 400>
LayerCount: 2
Fore
SplineSet
82 169 m 0
 82 253 143 502 384 502 c 0xdf
 396 502 406 499 419 495 c 1
 419 498 l 1
 410 520 388 555 356 594 c 1
 222 534 l 1
 199 566 l 1xbf
 331 625 l 1
 304 657 273 690 239 719 c 1
 239 725 l 1
 277 742 l 1
 312 718 351 685 387 650 c 1
 515 707 l 1
 538 675 l 1
 416 621 l 1
 444 592 470 562 486 537 c 0
 531 470 556 413 556 325 c 0
 556 218 487 -12 258 -12 c 0
 140 -12 82 62 82 169 c 0
179 125 m 0
 179 58 212 23 270 23 c 0
 407 23 459 291 459 367 c 0
 459 433 436 467 377 467 c 0xdf
 242 467 179 237 179 125 c 0
EndSplineSet
EndChar

StartChar: ccedilla
Encoding: 231 231 188
Width: 441
Flags: HMW
HStem: -230 34 -12 49<220 301.5> 467 35<301 363>
VStem: 81 99<132.5 230>
LayerCount: 2
Fore
SplineSet
81 148 m 0
 81 312 193 502 371 502 c 0
 446 502 500 464 500 413 c 0
 500 380 460 357 436 357 c 0
 418 357 409 369 407 387 c 0
 401 447 379 467 347 467 c 0
 255 467 180 298 180 168 c 0
 180 97 195 37 268 37 c 0
 335 37 394 108 428 154 c 1
 452 135 l 1
 396 41 329 3 267 -8 c 1
 229 -60 l 1
 275 -66 311 -107 301 -157 c 0
 292 -203 243 -230 190 -230 c 0
 165 -230 139 -226 124 -220 c 1
 128 -196 l 1
 173 -202 226 -195 226 -147 c 0
 226 -120 206 -97 171 -95 c 1
 168 -86 l 1
 220 -12 l 1
 151 -11 81 28 81 148 c 0
EndSplineSet
EndChar

StartChar: multiply
Encoding: 215 215 189
Width: 570
Flags: HMW
HStem: 22 456<164 164 164 525>
VStem: 123 444<66 66 66 432>
LayerCount: 2
Fore
SplineSet
123 66 m 1
 302 250 l 1
 123 432 l 1
 164 478 l 1
 345 294 l 1
 525 478 l 1
 567 432 l 1
 388 250 l 1
 567 66 l 1
 525 22 l 1
 345 206 l 1
 164 22 l 1
 123 66 l 1
EndSplineSet
EndChar

StartChar: divide
Encoding: 247 247 190
Width: 570
Flags: W
HStem: 26 118<288.422 379.152> 221 58<93 577 93 577> 356 118<288.422 379.152>
VStem: 93 484<221 279 221 279> 275 117<39.4224 130.422 369.422 460.422>
CounterMasks: 1 e0
LayerCount: 2
Back
SplineSet
275 85 m 0
 275 117 301 144 335 144 c 0
 367 144 392 117 393 87 c 1
 392 85 l 1
 392 52 367 25 335 25 c 0
 301 25 275 52 275 85 c 0
275 416 m 0
 275 448 301 475 335 475 c 0
 367 475 392 448 393 418 c 1
 392 416 l 1
 392 383 367 356 335 356 c 0
 301 356 275 383 275 416 c 0
EndSplineSet
Refer: 150 8722 N 1 0 0 1 0 0 2
Fore
SplineSet
275 86 m 0xe8
 275 117 301 144 335 144 c 0
 367 144 392 117 392 86 c 0
 392 52 367 26 335 26 c 0
 301 26 275 52 275 86 c 0xe8
275 416 m 0
 275 447 301 474 335 474 c 0
 367 474 392 447 392 416 c 0
 392 382 367 356 335 356 c 0
 301 356 275 382 275 416 c 0
EndSplineSet
Refer: 150 8722 N 1 0 0 1 0 0 2
EndChar

StartChar: twosuperior
Encoding: 178 178 191
Width: 370
Flags: HMW
HStem: 272 59<156 311 311 327 156 357> 652 28<281.5 319.5>
VStem: 351 83<556 602>
LayerCount: 2
Back
SplineSet
70 282 m 1
 87 330 136 384 238 445 c 0
 315 491 339 543 347 582 c 0
 356 622 344 652 307 652 c 0
 276 652 245 630 221 572 c 0
 215 556 206 548 189 548 c 0
 168 548 148 563 152 584 c 0
 162 629 222 680 316 680 c 0
 401 680 446 644 430 571 c 0
 417 508 365 472 266 423 c 0
 199 390 169 355 155 331 c 1
 317 331 l 2
 349 331 363 341 381 366 c 1
 403 361 l 1
 357 272 l 1
 77 272 l 1
 70 282 l 1
EndSplineSet
Fore
SplineSet
70 281 m 1
 88 330 148 391 215 426 c 0
 305 473 351 525 351 587 c 0
 351 617 341 652 298 652 c 0
 265 652 235 627 219 573 c 0
 216 562 205 552 191 552 c 0
 172 552 153 568 153 584 c 0
 153 620 205 680 300 680 c 0
 391 680 434 634 434 571 c 0
 434 500 372 465 283 426 c 0
 215 396 167 355 156 331 c 1
 311 331 l 2
 343 331 353 341 371 364 c 1
 393 357 l 1
 357 272 l 1
 77 272 l 1
 70 281 l 1
EndSplineSet
EndChar

StartChar: threesuperior
Encoding: 179 179 205
Width: 370
Flags: HW
HStem: 265 28<214.5 258.5 214.5 287> 470 31<252 272> 487 14 652 28<274.5 309.5>
VStem: 314 83<369.5 407.5 357 425> 346 78<574 610 554 615>
LayerCount: 2
Back
SplineSet
91 341 m 0
 94 365 121 385 142 385 c 0
 154 385 160 378 162 365 c 0
 171 315 197 293 231 293 c 0
 269 293 304 316 314 384 c 0xb4
 325 459 274 468 257 468 c 0xb4
 226 468 208 461 199 461 c 0
 186 461 183 472 185 484 c 0
 187 496 191 508 205 508 c 0
 214 508 230 501 261 501 c 0xb8
 302 501 322 541 327 577 c 0
 331 602 330 652 281 652 c 0
 246 652 224 624 205 577 c 0
 199 563 190 559 180 559 c 0
 162 559 141 573 144 596 c 0
 149 635 207 680 290 680 c 0
 351 680 421 657 410 581 c 0xd8
 401 518 342 496 309 489 c 1
 308 487 l 1xd4
 340 485 411 461 400 382 c 0
 389 306 323 265 219 265 c 0
 138 265 85 300 91 341 c 0
EndSplineSet
Fore
SplineSet
94 344 m 0
 94 361 110 383 135 383 c 0
 150 383 155 372 160 357 c 0
 174 314 196 293 233 293 c 0
 284 293 314 339 314 400 c 0
 314 450 291 470 253 470 c 0xd8
 235 470 206 463 198 463 c 0
 189 463 185 470 185 479 c 0
 185 498 194 509 202 509 c 0
 212 509 241 501 263 501 c 0
 321 501 346 552 346 596 c 0
 346 634 324 652 295 652 c 0
 254 652 236 621 218 587 c 0
 212 576 206 568 190 568 c 0
 173 568 156 584 156 599 c 0
 156 633 205 680 293 680 c 0xdc
 380 680 424 639 424 581 c 0xb4
 424 527 378 492 316 487 c 1
 316 485 l 1xb8
 379 473 397 426 397 389 c 0
 397 325 348 265 226 265 c 0
 140 265 94 310 94 344 c 0
EndSplineSet
EndChar

StartChar: threequarters
Encoding: 190 190 207
Width: 890
Flags: HW
HStem: 0 24.5 104 33<587 706 783 841> 265 28<260.5 304.5 260.5 333> 329 72<750 839 750 839> 470 31<298 318> 487 14 651 20G<825 825> 652 28<320.5 355.5> 678 20G<791 791>
VStem: 360 83<369.5 407.5 357 425> 392 78<574 610 554 615>
LayerCount: 2
Fore
SplineSet
526 120 m 1
 607 220 694 317 777 401 c 1
 839 401 l 1
 783 137 l 1
 851 137 l 1
 841 104 l 1
 776 104 l 1
 765 50 l 2
 762 34 768 27 782 26 c 2
 815 23 l 1
 810 0 l 1
 617 0 l 1
 622 23 l 1
 668 26 l 2
 681 27 692 34 695 50 c 2
 706 104 l 1xf940
 535 104 l 1
 526 120 l 1
587 137 m 1
 713 137 l 1
 756 329 l 1
 750 329 l 1
 694 273 640 207 587 137 c 1
EndSplineSet
Refer: 98 8260 N 1 0 0 1 421 0 2
Refer: 205 179 N 1 0 0 1 46 0 2
EndChar

StartChar: Eth
Encoding: 208 208 208
Width: 770
Flags: HW
HStem: 0 32 0 35<109 109 300.5 354> 341 38<111 208 101 217 313 439> 657 35<436 464 464 476> 660.5 31.5
VStem: 702 107<390 451.5 381 473>
LayerCount: 2
Fore
SplineSet
47 0 m 1x74
 53 29 l 1
 109 35 l 2
 133 37 143 50 150 83 c 2xb4
 208 341 l 1
 101 341 l 1
 111 379 l 1
 217 379 l 1
 269 609 l 2
 276 642 271 656 248 658 c 2
 189 663 l 1x6c
 195 692 l 1
 464 692 l 2
 575 692 665 669 723 620 c 0
 780 572 809 492 809 411 c 0
 809 351 799 267 742 181 c 0
 670 72 554 0 354 0 c 2
 47 0 l 1x74
246 86 m 2
 236 42 273 35 328 35 c 0
 494 35 580 97 637 191 c 0
 682 265 702 347 702 433 c 0
 702 513 684 653 476 657 c 0
 396 657 375 654 367 620 c 2
 313 379 l 1
 450 379 l 1
 439 341 l 1x74
 304 341 l 1
 246 86 l 2
EndSplineSet
EndChar

StartChar: plusminus
Encoding: 177 177 209
Width: 570
Flags: HMW
HStem: 0 58<93 577 93 577> 311 58<93 302 93 302 370 577>
VStem: 302 68<114 311 114 311 369 556>
LayerCount: 2
Fore
SplineSet
93 311 m 1
 93 369 l 1
 302 369 l 1
 302 556 l 1
 370 556 l 1
 370 369 l 1
 577 369 l 1
 577 311 l 1
 370 311 l 1
 370 114 l 1
 302 114 l 1
 302 311 l 1
 93 311 l 1
EndSplineSet
Refer: 150 8722 S 1 0 0 1 0 -221 2
EndChar

StartChar: copyright
Encoding: 169 169 217
Width: 836
Flags: HMW
HStem: -15 45<406 574 406 590.5> 149 28<462.5 536> 522 28<463 535 441.5 550.5> 662 45<406 574>
VStem: 126 64<257.5 434.5 257.5 446> 300 81<314.5 400.5 314.5 408.5> 624 20<421 421> 790 64<257.5 434.5>
LayerCount: 2
Fore
SplineSet
126 346 m 0
 126 546 289 707 490 707 c 0
 691 707 854 546 854 346 c 0
 854 146 691 -15 490 -15 c 0
 289 -15 126 146 126 346 c 0
190 346 m 0
 190 169 322 30 490 30 c 0
 658 30 790 169 790 346 c 0
 790 523 658 662 490 662 c 0
 322 662 190 523 190 346 c 0
300 348 m 0
 300 469 372 550 511 550 c 0
 559 550 613 539 644 519 c 1
 644 421 l 1
 624 421 l 1
 614 475 592 522 509 522 c 0
 417 522 381 444 381 357 c 0
 381 272 411 177 514 177 c 0
 579 177 613 209 632 280 c 1
 652 280 l 1
 641 180 l 1
 615 161 568 149 504 149 c 0
 357 149 300 235 300 348 c 0
EndSplineSet
EndChar

StartChar: Ccedilla
Encoding: 199 199 219
Width: 661
Flags: HW
HStem: -230 34 -15 35<420 427 420 420> -12 32<377 377> 672 35<475.5 572 443 591.5>
VStem: 114 107<213.5 294 172 309.5> 692 30<504 504>
LayerCount: 2
Fore
SplineSet
114 275 m 0
 114 344 127 436 182 525 c 0
 240 619 349 707 537 707 c 0
 607 707 701 690 758 654 c 1
 722 504 l 1
 692 504 l 1
 697 613 654 672 529 672 c 0
 422 672 343 614 293 530 c 0
 245 450 221 339 221 249 c 0
 221 95 304 20 420 20 c 0
 543 20 594 86 649 186 c 1
 679 186 l 1xdc
 630 27 l 1
 566 -5 498 -15 427 -15 c 2
 420 -15 l 1
 387 -60 l 1xdc
 433 -66 469 -107 459 -157 c 0
 450 -203 401 -230 348 -230 c 0
 323 -230 297 -226 282 -220 c 1
 286 -196 l 1
 331 -202 384 -195 384 -147 c 0
 384 -120 364 -97 329 -95 c 1
 326 -86 l 1
 377 -12 l 1xbc
 170 7 114 152 114 275 c 0
EndSplineSet
EndChar

StartChar: Thorn
Encoding: 222 222 223
Width: 604
Flags: HMW
HStem: 0 32 182 35<309.5 352> 512 35<381.5 419 419 458> 660.5 31.5
VStem: 546 105
LayerCount: 2
Fore
SplineSet
40 0 m 1
 46 29 l 1
 101 35 l 2
 125 38 135 50 143 83 c 2
 263 609 l 2
 271 642 264 655 241 657 c 2
 182 663 l 1
 189 692 l 1
 463 692 l 1
 456 663 l 1
 401 658 l 2
 376 656 367 643 359 609 c 2
 345 547 l 1
 419 547 l 2
 544 547 653 507 651 381 c 0
 648 207 461 182 352 182 c 2
 261 182 l 1
 239 83 l 2
 232 52 237 37 263 35 c 2
 322 29 l 1
 316 0 l 1
 40 0 l 1
278 251 m 2
 273 231 275 217 344 217 c 0
 456 217 546 271 546 394 c 0
 546 466 502 512 414 512 c 0
 349 512 335 504 329 476 c 2
 278 251 l 2
EndSplineSet
EndChar

StartChar: uni00B5
Encoding: 181 181 229
Width: 618
Flags: HW
HStem: -12 52<232 252.5> 447.5 26.5 477 20G<319 319> 482 20G<314 314 622 622>
VStem: 46 95 423 88
LayerCount: 2
Fore
SplineSet
49 -187 m 2
 203 397 l 2
 211 428 212 443 188 445 c 2
 126 450 l 1
 132 474 l 1xdc
 314 502 l 1
 319 497 l 1xa4
 223 128 l 2
 208 70 216 40 248 40 c 0
 331 40 418 173 462 274 c 0
 488 335 504 388 533 490 c 1x94
 622 502 l 1x94
 515 94 l 2
 507 63 507 40 528 40 c 0
 556 40 600 112 620 146 c 1
 644 131 l 1
 609 57 549 -12 477 -12 c 0
 424 -12 412 29 431 96 c 2
 464 210 l 1
 462 210 l 1
 402 94 297 -12 208 -12 c 0
 189 -12 171 -5 154 11 c 1
 146 -21 l 2
 139 -46 139 -83 144 -109 c 0
 149 -132 155 -152 155 -170 c 0
 155 -204 101 -232 72 -232 c 0
 51 -232 41 -218 49 -187 c 2
EndSplineSet
EndChar

StartChar: uni0237
Encoding: 567 567 230
Width: 309
Flags: W
HStem: -242 35<9 87.0091> 450 24<142 186.75> 482 20G<193.143 326>
DStem2: 75.7627 -242 157.823 -242 0.224951 0.97437<75.9433 696.309>
LayerCount: 2
Fore
SplineSet
-60 -184 m 0
 -60 -159 -37 -134 -15 -134 c 0
 -2 -134 5 -145 11 -154 c 0
 38 -194 56 -207 68 -207 c 0
 80 -207 87 -195 91 -176 c 2
 213 395 l 2
 221 430 222 443 198 445 c 2
 136 450 l 1
 142 474 l 1
 321 502 l 1
 326 497 l 1
 213 -3 l 2
 193 -92 170 -156 142 -192 c 0
 114 -227 81 -242 35 -242 c 0
 -17 -242 -59 -217 -60 -184 c 0
EndSplineSet
EndChar

StartChar: circumflex.cap
Encoding: 61431 61431 231
Width: 400
Flags: W
HStem: 797 79<359.644 424.853>
VStem: 218.189 306
LayerCount: 2
Fore
SplineSet
218.189 742 m 1
 358.189 853 l 2
 376.189 868 387.189 876 400.189 876 c 0
 412.189 876 422.189 865 433.189 851 c 2
 524.189 741 l 1
 506.189 722 l 1
 416.189 781 l 2
 404.189 790 393.189 797 384.189 797 c 0
 376.189 797 361.189 790 348.189 783 c 2
 231.189 722 l 1
 218.189 742 l 1
EndSplineSet
EndChar

StartChar: grave.cap
Encoding: 63182 63182 232
Width: 400
Flags: MW
HStem: 742 149<251 443>
VStem: 212 242
LayerCount: 2
Back
SplineSet
212 838 m 0xb0
 210 858 229 887 244 890 c 0
 260 893 274 887 309 863 c 2
 454 764 l 1
 443 742 l 1
 273 798 l 2
 228 812 214 819 212 838 c 0xb0
232 838 m 0
 235 858 261 887 276 890 c 0
 293 893 306 887 335 863 c 2
 457 764 l 1
 441 742 l 1
 284 798 l 2
 242 812 230 819 232 838 c 0
EndSplineSet
Fore
SplineSet
212 841 m 0
 212 856 226 891 251 891 c 0
 265 891 279 883 309 863 c 2
 454 764 l 1
 443 742 l 1
 273 798 l 2
 234 810 212 817 212 841 c 0
EndSplineSet
EndChar

StartChar: acute.cap
Encoding: 63177 63177 233
Width: 400
Flags: MW
HStem: 742 149<302 494>
VStem: 291 242
LayerCount: 2
Back
SplineSet
291 764 m 1
 436 863 l 2
 471 887 485 893 501 890 c 0
 516 887 535 858 533 838 c 0
 531 819 517 812 472 798 c 2
 302 742 l 1
 291 764 l 1
295 764 m 1
 463 863 l 2
 504 887 519 893 534 890 c 0
 549 887 561 858 554 838 c 0
 548 819 532 812 484 798 c 2
 301 742 l 1
 295 764 l 1
EndSplineSet
Fore
SplineSet
291 764 m 1
 436 863 l 2
 466 883 480 891 494 891 c 0
 519 891 533 856 533 841 c 0
 533 817 511 810 472 798 c 2
 302 742 l 1
 291 764 l 1
EndSplineSet
EndChar

StartChar: afii10019
Encoding: 1042 1042 235
Width: 632
Flags: W
HStem: 0 35<44 100 248.5 423.941> 355 35<306 444.052> 657 35<186 239 364.875 516.308>
VStem: 524 108<123.523 289.523> 569 102<468.599 613.596>
DStem2: 122.838 0 219.144 0 0.224951 0.97437<77.6297 385.529 421.207 665.965>
LayerCount: 2
Back
SplineSet
35 0 m 5xf4
 42 29 l 5
 129 35 132 37 145 93 c 6
 261 599 l 6
 274 655 273 657 188 663 c 5
 195 692 l 5
 478 692 l 6
 556 692 611 682 643 656 c 4
 676 629 688 588 675 533 c 4xf8
 658 456 590 398 494 379 c 5
 493 377 l 5
 586 364 656 312 629 194 c 4
 596 55 488 0 339 0 c 6
 35 0 l 5xf4
246 112 m 6
 232 50 244 35 322 35 c 4
 407 35 494 67 522 187 c 4xf4
 547 293 494 355 373 355 c 6
 302 355 l 5
 246 112 l 6
310 390 m 5
 376 390 l 6
 478 390 549 429 571 527 c 4xf8
 595 630 523 657 451 657 c 4
 375 657 370 650 360 607 c 6
 310 390 l 5
EndSplineSet
Fore
Refer: 34 66 N 1 0 0 1 0 0 2
EndChar

StartChar: afii10031
Encoding: 1053 1053 237
Width: 775
Flags: W
HStem: 0 29<46 101 261 314 475 530 690 743> 341 38<306 631> 663 29<189 241 401 456 618 670 830 885>
DStem2: 123.838 0 219.838 0 0.224951 0.97437<63.8975 371.213 410.264 667.283> 552.838 0 648.838 0 0.224951 0.97437<62.7316 349.843 388.893 667.283>
LayerCount: 2
Back
SplineSet
35 0 m 1
 42 29 l 1
 131 35 134 37 146 93 c 2
 263 599 l 2
 276 655 275 657 188 663 c 1
 195 692 l 1
 474 692 l 1
 467 663 l 1
 379 657 375 655 362 599 c 2
 311 379 l 1
 661 379 l 1
 712 599 l 2
 725 655 724 657 637 663 c 1
 644 692 l 1
 923 692 l 1
 916 663 l 1
 828 657 824 655 811 599 c 2
 694 93 l 2
 682 37 684 35 770 29 c 1
 763 0 l 1
 484 0 l 1
 491 29 l 1
 580 35 583 37 595 93 c 2
 653 341 l 1
 303 341 l 1
 245 93 l 2
 233 37 235 35 321 29 c 1
 314 0 l 1
 35 0 l 1
EndSplineSet
Fore
Refer: 40 72 N 1 0 0 1 0 0 2
EndChar

StartChar: afii10032
Encoding: 1054 1054 240
Width: 753
Flags: W
HStem: -15 35<344 463 344 495.5> 672 35<451 559>
VStem: 114 105<187.5 272 160.5 303> 684 105<437.5 516.5 394.5 536.5>
LayerCount: 2
Back
SplineSet
115 346 m 0
 137 458 186 550 252 610 c 0
 320 673 408 707 518 707 c 0
 628 707 704 673 748 610 c 0
 790 550 803 458 781 346 c 0
 759 234 711 142 645 82 c 0
 577 19 488 -15 378 -15 c 0
 268 -15 193 19 149 82 c 0
 107 142 93 234 115 346 c 0
227 346 m 0
 199 199 207 20 385 20 c 0
 563 20 641 199 669 346 c 0
 698 493 690 672 512 672 c 0
 334 672 256 493 227 346 c 0
EndSplineSet
Fore
Refer: 47 79 N 1 0 0 1 0 0 2
EndChar

StartChar: afii10082
Encoding: 1088 1088 249
Width: 590
Flags: W
HStem: -242 21<61.3818 146> -12 35<228.876 362.651> 450 24<126 171.25> 450 52<432.185 547>
VStem: 522 99<253.078 437.672>
DStem2: 57 -242 143.23 -242 0.224951 0.97437<31.7131 277.934 313.245 556.296 559.683 697.427>
LayerCount: 2
Back
SplineSet
-21 -201 m 1
 50 -196 55 -194 67 -143 c 2
 193 402 l 2
 201 438 196 443 171 447 c 2
 134 452 l 1
 140 477 l 1
 297 502 l 1
 293 428 l 1
 338 453 407 502 480 502 c 0
 662 502 634 327 618 256 c 0
 571 50 440 -12 305 -12 c 0
 259 -12 215 -1 197 11 c 1
 161 -143 l 2
 149 -194 155 -196 238 -201 c 1
 231 -230 l 1
 -28 -230 l 1
 -21 -201 l 1
230 157 m 2
 225 134 221 114 223 96 c 0
 229 50 262 23 314 23 c 0
 414 23 479 103 513 250 c 0
 552 422 469 448 429 448 c 0
 376 448 328 424 294 378 c 0
 281 360 274 346 268 321 c 2
 230 157 l 2
EndSplineSet
Fore
Refer: 80 112 N 1 0 0 1 0 0 2
EndChar

StartChar: afii10048
Encoding: 1070 1070 264
Width: 1048
VWidth: 0
Flags: HW
HStem: -15 35<613.889 779.01> 341 38<301 463> 672 35<717.725 884.274>
VStem: 409 105<149.01 367.644> 979 105<299.928 544.436>
DStem2: 143 83 239 83 0.224951 0.97437<-21.5691 582.387>
LayerCount: 2
Back
SplineSet
311 379 m 5
 471 379 l 5
 463 341 l 5
 303 341 l 5
 311 379 l 5
418 346 m 0
 440 458 489 550 555 610 c 0
 623 673 711 707 821 707 c 0
 931 707 1007 673 1051 610 c 0
 1093 550 1106 458 1084 346 c 0
 1062 234 1014 142 948 82 c 0
 880 19 791 -15 681 -15 c 0
 571 -15 496 19 452 82 c 0
 410 142 396 234 418 346 c 0
530 346 m 0
 502 199 510 20 688 20 c 0
 866 20 944 199 972 346 c 0
 1001 493 993 672 815 672 c 0
 637 672 559 493 530 346 c 0
35 0 m 1
 42 29 l 1
 131 35 134 37 146 93 c 2
 263 599 l 2
 276 655 275 657 188 663 c 1
 195 692 l 1
 474 692 l 1
 467 663 l 1
 378 657 375 655 362 599 c 2
 245 93 l 2
 233 37 234 35 321 29 c 1
 314 0 l 1
 35 0 l 1
EndSplineSet
Fore
SplineSet
40 0 m 1
 46 29 l 1
 101 35 l 2
 125 37 136 51 143 83 c 2
 263 609 l 2
 270 639 264 657 241 659 c 2
 182 663 l 1
 189 692 l 1
 463 692 l 1
 456 663 l 1
 401 658 l 2
 376 656 366 640 359 609 c 2
 239 83 l 2
 232 52 237 35 261 33 c 2
 320 29 l 1
 314 0 l 1
 40 0 l 1
301 379 m 1
 471 379 l 1
 463 341 l 1
 293 341 l 1
 301 379 l 1
EndSplineSet
Refer: 47 79 S 1 0 0 1 295 0 2
EndChar

StartChar: afii10033
Encoding: 1055 1055 265
Width: 768
Flags: HW
HStem: 0 21G<40 318.138 461 739.138> 657 35<189 241 371.165 685.306 822 877>
LayerCount: 2
Back
SplineSet
40 0 m 1
 46 29 l 1
 101 35 l 2
 125 37 135 49 143 83 c 2
 263 609 l 2
 270 641 264 657 241 659 c 2
 182 663 l 1
 189 692 l 1
 463 692 l 1
 456 663 l 1
 401 658 l 2
 376 656 367 642 359 609 c 2
 306 379 l 1
 640 379 l 1
 692 609 l 2
 699 641 693 657 670 659 c 2
 611 663 l 1
 618 692 l 1
 892 692 l 1
 885 663 l 1
 830 658 l 2
 805 656 796 642 788 609 c 2
 668 83 l 2
 660 50 666 35 690 33 c 2
 749 29 l 1
 743 0 l 1
 469 0 l 1
 475 29 l 1
 530 35 l 2
 554 37 564 49 572 83 c 2
 631 341 l 1
 297 341 l 1
 239 83 l 2
 232 50 237 35 261 33 c 2
 320 29 l 1
 314 0 l 1
 40 0 l 1
EndSplineSet
Fore
SplineSet
40 0 m 1
 46 29 l 1
 101 35 l 2
 125 37 136 51 143 83 c 2
 263 609 l 2
 270 639 264 657 241 659 c 2
 182 663 l 1
 189 692 l 1
 884 692 l 1
 877 663 l 1
 822 658 l 2
 797 656 787 640 780 609 c 2
 660 83 l 2
 653 52 658 35 682 33 c 2
 741 29 l 1
 735 0 l 1
 461 0 l 1
 467 29 l 1
 522 35 l 2
 546 37 557 51 564 83 c 2
 682 601 l 2
 694 655 681 657 615 657 c 2
 451 657 l 2
 381 657 369 654 358 604 c 2
 239 83 l 2
 232 52 237 35 261 33 c 2
 320 29 l 1
 314 0 l 1
 40 0 l 1
EndSplineSet
EndChar

StartChar: afii10090
Encoding: 1096 1096 266
Width: 919
Flags: HMW
HStem: -12 52<170.743 287.29 476.37 586.617 768.041 846.821> 450 52<126 314>
DStem2: 134 133 217 110 0.254862 0.966977<-56.8294 316.138> 445 137 521 124 0.255752 0.966742<-61.5676 66.0198 123.422 364.022> 732 96 816 94 0.244772 0.969581<-30.1639 108.18 160.798 406.492>
LayerCount: 2
Back
SplineSet
761 274 m 0
 787 335 803 388 832 490 c 1
 921 502 l 1
 814 94 l 6
 806 63 806 40 827 40 c 4
 855 40 899 112 919 146 c 5
 943 131 l 5
 908 57 848 -12 776 -12 c 4
 723 -12 711 29 730 96 c 6
 763 210 l 5
 761 210 l 1
134 133 m 2
 203 397 l 2
 211 428 212 443 188 445 c 2
 126 450 l 1
 132 474 l 1
 314 502 l 1
 319 497 l 1
 223 128 l 2
98 -12 m 1
 201 397 l 2
 209 429 211 443 187 445 c 2
 126 450 l 1xaa
 132 474 l 1xca
 313 502 l 1
 318 497 l 1x9a
 255 290 l 1
 258 290 l 1
 327 416 420 502 512 502 c 0
 582 502 602 449 572 353 c 2
 552 290 l 1
 556 290 l 1
 628 419 719 502 809 502 c 4
 892 502 905 436 882 357 c 2xaa
 805 95 l 2
 796 63 795 40 815 40 c 0
 843 40 887 111 905 146 c 1
 929 132 l 1
 895 56 839 -12 766 -12 c 0
 716 -12 696 24 714 86 c 2xac
 800 380 l 2
 813 423 799 450 766 450 c 0
 682 450 591 306 554 221 c 0
 528 160 512 102 483 0 c 1
 396 -12 l 1
 422 86 l 1
 496 366 l 2
 512 428 496 450 466 450 c 0
 383 450 285 300 251 213 c 0
 230 160 214 102 185 0 c 1xaa
 98 -12 l 1
EndSplineSet
Refer: 77 109 N 1 0 0 1 0 0 2
Fore
SplineSet
126 450 m 1
 132 474 l 1
 314 502 l 1
 319 497 l 1
 217 110 l 2
 206 67 218 40 251 40 c 0
 335 40 426 184 463 269 c 0
 489 330 505 388 534 490 c 1
 621 502 l 1
 521 124 l 2
 505 62 521 40 551 40 c 0
 634 40 732 190 766 277 c 0
 787 330 803 388 832 490 c 1
 919 502 l 1
 816 94 l 2
 808 63 808 40 829 40 c 0
 857 40 901 112 921 146 c 1
 945 131 l 1
 910 57 850 -12 778 -12 c 0
 725 -12 713 29 732 96 c 2
 762 200 l 1
 759 200 l 1
 690 74 597 -12 505 -12 c 0
 435 -12 415 41 445 137 c 2
 465 200 l 1
 461 200 l 1
 389 71 298 -12 208 -12 c 0
 125 -12 113 53 134 133 c 2
 203 397 l 2
 211 428 212 443 188 445 c 2
 126 450 l 1
EndSplineSet
EndChar

StartChar: afii10040
Encoding: 1062 1062 267
Width: 766
Flags: W
HStem: -190 21G<672 707.178> 0 35<47 102 239.625 502.243 508 737> 663 29<189 242 402 457 608 661 821 876>
VStem: 672 31<-190 -156.489>
DStem2: 79.5363 -190 175.536 -190 0.224951 0.97437<262.882 863.181> 499.819 -190 596.126 -190 0.224951 0.97437<262.364 862.893>
LayerCount: 2
Fore
SplineSet
500 0 m 9
 508 35 l 1
 750 35 l 1
 703 -190 l 1
 672 -190 l 1
 676 -155 679 -125 679 -101 c 0
 679 -24 646 0 500 0 c 9
741 35 m 1
 737 0 l 1
 40 0 l 1
 47 29 l 1
 102 34 l 2
 127 36 137 52 144 83 c 2
 264 609 l 2
 271 640 266 657 242 659 c 2
 183 663 l 1
 189 692 l 1
 463 692 l 1
 457 663 l 1
 402 657 l 2
 378 655 367 641 360 609 c 2
 242 91 l 2
 230 37 243 35 309 35 c 2
 471 35 l 2
 541 35 553 38 564 88 c 2
 683 609 l 2
 690 640 685 657 661 659 c 2
 602 663 l 1
 608 692 l 1
 882 692 l 1
 876 663 l 1
 821 657 l 2
 797 655 786 641 779 609 c 2
 661 91 l 2
 649 37 662 35 728 35 c 2
 741 35 l 1
EndSplineSet
EndChar

StartChar: afii10046
Encoding: 1068 1068 268
Width: 627
Flags: HMW
HStem: 0 35<46 101> 355 35<386 416> 663 29<189 189>
VStem: 525 108<212 217>
DStem2: 143 83 243 99 0.222422 0.97495<-7.37574 298.43 326.038 583.306>
LayerCount: 2
Back
SplineSet
38 0 m 1
 44 29 l 1
 100 35 l 2
 124 38 135 50 142 83 c 2
 260 609 l 2
 268 643 262 655 239 657 c 2
 180 663 l 1
 186 692 l 1
 427 692 l 2
 499 693 564 686 608 659 c 0
 650 634 671 593 671 541 c 0xb4
 671 465 615 391 482 375 c 1
 481 372 l 1
 554 358 632 312 632 207 c 0
 632 124 584 0 342 0 c 2
 38 0 l 1
242 99 m 2
 233 60 237 35 336 35 c 0
 470 35 524 124 524 213 c 0x78
 524 327 437 355 338 355 c 2
 299 355 l 1
 242 99 l 2
306 390 m 1x78
 371 390 l 2
 425 390 477 402 510 427 c 0
 545 455 569 494 569 545 c 0x74
 569 615 522 657 438 657 c 0
 371 657 366 652 359 622 c 2
 306 390 l 1x78
EndSplineSet
Fore
SplineSet
40 0 m 1
 46 29 l 1
 101 35 l 2
 125 37 136 51 143 83 c 2
 263 609 l 2
 270 639 264 657 241 659 c 2
 182 663 l 1
 189 692 l 1
 463 692 l 1
 456 663 l 1
 401 658 l 2
 376 656 366 640 359 609 c 2
 307 380 l 1
 338 389 372 390 416 390 c 0
 541 390 633 319 633 217 c 0
 633 160 617 0 340 0 c 2
 40 0 l 1
337 35 m 0
 492 35 525 157 525 212 c 0
 525 290 474 355 386 355 c 0
 358 355 313 348 298 342 c 1
 243 99 l 2
 234 60 238 35 337 35 c 0
EndSplineSet
EndChar

StartChar: afii10026
Encoding: 1048 1048 269
Width: 781
Flags: MW
HStem: 0 29<46 101 261 314 481 536 696 749> 663 29<189 241 401 456 624 676 836 891>
DStem2: 143 83 239 83 0.222422 0.97495<-21.5656 30.7239 49.982 583.306> 558.838 0 654.838 0 0.224951 0.97437<63.6142 617.581 624.696 667.57>
LayerCount: 2
Back
SplineSet
40 0 m 1
 46 29 l 1
 101 35 l 2
 125 37 135 49 143 83 c 2
 263 609 l 2
 270 641 264 657 241 659 c 2
 182 663 l 1
 189 692 l 1
 463 692 l 1
 456 663 l 1
 401 658 l 2
 376 656 367 642 359 609 c 2
 306 379 l 1
 640 379 l 1
 692 609 l 2
 699 641 693 657 670 659 c 2
 611 663 l 1
 618 692 l 1
 892 692 l 1
 885 663 l 1
 830 658 l 2
 805 656 796 642 788 609 c 2
 668 83 l 2
 660 50 666 35 690 33 c 2
 749 29 l 1
 743 0 l 1
 469 0 l 1
 475 29 l 1
 530 35 l 2
 554 37 564 49 572 83 c 2
 631 341 l 1
 297 341 l 1
 239 83 l 2
 232 50 237 35 261 33 c 2
 320 29 l 1
 314 0 l 1
 40 0 l 1
EndSplineSet
Fore
SplineSet
188 124 m 1
 730 614 l 1
 753 589 l 1
 211 99 l 1
 188 124 l 1
475 0 m 1
 481 29 l 1
 536 35 l 2
 560 37 571 51 578 83 c 2
 698 609 l 2
 705 639 699 657 676 659 c 2
 617 663 l 1
 624 692 l 1
 898 692 l 1
 891 663 l 1
 836 658 l 2
 811 656 801 640 794 609 c 2
 674 83 l 2
 667 52 672 35 696 33 c 2
 755 29 l 1
 749 0 l 1
 475 0 l 1
40 0 m 1
 46 29 l 1
 101 35 l 2
 125 37 136 51 143 83 c 2
 263 609 l 2
 270 639 264 657 241 659 c 2
 182 663 l 1
 189 692 l 1
 463 692 l 1
 456 663 l 1
 401 658 l 2
 376 656 366 640 359 609 c 2
 239 83 l 2
 232 52 237 35 261 33 c 2
 320 29 l 1
 314 0 l 1
 40 0 l 1
EndSplineSet
EndChar

StartChar: afii10079
Encoding: 1085 1085 270
Width: 612
Flags: MW
HStem: -12 52<440 535.283> 235 35<235 477> 451 51<120 608>
DStem2: 98 -12 190 0 0.232855 0.972511<33.0928 270.249 306.149 463.288> 415 86 505 95 0.245337 0.969438<-18.4999 159.657 195.55 417.168>
LayerCount: 2
Back
SplineSet
126 450 m 1
 132 474 l 1xdc
 314 502 l 1
 319 497 l 1xac
 223 128 l 2
 208 70 216 40 248 40 c 0
 331 40 418 173 462 274 c 0
 488 335 504 388 533 490 c 1x9c
 622 502 l 1x9c
 515 94 l 2
 507 63 507 40 528 40 c 0
 556 40 600 112 620 146 c 1
 644 131 l 1
 609 57 549 -12 477 -12 c 0
 424 -12 412 29 431 96 c 2
 464 210 l 1
 462 210 l 1
 402 94 297 -12 201 -12 c 0
 121 -12 113 53 134 133 c 2
 203 397 l 2
 211 428 212 443 188 445 c 2
 126 450 l 1
EndSplineSet
Fore
SplineSet
227 235 m 1
 235 270 l 1
 485 270 l 1
 477 235 l 1
 227 235 l 1
98 -12 m 1
 195 395 l 2
 204 434 205 442 175 445 c 2
 120 451 l 1
 126 474 l 1
 304 502 l 1
 309 497 l 1
 190 0 l 1
 98 -12 l 1
415 86 m 2
 519 490 l 1
 608 502 l 1
 505 95 l 2
 496 63 495 40 515 40 c 0
 543 40 587 111 605 146 c 1
 629 132 l 1
 595 56 539 -12 467 -12 c 0
 413 -12 400 29 415 86 c 2
EndSplineSet
EndChar

StartChar: afii10096
Encoding: 1102 1102 271
Width: 785
Flags: MW
HStem: -12 21G<102.767 190> -12 35<490 570.5> 235 35<235 347> 451 51<120 304> 467 35<559 655.5>
VStem: 332 97<115.5 183 93.5 212> 708 97<326.5 393>
LayerCount: 2
Back
SplineSet
350 245 m 0
 387 407 488 502 649 502 c 0
 810 502 867 407 830 245 c 0
 792 83 691 -12 530 -12 c 0
 369 -12 312 83 350 245 c 0
454 245 m 0
 422 107 446 23 538 23 c 0
 630 23 694 107 726 245 c 0
 757 383 733 467 641 467 c 0
 549 467 485 383 454 245 c 0
248 235 m 1
 256 270 l 1
 417 270 l 1
 409 235 l 1
 248 235 l 1
25 0 m 1
 32 29 l 1
 105 34 108 36 120 87 c 2
 193 403 l 2
 205 454 202 456 131 461 c 1
 138 490 l 1
 382 490 l 1
 375 461 l 1
 302 456 299 454 287 403 c 2
 214 87 l 2
 202 36 205 34 276 29 c 1
 269 0 l 1
 25 0 l 1
EndSplineSet
Fore
SplineSet
227 235 m 1x26
 235 270 l 1
 355 270 l 1
 347 235 l 1
 227 235 l 1x26
98 -12 m 1x76
 195 395 l 2
 204 434 205 442 175 445 c 2
 120 451 l 1
 126 474 l 1
 304 502 l 1
 309 497 l 1
 190 0 l 1
 98 -12 l 1x76
EndSplineSet
Refer: 79 111 N 1 0 0 1 248 0 2
EndChar

StartChar: afii10094
Encoding: 1100 1100 272
Width: 540
Flags: MW
HStem: -12 35<251.312 364.797> 279 35<308.559 419.32> 450 52<126 314>
VStem: 451 97<103.065 251.988>
LayerCount: 2
Back
SplineSet
227 235 m 1
 235 270 l 1
 485 270 l 1
 477 235 l 1
 227 235 l 1
98 -12 m 1
 195 395 l 2
 204 434 205 442 175 445 c 2
 120 451 l 1
 126 474 l 1
 304 502 l 1
 309 497 l 1
 190 0 l 1
 98 -12 l 1
415 86 m 2
 519 490 l 1
 608 502 l 1
 505 95 l 2
 496 63 495 40 515 40 c 0
 543 40 587 111 605 146 c 1
 629 132 l 1
 595 56 539 -12 467 -12 c 0
 413 -12 400 29 415 86 c 2
EndSplineSet
Fore
SplineSet
229 185 m 1
 247 249 l 1
 249 249 l 1
 283 288 324 314 381 314 c 0
 489 314 548 268 548 177 c 0
 548 90 457 -12 282 -12 c 0
 151 -12 111 96 140 190 c 2
 203 397 l 2
 212 428 212 443 188 445 c 2
 126 450 l 1
 132 474 l 1
 314 502 l 1
 319 497 l 1
 229 185 l 2
 214 127 204 23 308 23 c 0
 348 23 451 62 451 194 c 0
 451 243 418 279 360 279 c 0
 319 279 260 251 229 185 c 1
EndSplineSet
EndChar

StartChar: afii10093
Encoding: 1099 1099 273
Width: 812
Flags: HW
HStem: -12 35<251.312 364.797> -12 52<640 735.283> 279 35<308.559 419.32> 450 24<132 177.5> 482 20G<184 319 719 802.939>
VStem: 451 97<103.065 251.988>
LayerCount: 2
Fore
SplineSet
615 86 m 2x7c
 719 490 l 1
 808 502 l 1
 705 95 l 2
 696 63 695 40 715 40 c 0
 743 40 787 111 805 146 c 1
 829 132 l 1
 795 56 739 -12 667 -12 c 0
 613 -12 600 29 615 86 c 2x7c
EndSplineSet
Refer: 272 1100 N 1 0 0 1 0 0 2
EndChar

StartChar: afii10068
Encoding: 1075 1075 274
Width: 423
VWidth: 2048
Flags: W
HStem: -12 35<186.968 305.132> 467 35<217.428 318.53>
VStem: 80 90<36.5296 167.997> 338 79<332.587 452.672>
LayerCount: 2
Fore
SplineSet
80 89 m 256
 80 219 199 232 301 308 c 256
 330 330 338 366 338 401 c 256
 338 444 310 467 275 467 c 256
 230 467 194 437 144 393 c 1
 123 412 l 1
 202 488 239 502 295 502 c 256
 397 502 417 443 417 412 c 256
 417 294 340 308 225 220 c 256
 175 182 170 137 170 91 c 256
 170 63 175 23 244 23 c 256
 306 23 347 66 410 141 c 9
 429 122 l 17
 359 34 315 -12 229 -12 c 256
 134 -12 80 34 80 89 c 256
EndSplineSet
EndChar

StartChar: afii10066
Encoding: 1073 1073 275
Width: 542
Flags: HMW
HStem: -12 35<224 335> 467 35<330 439> 619 85<334 535>
VStem: 94 97<71 223> 470 97<232 422>
LayerCount: 2
Back
SplineSet
102 288.5 m 0
 122 393.5 136 450 185 550 c 0
 208 598 266 688 423 709 c 0
 530 723 597 714 620 750 c 1
 646 750 l 1
 584 632 503 634 433 624 c 0
 281 602 270 588 212 510 c 0
 195 487 179 452 166 408 c 1
 170 406 l 1
84 169 m 0
 84 255 141 502 378 502 c 0
 459 502 557 465 557 327 c 0
 557 273 540 188 494 116 c 0
 447 42 377 -12 268 -12 c 0
 142 -12 84 62 84 169 c 0
181 129 m 0
 181 58 213 23 271 23 c 0
 408 23 460 291 460 362 c 0
 460 424 438 467 377 467 c 0
 245 467 181 237 181 129 c 0
EndSplineSet
Fore
SplineSet
177 398 m 1
 89 169 l 17
 89 223 103 383 186 553 c 0
 209 601 269 693 428 704 c 0
 536 711 579 715 595 750 c 1
 621 750 l 1
 572 639 518 628 438 619 c 0
 285 602 267 591 213 513 c 0
 197 490 183 444 170 400 c 1
 177 398 l 1
562 327 m 0
 562 214 490 -12 273 -12 c 0
 147 -12 89 62 89 169 c 0
 89 255 159 502 383 502 c 0
 464 502 562 465 562 327 c 0
186 129 m 0
 186 58 218 23 276 23 c 0
 413 23 465 291 465 362 c 0
 465 424 443 467 382 467 c 0
 250 467 186 237 186 129 c 0
EndSplineSet
EndChar

StartChar: afii10020
Encoding: 1043 1043 276
Width: 547
Flags: W
HStem: 0 29<44 100 260 329> 657 35<186 239 364.65 590.471>
VStem: 620 30<521 551.692>
DStem2: 141 80 237 80 0.224951 0.97437<-18.1418 583.66>
LayerCount: 2
Fore
SplineSet
38 0 m 1
 44 29 l 1
 100 34 l 2
 124 36 134 50 141 80 c 2
 261 612 l 2
 268 641 262 655 239 657 c 2
 180 663 l 1
 186 692 l 1
 689 692 l 1
 650 521 l 1
 620 521 l 1
 630 610 624 657 501 657 c 2
 390 657 l 2
 372 657 367 652 361 627 c 2
 237 80 l 2
 230 50 236 36 260 34 c 2
 335 29 l 1
 329 0 l 1
 38 0 l 1
EndSplineSet
EndChar

StartChar: afii10018
Encoding: 1041 1041 277
Width: 633
Flags: W
HStem: 0 35<46 101 249.5 424.613> 364 35<309.752 458.018> 657 35<189 241 366.757 570.471>
VStem: 530 108<130.728 296.893> 600 30<521 551.692>
DStem2: 143 83 243 99 0.224951 0.97437<-7.37592 307.949 335.499 581.9>
LayerCount: 2
Back
SplineSet
40 0 m 1
 46 29 l 1
 101 35 l 2
 125 37 136 51 143 83 c 2
 263 609 l 2
 270 639 264 657 241 659 c 2
 182 663 l 1
 189 692 l 1
 463 692 l 1
 456 663 l 1
 401 658 l 2
 376 656 366 640 359 609 c 2
 307 380 l 1
 338 389 372 390 416 390 c 0
 541 390 633 319 633 217 c 0
 633 160 617 0 340 0 c 2
 40 0 l 1
337 35 m 0
 492 35 525 157 525 212 c 0
 525 290 474 355 386 355 c 0
 358 355 313 348 298 342 c 1
 243 99 l 2
 234 60 238 35 337 35 c 0
EndSplineSet
Fore
SplineSet
40 0 m 1xf0
 46 29 l 1
 101 35 l 2
 125 37 136 51 143 83 c 2
 263 609 l 2
 270 639 264 657 241 659 c 2
 182 663 l 1
 189 692 l 1
 669 692 l 1
 630 521 l 1
 600 521 l 1xe8
 610 610 604 657 481 657 c 2
 393 657 l 2
 375 657 369 652 363 627 c 2
 309 389 l 1
 340 398 374 399 418 399 c 0
 543 399 638 327 638 221 c 0
 638 164 627 0 340 0 c 2
 40 0 l 1xf0
337 35 m 0
 498 35 530 161 530 216 c 0xf0
 530 292 479 364 388 364 c 0
 360 364 315 357 300 351 c 1
 243 99 l 2
 234 60 238 35 337 35 c 0
EndSplineSet
EndChar

StartChar: afii10042
Encoding: 1064 1064 278
Width: 1064
Flags: HW
HStem: 0 35<47 102 239.625 490.835 598.445 849.835 957.625 1032> 663 29<189 242 402 457 548 601 761 816 907 960 1120 1175>
DStem2: 144 83 242 91 0.224951 0.97437<-17.6712 582.677> 504 88 601 91 0.224951 0.97437<-3.11749 556.251> 863 88 960 91 0.224951 0.97437<-22.6406 577.58>
LayerCount: 2
Fore
SplineSet
40 0 m 1
 47 29 l 1
 102 34 l 2
 127 36 137 52 144 83 c 2
 264 609 l 2
 271 640 266 657 242 659 c 2
 183 663 l 1
 189 692 l 1
 463 692 l 1
 457 663 l 1
 402 657 l 2
 378 655 367 641 360 609 c 2
 242 91 l 2
 230 37 243 35 309 35 c 2
 411 35 l 2
 481 35 493 38 504 88 c 2
 623 609 l 2
 625 617 626 625 626 631 c 0
 626 648 619 658 601 659 c 2
 542 663 l 1
 548 692 l 1
 822 692 l 1
 816 663 l 1
 761 657 l 2
 737 655 726 641 719 609 c 2
 601 91 l 2
 598 79 597 70 597 63 c 0
 597 36 616 35 668 35 c 2
 770 35 l 2
 840 35 852 38 863 88 c 2
 982 609 l 2
 989 640 984 657 960 659 c 2
 901 663 l 1
 907 692 l 1
 1181 692 l 1
 1175 663 l 1
 1120 657 l 2
 1096 655 1085 641 1078 609 c 2
 960 91 l 2
 948 37 961 35 1027 35 c 2
 1040 35 l 1
 1032 0 l 1
 40 0 l 1
EndSplineSet
EndChar

StartChar: afii10043
Encoding: 1065 1065 279
Width: 1065
Flags: MW
HStem: -190 20 0 35<47 102 239.625 490.835 598.445 801.243 807 1032> 663 29<189 242 402 457 548 601 761 816 907 960 1120 1175>
VStem: 971 31<-190 -156.489>
DStem2: 144 83 242 91 0.224951 0.97437<-17.6712 582.677> 504 88 601 91 0.224951 0.97437<-3.11749 556.251> 863 88 960 91 0.224951 0.97437<-22.9487 577.58> 1032 0 1049 35 0.198893 0.980021<0 35.8919>
LayerCount: 2
Fore
SplineSet
799 0 m 9
 807 35 l 1
 1049 35 l 1
 1002 -190 l 1
 971 -190 l 1
 975 -155 978 -125 978 -101 c 0
 978 -24 945 0 799 0 c 9
40 0 m 1
 47 29 l 1
 102 34 l 2
 127 36 137 52 144 83 c 2
 264 609 l 2
 271 640 266 657 242 659 c 2
 183 663 l 1
 189 692 l 1
 463 692 l 1
 457 663 l 1
 402 657 l 2
 378 655 367 641 360 609 c 2
 242 91 l 2
 230 37 243 35 309 35 c 2
 411 35 l 2
 481 35 493 38 504 88 c 2
 623 609 l 2
 625 617 626 625 626 631 c 0
 626 648 619 658 601 659 c 2
 542 663 l 1
 548 692 l 1
 822 692 l 1
 816 663 l 1
 761 657 l 2
 737 655 726 641 719 609 c 2
 601 91 l 2
 598 79 597 70 597 63 c 0
 597 36 616 35 668 35 c 2
 770 35 l 2
 840 35 852 38 863 88 c 2
 982 609 l 2
 989 640 984 657 960 659 c 2
 901 663 l 1
 907 692 l 1
 1181 692 l 1
 1175 663 l 1
 1120 657 l 2
 1096 655 1085 641 1078 609 c 2
 960 91 l 2
 948 37 961 35 1027 35 c 2
 1040 35 l 1
 1032 0 l 1
 40 0 l 1
EndSplineSet
EndChar

StartChar: afii10041
Encoding: 1063 1063 281
Width: 727
Flags: HMW
HStem: 0 29<427 482 642 695> 257 62<328.948 466.985> 663 29<183 235 395 440 580 642.333 782 837>
DStem2: 227 483 315 453 0.236669 0.97159<-96.8627 0 0 172.445> 524 83 620 83 0.224951 0.97437<-21.5691 582.387>
LayerCount: 2
Back
SplineSet
176 663 m 1
 183 692 l 1
 447 692 l 1
 440 662 l 1
 395 658 l 2
 370 656 361 640 353 609 c 2
 315 453 l 2
 294 366 316 319 391 319 c 0
 417 319 446 319 493 327 c 0
 523 332 589 368 598 407 c 1
 582 334 l 1
 580 334 l 1
 525 297 435 257 342 257 c 0
 223 257 199 371 227 483 c 2
 257 609 l 2
 264 639 258 657 235 659 c 2
 176 663 l 1
421 0 m 1
 427 29 l 1
 482 35 l 2
 506 37 517 51 524 83 c 2
 644 609 l 2
 651 639 645 658 622 659 c 2
 573 662 l 1
 580 692 l 1
 844 692 l 1
 837 663 l 1
 782 658 l 2
 757 656 747 640 740 609 c 2
 620 83 l 2
 613 52 618 35 642 33 c 2
 701 29 l 1
 695 0 l 1
 421 0 l 1
EndSplineSet
Fore
SplineSet
176 663 m 1
 183 692 l 1
 447 692 l 1
 440 662 l 1
 395 658 l 2
 370 656 361 640 353 609 c 2
 315 453 l 2
 294 366 316 319 391 319 c 0
 417 319 446 319 493 327 c 0
 523 332 589 368 598 407 c 2
 644 609 l 2
 651 639 645 658 622 659 c 2
 573 662 l 1
 580 692 l 1
 844 692 l 1
 837 663 l 1
 782 658 l 2
 757 656 747 640 740 609 c 2
 620 83 l 2
 613 52 618 35 642 33 c 2
 701 29 l 1
 695 0 l 1
 421 0 l 1
 427 29 l 1
 482 35 l 2
 506 37 517 51 524 83 c 2
 582 334 l 1
 580 334 l 1
 525 297 435 257 342 257 c 0
 223 257 199 371 227 483 c 2
 257 609 l 2
 264 639 258 657 235 659 c 2
 176 663 l 1
EndSplineSet
EndChar

StartChar: afii10089
Encoding: 1095 1095 282
Width: 585
VWidth: 0
Flags: HMW
HStem: -12 52<413 508.283> 150 52<208 330.526> 450 52<119 307>
LayerCount: 2
Back
SplineSet
86 450 m 1
 92 474 l 1xdc
 274 502 l 1
 279 497 l 1xac
 183 128 l 2
 168 70 176 40 208 40 c 0
 291 40 378 173 422 274 c 0
 448 335 464 388 493 490 c 1x9c
 582 502 l 1x9c
 475 94 l 2
 467 63 467 40 488 40 c 0
 516 40 560 112 580 146 c 1
 604 131 l 1
 569 57 509 -12 437 -12 c 0
 384 -12 372 29 391 96 c 2
 424 210 l 1
 422 210 l 1
 362 94 257 -12 161 -12 c 0
 81 -12 73 53 94 133 c 2
 163 397 l 2
 171 428 172 443 148 445 c 2
 86 450 l 1
EndSplineSet
Fore
SplineSet
439 272 m 1
 437 272 l 1
 373 196 327 150 247 150 c 0
 169 150 155 246 175 316 c 2
 198 397 l 2
 206 428 207 443 183 445 c 2
 119 450 l 1
 125 474 l 1
 307 502 l 1
 312 497 l 1
 259 290 l 2
 243 232 249 202 289 202 c 0
 337 202 400 242 450 350 c 0
 467 387 492 490 492 490 c 1
 581 502 l 1
 475 95 l 2
 466 63 468 40 488 40 c 0
 516 40 560 111 578 146 c 1
 602 132 l 1
 568 56 512 -12 440 -12 c 0
 386 -12 369 29 386 86 c 2
 439 272 l 1
EndSplineSet
EndChar

StartChar: cyrbreve
Encoding: 63188 63188 285
Width: 618
Flags: HMW
HStem: 568 35<386.742 483.46> 721 20G<336 377>
VStem: 305 101<658.935 727.841>
LayerCount: 2
Back
SplineSet
400.613 579.047 m 0
 330.136 604.699 292.389 658.876 309.832 706.8 c 0
 321.119 737.811 366.572 745.742 389.126 737.534 c 0
 406.04 731.377 410.393 717.022 406.115 699.425 c 0
 391.232 640.99 405.066 614.673 435.136 603.728 c 0
305 653 m 0
 305 689 311 741 361 741 c 0
 393 741 406 726 406 705 c 0
 406 674 378 665 378 637 c 0
 378 617 407 603 434 603 c 0
 482 603 536 651 576 748 c 1
 602 737 l 1
 576 659 529 568 418 568 c 0
 341 568 305 623 305 653 c 0
EndSplineSet
Fore
SplineSet
305 673 m 0
 305 703 316 741 366 741 c 0
 396 741 406 724 406 706 c 0
 406 686 399 682 399 659 c 0
 399 621 413 603 450 603 c 0
 489 603 527 645 576 748 c 1
 602 737 l 1
 581 669 537 568 433 568 c 0
 346 568 305 643 305 673 c 0
EndSplineSet
EndChar

StartChar: afii10069
Encoding: 1076 1076 286
Width: 550
Flags: W
HStem: -12 35<213.049 322.01> 467 35<315.737 425.219> 707 35<306.609 435.53>
VStem: 84 97<68.4159 266.644> 498 68<413.967 627.095>
LayerCount: 2
Back
SplineSet
557 327 m 0
 557 214.138 484.834 -12 268 -12 c 0
 142 -12 84 62 84 169 c 0
 84 255 141 502 378 502 c 0
 459 502 557 465 557 327 c 0
181 129 m 0
 181 58 213 23 271 23 c 0
 408 23 460 291 460 362 c 0
 460 424 438 467 377 467 c 0
 245 467 181 237 181 129 c 0
EndSplineSet
Fore
SplineSet
84 169 m 0
 84 255 143 502 364 502 c 0
 445 502 480 453 484 411 c 9
 488 412 l 17
 498 443 498 491 498 534 c 0
 498 650 451 707 373 707 c 0
 334 707 272 689 220 602 c 9
 197 619 l 17
 255 718 316 742 370 742 c 0
 495 742 566 662 566 491 c 0
 566 412 548 224 490 129 c 0
 439 46 370 -12 264 -12 c 0
 138 -12 84 62 84 169 c 0
181 129 m 0
 181 58 209 23 267 23 c 0
 404 23 456 291 456 362 c 0
 456 424 434 467 373 467 c 0
 241 467 181 237 181 129 c 0
EndSplineSet
EndChar

StartChar: cyrBreve
Encoding: 63185 63185 287
Width: 781
Flags: MW
HStem: 748 35<490.124 625.728>
VStem: 408 104<815.297 907.134>
LayerCount: 2
Back
SplineSet
530 749 m 4
 451 749 408 801 408 841 c 4
 408 897 428 937 470 937 c 4
 502 937 519 919 519 893 c 4
 519 865 495 838 495 818 c 4
 495 800 502 784 528 784 c 4
EndSplineSet
Fore
SplineSet
408 835 m 0
 408 869 418 920 459 920 c 0
 489 920 512 904 512 882 c 0
 512 848 496 842 496 814 c 0
 496 785 525 783 547 783 c 0
 624 783 666 815 741 911 c 1
 764 893 l 1
 698 800 648 748 539 748 c 0
 454 748 408 798 408 835 c 0
EndSplineSet
EndChar

StartChar: .notdef
Encoding: 0 0 288
Width: 608
VWidth: 2048
Flags: W
HStem: 0 43<233 535> 649 43<233 534>
VStem: 170 43<93 600> 555 43<93 600>
DStem2: 233 649 213 600 0.500485 -0.865745<32.4118 300.667 374.255 642.51> 213 93 233 43 0.500485 0.865745<0 268.255 341.844 610.099>
LayerCount: 2
Fore
SplineSet
170 0 m 5
 170 692 l 5
 598 692 l 5
 598 0 l 5
 170 0 l 5
213 93 m 5
 360 346 l 5
 213 600 l 5
 213 93 l 5
233 43 m 5
 535 43 l 5
 384 304 l 5
 233 43 l 5
233 649 m 5
 384 389 l 5
 534 649 l 5
 233 649 l 5
408 346 m 5
 555 93 l 5
 555 600 l 5
 408 346 l 5
EndSplineSet
EndChar

StartChar: afii10029
Encoding: 1051 1051 289
Width: 746
VWidth: 0
Flags: HMW
HStem: -12 35<109.091 185.291> 0 29<445 500 660 713> 657 35<363 415 478 575 582 662.375 800 855>
VStem: 40 109<69.165 153.17>
LayerCount: 2
Back
SplineSet
171.605 -76.0508 m 0
 94.5508 -48.0059 16.7461 45.2285 43.082 117.584 c 0
 56.4209 154.232 77.1074 193.527 128.791 174.716 c 0
 159.8 163.429 167.566 135.062 160.384 115.328 c 0
 148.755 83.3789 134.999 77.7441 125.422 51.4326 c 0
 112.084 14.7852 145.049 -29.1396 194.853 -47.2656 c 0
689.681 657 m 1
 476.681 657 l 1
 484.761 692 l 1
 697.761 692 l 1
 689.681 657 l 1
727 0 m 1
 448 0 l 1
 454.695 29 l 1
 544.08 35 546.542 37 559.471 93 c 2
 676.982 602 l 2
 688.988 654 679.681 657 609.681 657 c 1
 617.761 692 l 1
 886.761 692 l 1
 880.065 663 l 1
 790.681 657 788.219 655 775.29 599 c 2
 658.471 93 l 2
 645.542 37 647.08 35 733.695 29 c 1
 727 0 l 1
138.31 23 m 0
 227.31 23 336.486 249 417.29 599 c 0
 430.219 655 428.681 657 342.065 663 c 1
 348.761 692 l 1
 564.761 692 l 1
 556.681 657 l 1
 486.681 657 475.988 654 463.982 602 c 0
 376.253 222 246.229 -12 140.229 -12 c 0
EndSplineSet
Fore
SplineSet
40 84 m 0xb0
 40 113 52 174 105 174 c 0
 131 174 149 159 149 136 c 0
 149 95 124 83 124 50 c 0
 124 36 129 23 145 23 c 0
 225 23 360 257 437 609 c 0
 442 631 438 657 415 659 c 2
 356 663 l 1
 363 692 l 1
 582 692 l 1
 575 657 l 1
 505 657 493 654 482 604 c 0
 394 224 259 -12 147 -12 c 0
 72 -12 40 39 40 84 c 0xb0
862 692 m 1
 855 663 l 1
 800 658 l 2
 775 656 765 640 758 609 c 2
 638 83 l 2
 631 52 636 35 660 33 c 2
 719 29 l 1
 713 0 l 1
 439 0 l 1
 445 29 l 1x70
 500 35 l 2
 524 37 535 51 542 83 c 2
 660 601 l 2
 672 655 659 657 593 657 c 2
 470 657 l 1
 478 692 l 1
 862 692 l 1
EndSplineSet
EndChar

StartChar: afii10021
Encoding: 1044 1044 290
Width: 708
VWidth: 0
Flags: W
HStem: 0 35<64 262 270 437.643 442 676> 657 35<327 379 442 539 546 626.375 764 819>
VStem: 606 31<-190 -156.489>
LayerCount: 2
Back
SplineSet
4 72 m 0
 4 110 5 170 67 170 c 0
 87 170 101 154 101 136 c 0
 101 88 70 92 70 54 c 0
 70 35 84 23 109 23 c 0
 189 23 324 257 401 609 c 0
 406 631 402 657 379 659 c 2
 320 663 l 1
 327 692 l 1
 546 692 l 1
 539 657 l 1
 469 657 457 654 446 604 c 0
 358 224 223 -12 111 -12 c 0
 36 -12 4 27 4 72 c 0
826 692 m 1
 819 663 l 1
 764 658 l 2
 739 656 729 640 722 609 c 2
 602 83 l 2
 595 52 600 35 624 33 c 2
 683 29 l 1
 677 0 l 1
 403 0 l 1
 409 29 l 1
 464 35 l 2
 488 37 499 51 506 83 c 2
 624 601 l 2
 636 655 623 657 557 657 c 2
 434 657 l 1
 442 692 l 1
 826 692 l 1
4 72 m 0
 4 110 5 170 67 170 c 0
 87 170 101 154 101 136 c 0
 101 88 70 92 70 54 c 0
 70 35 84 23 109 23 c 0
 189 23 324 257 401 609 c 0
 406 631 402 657 379 659 c 2
 320 663 l 1
 327 692 l 1
 546 692 l 1
 539 657 l 1
 469 657 457 654 446 604 c 0
 358 224 223 -12 111 -12 c 0
 36 -12 4 27 4 72 c 0
826 692 m 1
 819 663 l 1
 764 658 l 2
 739 656 729 640 722 609 c 2
 602 83 l 2
 595 52 600 35 624 33 c 2
 683 29 l 1
 677 0 l 1
 403 0 l 1
 409 29 l 1
 464 35 l 2
 488 37 499 51 506 83 c 2
 624 601 l 2
 636 655 623 657 557 657 c 2
 434 657 l 1
 442 692 l 1
 826 692 l 1
EndSplineSet
Fore
SplineSet
241 35 m 9
 48 0 l 1
 46 35 l 1
 126 35 319 235 401 609 c 0
 406 631 402 657 379 659 c 2
 320 663 l 1
 327 692 l 1
 546 692 l 1
 539 657 l 1
 469 657 457 654 446 604 c 0
 390 361 288 182 193 84 c 0
 150 43 175 35 241 35 c 9
262 0 m 17
 64 0 55 -46 1 -190 c 1
 -30 -190 l 1
 28 35 l 1
 270 35 l 1
 262 0 l 17
434 0 m 9
 442 35 l 1
 684 35 l 1
 637 -190 l 1
 606 -190 l 1
 610 -155 613 -125 613 -101 c 0
 613 -24 580 0 434 0 c 9
92 35 m 9
 414 35 l 2
 484 35 496 38 507 88 c 2
 624 601 l 2
 636 655 623 657 557 657 c 2
 434 657 l 1
 442 692 l 1
 826 692 l 1
 819 663 l 1
 764 658 l 2
 739 656 729 640 722 609 c 2
 604 91 l 2
 592 37 605 35 671 35 c 2
 684 35 l 1
 676 0 l 1
 93 0 l 1
 92 35 l 9
EndSplineSet
EndChar

StartChar: afii10044
Encoding: 1066 1066 291
Width: 761
Flags: HW
HStem: 0 35<180 235 383.5 555.844> 355 35<441.752 590.494> 657 35<245.557 397.375 535 590>
VStem: 142 31<528 559.889> 659 108<127.994 291.247>
LayerCount: 2
Fore
SplineSet
142 528 m 1
 178 692 l 1
 597 692 l 1
 590 663 l 1
 535 658 l 2
 510 656 500 640 493 609 c 2
 441 380 l 1
 472 389 506 390 550 390 c 0
 675 390 767 319 767 217 c 0
 767 160 751 0 474 0 c 2
 174 0 l 1
 180 29 l 1
 235 35 l 2
 259 37 270 51 277 83 c 2
 395 601 l 18
 407 655 394 657 328 657 c 2
 326 657 l 2
 268 657 214 653 173 528 c 1
 142 528 l 1
471 35 m 0
 626 35 659 157 659 212 c 0
 659 290 608 355 520 355 c 0
 492 355 447 348 432 342 c 1
 377 99 l 2
 368 60 372 35 471 35 c 0
EndSplineSet
EndChar

StartChar: afii10072
Encoding: 1078 1078 292
Width: 982
Flags: MW
HStem: -12 49<776.982 870.363> -12 35<145.385 220.717> 235 35<404 686> 453 49<215.637 309.018> 467 35<865.283 940.615>
VStem: 50 90<26.356 108.005> 328 92<208.374 429.193> 666 92<60.8075 259.184> 946 90<381.995 463.644>
DStem2: 437 -12 529 0 0.232494 0.972598<33.0606 516.143>
LayerCount: 2
Back
SplineSet
318 148 m 0
 318 312 430 502 578 502 c 0
 639 502 693 464 693 413 c 0
 693 380 653 357 629 357 c 0
 611 357 602 369 600 387 c 0
 595 447 581 467 559 467 c 0
 492 467 410 298 410 168 c 0
 410 96 423 37 474 37 c 0
 528 37 587 105 621 151 c 1
 645 132 l 1
 576 17 491 -12 439 -12 c 0
 390 -12 318 26 318 148 c 0
77 235 m 1
 85 270 l 1
 335 270 l 1
 327 235 l 1
 77 235 l 1
218 490 m 25
 310 502 l 1
 190 0 l 1
 98 -12 l 1
 218 490 l 25
EndSplineSet
Fore
SplineSet
420 328 m 0x7780
 420 172 308 -12 160 -12 c 0
 101 -12 50 26 50 64 c 0
 50 98 76 120 111 120 c 0
 129 120 140 103 140 85 c 0
 140 46 140 23 179 23 c 0
 256 23 328 192 328 322 c 0
 328 406 319 453 264 453 c 0
 210 453 151 385 117 339 c 1
 93 358 l 1
 162 473 247 502 299 502 c 0
 348 502 420 450 420 328 c 0x7780
666 162 m 0
 666 318 778 502 926 502 c 0
 985 502 1036 464 1036 426 c 0
 1036 392 1010 370 975 370 c 0
 957 370 946 387 946 405 c 0
 946 444 946 467 907 467 c 0
 830 467 758 298 758 168 c 0
 758 84 767 37 822 37 c 0
 876 37 935 105 969 151 c 1
 993 132 l 1
 924 17 839 -12 787 -12 c 0xaf80
 738 -12 666 40 666 162 c 0
396 235 m 1
 404 270 l 1
 694 270 l 1
 686 235 l 1
 396 235 l 1
557 490 m 25
 649 502 l 1
 529 0 l 1
 437 -12 l 1x6f80
 557 490 l 25
EndSplineSet
EndChar

StartChar: afii10028
Encoding: 1050 1050 293
Width: 714
Flags: MW
HStem: -15 35<615.014 678> 0 29<46 101 261 314> 341 39<306 391.029> 663 29<189 241 401 456> 672 35<636.934 689.684>
VStem: 479 100<50.6107 261.929> 676 102<556.916 653.786>
DStem2: 123.838 0 219.838 0 0.224951 0.97437<63.6142 667.57>
LayerCount: 2
Back
SplineSet
688 707 m 0
 767 707 810 655 810 615 c 0
 810 559 790 519 748 519 c 0
 716 519 699 537 699 563 c 0
 699 591 723 618 723 638 c 0
 723 656 716 672 690 672 c 0
721 640 m 0
 725 659 727 672 696 672 c 0
 667 672 619 618 585 548 c 0
 530 437 494 388 436 371 c 1
 435 368 l 17
 523 354 599 274 597 171 c 0
 593 51 626 20 696 20 c 1
 688 -15 l 1
 630 -15 l 18
 530 -15 484 7 487 122 c 0
 493 290 461 341 346 341 c 2
 297 341 l 1
 306 380 l 1
 332 380 l 2
 447 380 491 453 532 537 c 0
 581 636 645 707 705 707 c 0
 810 707 807 636 797 591 c 0
40 0 m 1
 46 29 l 1
 101 35 l 2
 125 37 136 51 143 83 c 2
 263 609 l 2
 270 639 264 657 241 659 c 2
 182 663 l 1
 189 692 l 1
 463 692 l 1
 456 663 l 1
 401 658 l 2
 376 656 366 640 359 609 c 2
 239 83 l 2
 232 52 237 35 261 33 c 2
 320 29 l 1
 314 0 l 1
 40 0 l 1
EndSplineSet
Fore
SplineSet
676 583 m 0xae
 676 609 690 629 690 655 c 0
 690 666 680 672 667 672 c 0
 642 672 599 619 567 548 c 0
 518 438 460 386 413 371 c 1
 412 368 l 17
 504 366 579 274 579 171 c 0
 579 63 592 20 686 20 c 1
 678 -15 l 1
 622 -15 l 18
 526 -15 481 24 479 122 c 0
 477 248 482 341 346 341 c 2
 297 341 l 1
 306 380 l 1
 324 380 l 2
 394 380 474 452 514 537 c 0
 563 640 608 707 672 707 c 0
 750 707 778 662 778 618 c 0
 778 573 761 546 722 546 c 0
 695 546 676 563 676 583 c 0xae
40 0 m 1x76
 46 29 l 1
 101 35 l 2
 125 37 136 51 143 83 c 2
 263 609 l 2
 270 639 264 657 241 659 c 2
 182 663 l 1
 189 692 l 1
 463 692 l 1
 456 663 l 1
 401 658 l 2
 376 656 366 640 359 609 c 2
 239 83 l 2
 232 52 237 35 261 33 c 2
 320 29 l 1
 314 0 l 1
 40 0 l 1x76
EndSplineSet
EndChar

StartChar: afii10095
Encoding: 1101 1101 294
Width: 451
Flags: MW
HStem: -12 35<159.778 252.395> 238 35<178 178> 467 35<222.353 340.767>
VStem: 52 91<48.0098 169.375> 373 98<221.373 425.662>
LayerCount: 2
Back
SplineSet
233.066 -11.4678 m 0
 117.226 -17.5391 55.9551 43.3379 52.1348 116.237 c 0
 50.46 148.193 67.916 178.148 102.868 179.98 c 0
 128.832 181.341 141.601 166.989 142.596 148.016 c 0
 143.224 136.032 141.854 123.943 142.378 113.957 c 0
 145.151 61.0303 168.32 20.1865 237.227 23.7979 c 0
1 169 m 0
 1 255 58 502 295 502 c 0
 376 502 474 465 474 327 c 0
 474 273 457 188 411 116 c 0
 364 42 294 -12 185 -12 c 0
 59 -12 1 62 1 169 c 0
98 129 m 0
 98 58 130 23 188 23 c 0
 325 23 377 291 377 362 c 0
 377 424 355 467 294 467 c 0
 162 467 98 237 98 129 c 0
EndSplineSet
Fore
SplineSet
170 238 m 1
 178 273 l 1
 366 273 l 1
 358 238 l 1
 170 238 l 1
52 115 m 0
 52 151 69 180 107 180 c 0
 132 180 143 165 143 140 c 0
 143 69 143 23 205 23 c 0
 324 23 373 282 373 360 c 0
 373 438 340 467 281 467 c 0
 228 467 183 428 140 367 c 1
 115 386 l 1
 157 451 208 502 293 502 c 0
 414 502 471 440 471 328 c 0
 471 223 403 -12 205 -12 c 0
 101 -12 52 54 52 115 c 0
EndSplineSet
EndChar

StartChar: afii10073
Encoding: 1079 1079 295
Width: 447
VWidth: 0
Flags: HMW
HStem: -12 35<150.424 281.337> 251 35<209 315.545> 467 35<229.633 348.826>
VStem: 54 92<60.1191 174.949> 348 97<81.6033 219.876> 376 94<331.392 445.434>
LayerCount: 2
Back
SplineSet
134 72 m 0
 134 44 163 23 214 23 c 0
 298 23 348 86 348 155 c 0xf8
 348 210 320 251 264 251 c 2
 201 251 l 25
 209 286 l 25
 268 286 l 2
 361 286 376 353 376 397 c 0
 376 442 336 467 297 467 c 0
 234 467 186 430 140 367 c 1
 115 386 l 1
 160 456 216 502 314 502 c 0xf4
 396 502 470 472 470 385 c 0xf4
 470 344 439 300 345 276 c 1
 345 273 l 1
 411 255 445 206 445 149 c 0
 445 52 344 -12 208 -12 c 0
 103 -12 53 50 53 102 c 0
154.984 4.74316 m 0
 68.8848 44.8916 41.0146 115.264 59.1875 154.235 c 0
 70.5977 178.704 101.946 193.877 129.137 181.198 c 0
 144.543 174.014 148.052 160.241 145.46 140.486 c 0
 137.562 85.6895 157.993 41.957 191.526 26.3203 c 0
EndSplineSet
Fore
SplineSet
54 125 m 0xf8
 54 157 73 186 108 186 c 0
 134 186 146 171 146 152 c 0
 146 140 144 128 144 118 c 0
 144 65 165 23 234 23 c 0
 302 23 348 94 348 155 c 0xf8
 348 210 320 251 264 251 c 2
 201 251 l 25
 209 286 l 25
 268 286 l 2
 361 286 376 353 376 397 c 0
 376 442 336 467 297 467 c 0
 234 467 186 430 140 367 c 1
 115 386 l 1
 160 456 216 502 314 502 c 0
 396 502 470 472 470 385 c 0xf4
 470 344 439 300 345 276 c 1
 345 273 l 1
 411 255 445 206 445 149 c 0
 445 59 349 -12 228 -12 c 0
 112 -12 54 52 54 125 c 0xf8
EndSplineSet
EndChar

StartChar: afii10088
Encoding: 1094 1094 296
Width: 618
Flags: HMW
HStem: -215 25<436.04 456.763> -12 52<169.639 278.807 467.041 543.596> 450 24<132 177.5> 482 20G<184 319 533 616.755>
VStem: 512 66<-158.622 -25.5375>
DStem2: 53.6579 -215 143.812 -215 0.224951 0.97437<296.842 672.737> 359.2 -215 443.662 -215 0.224951 0.97437<286.264 437.232 478.847 726.027>
LayerCount: 2
Fore
SplineSet
512 -74 m 0
 512 -30 550 -20 550 4 c 0
 550 11 545 9 540 6 c 1
 596 55 l 1
 577 17 569 -3 569 -24 c 0
 569 -57 578 -77 578 -113 c 0
 578 -168 520 -194 438 -215 c 1
 431 -190 l 1
 498 -164 514 -143 514 -112 c 0
 514 -101 512 -86 512 -74 c 0
126 450 m 1
 132 474 l 1
 314 502 l 1
 319 497 l 1
 223 128 l 2
 208 70 216 40 248 40 c 0
 331 40 418 173 462 274 c 0
 488 335 504 388 533 490 c 1
 622 502 l 1
 515 94 l 2
 507 63 507 40 528 40 c 0
 556 40 600 112 620 146 c 1
 644 131 l 1
 609 57 549 -12 477 -12 c 0
 424 -12 412 29 431 96 c 2
 464 210 l 1
 462 210 l 1
 402 94 297 -12 201 -12 c 0
 121 -12 113 53 134 133 c 2
 203 397 l 2
 211 428 212 443 188 445 c 2
 126 450 l 1
EndSplineSet
EndChar

StartChar: afii10037
Encoding: 1059 1059 297
Width: 672
Flags: W
HStem: -12 35<184.256 269.653> 663 29<137 170 339 382 584 626 737.156 799>
VStem: 94 87<29.0745 137.1>
DStem2: 348 432 219 572 0.229385 -0.973336<-189.848 225.833> 323 89 373 88 0.533628 0.845719<-73.8075 13.884 145.113 623.434>
LayerCount: 2
Back
SplineSet
249.688 -67.5664 m 0
 169.479 -50.5176 79.457 30.9814 95.4658 106.297 c 0
 103.575 144.445 118.591 186.237 172.39 174.802 c 0
 204.667 167.94 216.307 140.93 211.94 120.389 c 0
 204.87 87.1328 192.033 79.6377 186.211 52.25 c 0
 178.104 14.1025 216.86 -24.8076 268.701 -35.8252 c 0
204 663 m 1
 209 692 l 1
 459 692 l 1
 454 663 l 1
 390 657 l 2
 372 655 371 643 373 624 c 0
 381 541 391 454 403 366 c 2
 438 100 l 1
 440 100 l 1
 583 349 l 2
 667 495 715 582 736 627 c 0
 747 650 742 656 724 658 c 2
 669 663 l 1
 674 692 l 1
 894 692 l 1
 889 663 l 1
 836 659 820 653 798 619 c 0
 758 557 697 456 632 345 c 2
 429 0 l 1
 360 0 l 1
 318 320 l 2
 305 420 293 519 281 611 c 0
 276 647 267 655 244 658 c 2
 204 663 l 1
EndSplineSet
Fore
SplineSet
94 80 m 4
 94 136 114 176 156 176 c 4
 188 176 205 158 205 132 c 4
 205 104 181 77 181 57 c 4
 181 39 188 23 214 23 c 4
 246 23 299 48 323 89 c 10
 330 101 l 1
 219 572 l 18
 204 636 206 657 170 659 c 2
 130 663 l 1
 137 692 l 1
 389 692 l 1
 382 663 l 1
 339 658 l 2
 324 657 313 648 313 620 c 0
 313 595 324 535 348 432 c 10
 399 212 l 1
 400 212 l 1
 546 440 l 18
 592 512 653 626 653 644 c 0
 653 654 643 656 626 658 c 2
 578 663 l 1
 584 692 l 1
 805 692 l 1
 799 663 l 1
 744 654 734 659 703 611 c 10
 373 88 l 18
 312 -7 239 -12 216 -12 c 4
 137 -12 94 40 94 80 c 4
EndSplineSet
EndChar

StartChar: afii10038
Encoding: 1060 1060 298
Width: 851
Flags: MW
HStem: 0 29<299 354 514 567> 123 38<509 636.779> 545 38<373.887 501 605 711.68> 667 29<442 494 654 709>
VStem: 119 105<228.483 411.832> 787 105<294.168 477.517>
DStem2: 376.838 0 472.838 0 0.224951 0.97437<63.6142 671.467>
CounterMasks: 1 f0
LayerCount: 2
Back
SplineSet
216.496 353 m 0
 187.638 228 255.17 161 410.17 161 c 9
 401.396 123 l 17
 121.396 123 79.9463 238 106.496 353 c 0
 133.046 468 227.596 583 507.596 583 c 9
 498.823 545 l 17
 343.823 545 245.355 478 216.496 353 c 0
791.496 353 m 0
 820.355 478 752.823 545 597.823 545 c 9
 606.596 583 l 17
 886.596 583 928.046 468 901.496 353 c 0
 874.946 238 780.396 123 500.396 123 c 9
 509.17 161 l 17
 664.17 161 762.638 228 791.496 353 c 0
283 0 m 1
 289.695 29 l 1
 379.08 35 381.542 37 394.471 93 c 2
 512.214 603 l 2
 525.143 659 523.604 661 436.989 667 c 1
 443.685 696 l 1
 722.685 696 l 1
 715.989 667 l 1
 626.604 661 624.143 659 611.214 603 c 2
 493.471 93 l 2
 480.542 37 482.08 35 568.695 29 c 1
 562 0 l 1
 283 0 l 1
EndSplineSet
Fore
SplineSet
501 545 m 17
 263 545 224 402 224 299 c 0
 224 204 280 161 414 161 c 9
 406 123 l 17
 168 123 119 232 119 313 c 0
 119 420 179 583 510 583 c 9
 501 545 l 17
509 161 m 17
 747 161 787 304 787 407 c 0
 787 502 731 545 596 545 c 9
 605 583 l 17
 843 583 892 474 892 393 c 0
 892 286 831 123 501 123 c 9
 509 161 l 17
293 0 m 1
 299 29 l 1
 354 35 l 2
 378 37 389 51 396 83 c 2
 516 613 l 2
 523 643 517 661 494 663 c 2
 435 667 l 1
 442 696 l 1
 716 696 l 1
 709 667 l 1
 654 662 l 2
 629 660 619 644 612 613 c 2
 492 83 l 2
 485 52 490 35 514 33 c 2
 573 29 l 1
 567 0 l 1
 293 0 l 1
EndSplineSet
EndChar

StartChar: afii10047
Encoding: 1069 1069 299
Width: 603
Flags: HMW
HStem: -15 35<199.082 338.592> 345 38<243 243> 672 35<298.089 432.951>
VStem: 61 111<89.8474 192.902> 149 32<496 526.513> 534 105<300.632 527.989>
LayerCount: 2
Back
SplineSet
-35 270 m 0
 -35 336 -21 430 34 523 c 0
 92 619 191 707 351 707 c 0
 516 707 640 619 640 414 c 0
 640 375 631 273 577 175 c 0
 522 76 435 -15 258 -15 c 0
 59 -15 -35 105 -35 270 c 0
70 230 m 0
 70 91 141 20 249 20 c 0
 379 20 447 113 488 220 c 0
 529 326 535 409 535 466 c 0
 535 607 465 672 355 672 c 0
 249 672 178 599 132 504 c 0
 86 407 70 314 70 230 c 0
EndSplineSet
Fore
SplineSet
243 383 m 1xe4
 535 383 l 1
 527 345 l 1
 235 345 l 1
 243 383 l 1xe4
61 122 m 0xf4
 61 184 83 206 121 206 c 0
 152 206 172 189 172 158 c 0xf4
 172 130 162 107 162 89 c 0
 162 56 196 20 267 20 c 0
 448 20 534 300 534 451 c 0
 534 567 459 672 379 672 c 0
 305 672 237 645 181 496 c 1
 149 496 l 1xec
 188 666 l 1
 238 687 287 707 379 707 c 0
 526 707 639 565 639 421 c 0
 639 338 612 200 529 105 c 0
 468 35 399 -15 255 -15 c 0
 194 -15 61 30 61 122 c 0xf4
EndSplineSet
EndChar

StartChar: afii10025
Encoding: 1047 1047 300
Width: 576
Flags: HMW
HStem: -15 35<189.873 343.286> 349 38<252 393.796> 496 21G<150 210> 673 34<288.449 449.553>
VStem: 62 111<89.5244 184.716> 150 32<496 526.395> 464 107<128.85 286.336> 511 100<479.852 618.969>
LayerCount: 2
Back
SplineSet
243 383 m 1
 535 383 l 1
 527 345 l 1
 235 345 l 1
 243 383 l 1
61 122 m 0
 61 184 83 206 121 206 c 0
 152 206 172 189 172 158 c 0
 172 130 162 107 162 89 c 0
 162 56 196 20 267 20 c 0
 448 20 534 300 534 451 c 0
 534 567 459 672 379 672 c 0
 305 672 237 645 181 496 c 1
 149 496 l 1
 188 666 l 1
 238 687 287 707 379 707 c 0
 526 707 639 565 639 421 c 0
 639 338 612 200 529 105 c 0
 468 35 399 -15 255 -15 c 0
 194 -15 61 30 61 122 c 0
EndSplineSet
Fore
SplineSet
62 123 m 0xfa
 62 162 68 206 123 206 c 0
 156 206 173 182 173 161 c 0
 173 127 162 117 162 89 c 0
 162 50 208 20 261 20 c 0
 373 20 464 104 464 216 c 0xfa
 464 303 401 349 303 349 c 2
 244 349 l 1
 252 387 l 1
 305 387 l 2
 413 387 511 446 511 566 c 0
 511 637 444 673 377 673 c 0
 281 673 238 645 182 496 c 1
 150 496 l 1
 188 661 l 1
 237 686 298 707 376 707 c 0
 496 707 611 656 611 547 c 0xf5
 611 484 581 398 424 373 c 1
 423 370 l 1
 504 353 571 297 571 206 c 0
 571 136 525 -15 249 -15 c 0
 167 -15 62 46 62 123 c 0xfa
EndSplineSet
EndChar

StartChar: afii10024
Encoding: 1046 1046 301
Width: 1054
Flags: HMW
HStem: -15 35<44 113.867 958.539 1019> 0 29<400 455 615 668> 341 39<491.971 555 660 733.463> 663 29<543 595 755 810> 672 35<320.743 374.706 978.482 1030.69>
VStem: 225 102<557.34 641.296> 392 46<443.534 661.187> 823 100<49.7953 261.929> 1018 102<556.338 653.562>
DStem2: 497 83 593 83 0.224951 0.97437<-21.5691 582.387>
LayerCount: 2
Back
SplineSet
314 707 m 0
 236 707 208 662 208 618 c 0
 208 573 225 546 264 546 c 0
 291 546 310 563 310 583 c 0
 310 609 296 629 296 655 c 0
 296 666 306 672 319 672 c 0
997 707 m 0
 1075 707 1103 662 1103 618 c 0
 1103 573 1086 546 1047 546 c 0
 1020 546 1001 563 1001 583 c 0
 1001 609 1015 629 1015 655 c 0
 1015 666 1005 672 992 672 c 0
EndSplineSet
Fore
SplineSet
36 -15 m 1xaf80
 44 20 l 1
 134 20 157 66 204 171 c 0
 264 306 354 355 470 368 c 9
 471 371 l 1
 402 403 392 529 392 555 c 0
 392 626 380 672 348 672 c 0
 320 672 318 662 318 646 c 0
 318 630 327 608 327 592 c 0
 327 571 319 546 275 546 c 0
 237 546 225 579 225 613 c 0
 225 645 240 707 344 707 c 0
 425 707 438 634 438 537 c 0
 438 453 474 380 555 380 c 2
 565 380 l 1
 556 341 l 1
 512 341 l 2
 403 341 348 250 292 122 c 0
 249 24 188 -15 92 -15 c 10
 36 -15 l 1xaf80
651 341 m 1
 660 380 l 1
 670 380 l 2
 733 380 818 452 858 537 c 0
 907 640 949 707 1013 707 c 0
 1091 707 1120 663 1120 619 c 0
 1120 574 1107 546 1061 546 c 0
 1039 546 1018 562 1018 582 c 0
 1018 614 1031 624 1031 655 c 0
 1031 666 1021 672 1008 672 c 0
 983 672 943 619 911 548 c 0
 862 438 801 386 757 371 c 1
 756 368 l 17
 846 366 923 274 923 171 c 0
 923 63 933 20 1027 20 c 1
 1019 -15 l 1
 963 -15 l 18
 867 -15 825 24 823 122 c 0
 821 248 816 341 695 341 c 2
 651 341 l 1
394 0 m 1x7780
 400 29 l 1
 455 35 l 2
 479 37 490 51 497 83 c 2
 617 609 l 2
 624 639 618 657 595 659 c 2
 536 663 l 1
 543 692 l 1
 817 692 l 1
 810 663 l 1
 755 658 l 2
 730 656 720 640 713 609 c 2
 593 83 l 2
 586 52 591 35 615 33 c 2
 674 29 l 1
 668 0 l 1
 394 0 l 1x7780
EndSplineSet
EndChar

StartChar: afii10049
Encoding: 1071 1071 302
Width: 731
Flags: HW
HStem: -15 35<44 113.918> 0 29<431 486 646 699> 304 35<426.763 512 512 577.553> 657 35<458.769 651.305 786 841>
VStem: 256 105<409.014 575.201>
DStem2: 528 83 624 83 0.224951 0.97437<-21.5691 226.583 261.449 578.779>
LayerCount: 2
Back
SplineSet
384 341 m 2
 275 341 220 250 164 122 c 0
 121 24 60 -15 -36 -15 c 10
 -92 -15 l 1
 -84 20 l 1
 6 20 29 66 76 171 c 0
 136 306 226 355 342 368 c 9
 343 371 l 1
233 479 m 0
 233 396 290 339 361 339 c 2
 384 339 l 2
 443 339 458 341 467 378 c 2
 523 620 l 2
 529 648 520 657 455 657 c 2
 433 657 l 2
 278 657 233 580 233 479 c 0
297 0 m 1
 303 29 l 1
 358 35 l 2
 382 37 393 51 400 83 c 2
 520 609 l 2
 527 639 521 657 498 659 c 2
 439 663 l 1
 446 692 l 1
 720 692 l 1
 713 663 l 1
 658 658 l 2
 633 656 623 640 616 609 c 2
 496 83 l 2
 489 52 494 35 518 33 c 2
 577 29 l 1
 571 0 l 1
 297 0 l 1
EndSplineSet
Fore
SplineSet
256 500 m 0x78
 256 595 346 692 557 692 c 2
 848 692 l 1
 841 663 l 1
 786 658 l 2
 761 656 751 640 744 609 c 2
 624 83 l 2
 617 52 622 35 646 33 c 2
 705 29 l 1
 699 0 l 1
 425 0 l 1
 431 29 l 1
 486 35 l 2
 510 37 521 51 528 83 c 2
 578 304 l 1
 501 304 l 2
 460 304 404 308 373 324 c 0
 313 354 256 400 256 500 c 0x78
36 -15 m 1xb8
 44 20 l 1
 134 20 158 66 204 171 c 0
 253 283 309 299 380 318 c 9
 380 321 l 1
 512 304 l 17
 402 304 345 252 292 122 c 0
 252 24 188 -15 92 -15 c 10
 36 -15 l 1xb8
361 479 m 0
 361 396 418 339 489 339 c 10
 512 339 l 2
 571 339 586 341 595 378 c 2
 651 620 l 2
 657 648 648 657 583 657 c 2
 561 657 l 2
 406 657 361 580 361 479 c 0
EndSplineSet
EndChar

StartChar: afii10092
Encoding: 1098 1098 303
Width: 638
Flags: HMW
HStem: -12 35<348.088 462.797> 279 35<404.032 517.32> 437 65<175.503 298.133>
VStem: 224 94<54.4069 218.764> 549 97<103.065 251.988>
LayerCount: 2
Back
SplineSet
327 185 m 1
 345 249 l 1
 347 249 l 1
 381 288 422 314 479 314 c 0
 587 314 646 268 646 177 c 0
 646 90 555 -12 380 -12 c 0
 249 -12 209 96 238 190 c 2
 301 397 l 2
 310 428 310 443 286 445 c 2
 224 450 l 1
 230 474 l 1
 412 502 l 1
 417 497 l 1
 327 185 l 2
 312 127 302 23 406 23 c 0
 446 23 549 62 549 194 c 0
 549 243 516 279 458 279 c 0
 417 279 358 251 327 185 c 1
EndSplineSet
Fore
SplineSet
413 444 m 17
 408 444 406 444 399 444 c 1
 378 435 351 413 317 413 c 0
 289 413 224 437 193 437 c 0
 172 437 118 384 91 342 c 1
 68 360 l 1
 135 463 189 502 241 502 c 0
 300 502 325 471 381 471 c 0
 424 471 453 486 481 502 c 1
 413 444 l 17
481 502 m 1
 507 485 l 1
 450 431 391 373 358 303 c 0
 342 270 323 178 323 178 c 2
 318 159 318 142 318 118 c 0
 318 70 336 23 406 23 c 0
 446 23 549 62 549 194 c 0
 549 243 516 279 458 279 c 0
 415 279 352 249 323 178 c 1
 328 249 l 1
 342 249 l 1
 376 288 422 314 479 314 c 0
 587 314 646 268 646 177 c 0
 646 90 555 -12 380 -12 c 0
 280 -12 224 56 224 127 c 0
 224 174 246 229 278 281 c 0
 356 408 427 458 481 502 c 1
EndSplineSet
EndChar

StartChar: afii10091
Encoding: 1097 1097 304
Width: 919
Flags: HMW
HStem: -12 52<170.743 287.29 476.37 586.617 768.041 846.821> 450 52<126 314>
VStem: 813 66<-158.622 -25.5375>
DStem2: 134 133 217 110 0.254862 0.966977<-56.8294 316.138> 445 137 521 124 0.255752 0.966742<-61.5676 66.0198 123.422 364.022> 732 96 816 94 0.244772 0.969581<-30.1639 108.18 160.798 406.492>
LayerCount: 2
Fore
SplineSet
813 -74 m 0
 813 -30 851 -20 851 4 c 0
 851 11 846 9 841 6 c 1
 897 55 l 1
 878 17 870 -3 870 -24 c 0
 870 -57 879 -77 879 -113 c 0
 879 -168 821 -194 739 -215 c 1
 732 -190 l 1
 799 -164 815 -143 815 -112 c 0
 815 -101 813 -86 813 -74 c 0
126 450 m 1
 132 474 l 1
 314 502 l 1
 319 497 l 1
 217 110 l 2
 206 67 218 40 251 40 c 0
 335 40 426 184 463 269 c 0
 489 330 505 388 534 490 c 1
 621 502 l 1
 521 124 l 2
 505 62 521 40 551 40 c 0
 634 40 732 190 766 277 c 0
 787 330 803 388 832 490 c 1
 919 502 l 1
 816 94 l 2
 808 63 808 40 829 40 c 0
 857 40 901 112 921 146 c 1
 945 131 l 1
 910 57 850 -12 778 -12 c 0
 725 -12 713 29 732 96 c 2
 762 200 l 1
 759 200 l 1
 690 74 597 -12 505 -12 c 0
 435 -12 415 41 445 137 c 2
 465 200 l 1
 461 200 l 1
 389 71 298 -12 208 -12 c 0
 125 -12 113 53 134 133 c 2
 203 397 l 2
 211 428 212 443 188 445 c 2
 126 450 l 1
EndSplineSet
EndChar

StartChar: afii10086
Encoding: 1092 1092 305
Width: 752
Flags: W
HStem: -242 35<210.563 271.361> -12 35<198.616 277.954 458.731 557.582> 467 35<298.418 397.269 578.046 657.384> 707 35<586.639 647.437>
VStem: 84 97<61.1249 279.527> 121 76<-199.203 -120.579> 421 16<433.688 450> 661 76<620.579 699.203> 675 97<210.473 428.875>
DStem2: 273.828 -242 357.518 -242 0.224951 0.97437<82.8116 945.781>
LayerCount: 2
Back
SplineSet
84 159 m 0
 84 330 197 502 346 502 c 0
 391 502 414 490 434 456 c 1
 436 456 l 1
 416 374 l 1
 412 451 388 467 349 467 c 0
 243 467 181 264 181 131 c 0
 181 70 186 23 239 23 c 0
 287 23 355 116 373 187 c 9
 347 70 l 1
 345 70 l 1
 320 19 259 -12 216 -12 c 0
 141 -12 84 58 84 159 c 0
772 331 m 0
 772 160 659 -12 510 -12 c 0
 465 -12 442 0 422 34 c 1
 420 34 l 1
 440 116 l 1
 444 39 468 23 507 23 c 0
 613 23 675 226 675 359 c 0
 675 420 670 467 617 467 c 0
 569 467 501 374 483 303 c 9
 509 420 l 1
 511 420 l 1
 536 471 597 502 640 502 c 0
 715 502 772 432 772 331 c 0
317 -55 m 10
 452 532 l 18
 473 624 508 742 636 742 c 0
 696 742 737 694 737 660 c 0
 737 628 720 616 688 616 c 0
 676 616 663 627 661 639 c 0
 654 695 642 707 612 707 c 0
 584 707 566 664 541 555 c 2
 406 -32 l 18
 385 -124 350 -242 222 -242 c 0
 162 -242 121 -194 121 -160 c 0
 121 -128 138 -116 170 -116 c 0
 182 -116 195 -127 197 -139 c 0
 204 -195 216 -207 246 -207 c 0
 274 -207 292 -164 317 -55 c 10
EndSplineSet
Fore
SplineSet
84 159 m 0xfa
 84 330 197 502 346 502 c 0
 386 502 412 496 435 463 c 1
 437 463 l 1
 421 396 l 1
 410 450 388 467 349 467 c 0
 243 467 181 264 181 131 c 0
 181 70 186 23 239 23 c 0
 287 23 355 116 373 187 c 9
 347 70 l 1
 345 70 l 1
 320 19 259 -12 216 -12 c 0
 141 -12 84 58 84 159 c 0xfa
421 396 m 1
 437 463 l 1
 437 463 443 491 444 497 c 2
 452 532 l 2
 473 623 508 742 636 742 c 0
 696 742 737 694 737 660 c 0
 737 628 720 616 688 616 c 0
 676 616 663 627 661 639 c 0
 654 695 642 707 612 707 c 0
 584 707 566 664 541 555 c 2
 524 481 l 2
 518 455 509 420 509 420 c 1
 483 303 l 1
 435 94 l 1
 419 27 l 1
 419 27 413 -1 412 -7 c 2
 406 -32 l 2
 385 -123 350 -242 222 -242 c 0
 162 -242 121 -194 121 -160 c 0
 121 -128 138 -116 170 -116 c 0
 182 -116 195 -127 197 -139 c 0xf7
 204 -195 216 -207 246 -207 c 0
 274 -207 292 -164 317 -55 c 2
 332 9 l 2
 338 35 347 70 347 70 c 1
 373 187 l 1
 421 396 l 1
772 331 m 0xf280
 772 160 659 -12 510 -12 c 0
 470 -12 444 -6 421 27 c 1
 419 27 l 1
 435 94 l 1
 446 40 468 23 507 23 c 0
 613 23 675 226 675 359 c 0
 675 420 670 467 617 467 c 0
 569 467 501 374 483 303 c 9
 509 420 l 1
 511 420 l 1
 536 471 597 502 640 502 c 0
 715 502 772 432 772 331 c 0xf280
EndSplineSet
EndChar

StartChar: afii10067
Encoding: 1074 1074 306
Width: 485
Flags: W
HStem: -12 42<210.063 336.612> 467 35<295.875 395.363>
VStem: 80 98<70.0266 210 242 290.219> 387 97<80.8108 217.178> 414 82<343.407 451.765>
LayerCount: 2
Back
SplineSet
80 152 m 0
 80 236 110 323 163 388 c 0
 218 456 292 502 382 502 c 0
 464 502 506 455 506 402 c 0
 506 374 499 341 464 306 c 0
 421 266 348 226 180 192 c 1
 179 185 179 181 179 176 c 0
 179 97 200 37 270 37 c 0
 345 37 399 104 435 151 c 1
 458 131 l 1
 390 20 302 -12 229 -12 c 0
 171 -12 80 12 80 152 c 0
182 226 m 1
 351 262 412 338 412 408 c 0
 412 443 389 467 354 467 c 0
 274 467 199 347 182 226 c 1
EndSplineSet
Fore
SplineSet
182 242 m 1xe8
 351 282 414 327 414 408 c 0
 414 443 384 467 349 467 c 0
 265 467 199 358 182 242 c 1xe8
80 169 m 0
 80 333 200 502 377 502 c 0
 457 502 496 450 496 416 c 0xe8
 496 369 491 359 457 323 c 0
 440 305 411 283 361 270 c 1
 361 268 l 1
 420 263 484 232 484 149 c 0xf0
 484 57 382 -12 249 -12 c 0
 175 -12 80 22 80 169 c 0
178 182 m 0
 178 104 184 30 270 30 c 0
 327 30 387 68 387 157 c 0xf0
 387 203 357 240 319 240 c 0
 303 240 254 231 230 224 c 2
 180 210 l 1
 180 202 178 189 178 182 c 0
EndSplineSet
EndChar

StartChar: afii10076
Encoding: 1082 1082 307
Width: 582
Flags: MW
HStem: -12 52<417.5 506.887> 235 36<320.152 427.5> 441 61<451.632 546>
VStem: 389 86<80.1576 232.653>
DStem2: 98 -12 190 0 0.232855 0.972511<33.0928 54.6798 220.5 239.745 243.402 463.288>
LayerCount: 2
Back
SplineSet
542 402 m 0
 542 427 554 426 554 451 c 0
 554 461 549 467 536 467 c 0
 515 467 472 426 456 390 c 0
 421 310 375 260 349 254 c 1
 348 252 l 17
 437 241 485 185 485 121 c 0
 485 88 485 40 515 40 c 0
 543 40 587 111 605 146 c 1
 629 132 l 1
 595 56 539 -12 467 -12 c 0
 413 -12 390 25 389 86 c 0
 388 190 381 228 276 228 c 2
 238 228 l 1
 244 263 l 1
 261 263 l 2
 346 263 381 322 409 382 c 0
 436 442 488 502 548 502 c 0
 606 502 630 464 630 431 c 0
 630 400 627 371 580 371 c 0
 557 371 542 381 542 402 c 0
98 -12 m 1
 195 395 l 2
 204 434 205 442 175 445 c 2
 120 451 l 1
 126 474 l 1
 304 502 l 1
 309 497 l 1
 190 0 l 1
 98 -12 l 1
EndSplineSet
Fore
SplineSet
520 502 m 0
 572 502 597 485 597 453 c 0
 597 428 576 395 548 395 c 0
 512 395 512 441 482 441 c 0
 458 441 438 428 424 414 c 0
 370 360 328 290 302 246 c 1
 302 243 l 17
 334 264 361 271 395 271 c 0
 460 271 475 236 475 188 c 0
 475 144 459 104 459 85 c 0
 459 61 464 40 487 40 c 0
 515 40 557 111 575 146 c 1
 599 132 l 1
 565 56 511 -12 439 -12 c 0
 396 -12 377 35 377 73 c 0
 377 103 389 137 389 180 c 0
 389 211 385 235 355 235 c 0
 335 235 258 195 233 148 c 0
 220 124 195 21 195 21 c 1
 218 186 l 1
 237 205 l 1
 241 205 l 1
 262 228 l 1
 281 280 343 379 395 433 c 0
 449 489 489 502 520 502 c 0
98 -12 m 1
 195 395 l 2
 204 434 205 442 175 445 c 2
 120 451 l 1
 126 474 l 1
 304 502 l 1
 309 497 l 1
 237 205 l 1
 238 201 l 1
 190 0 l 1
 98 -12 l 1
EndSplineSet
EndChar

StartChar: afii10097
Encoding: 1103 1103 308
Width: 573
VWidth: 0
Flags: MW
HStem: -12 52<401 496.283> 214 35<321.772 409> 455 35<311.931 465.334>
VStem: 22 103<43 62> 150 98<287.337 405.345>
DStem2: 376 86 466 95 0.224951 0.97437<-21.0132 132.143 168.27 373.658>
LayerCount: 2
Fore
SplineSet
22 43 m 0
 22 67 39 93 65 93 c 0
 99 93 99 62 125 62 c 0
 145 62 157 75 184 129 c 0
 212 184 237 202 284 220 c 1
 285 226 l 1
 222 234 150 281 150 343 c 0
 150 428 240 490 387 490 c 2
 566 490 l 1
 466 95 l 2
 458 63 456 40 476 40 c 0
 504 40 548 111 566 146 c 1
 590 132 l 1
 556 56 500 -12 428 -12 c 0
 374 -12 361 29 376 86 c 2
 409 214 l 1
 386 214 l 2
 313 214 271 163 229 78 c 0
 197 13 154 -12 86 -12 c 0
 46 -12 22 14 22 43 c 0
248 333 m 0
 248 285 277 249 350 249 c 2
 418 249 l 1
 465 432 l 2
 469 446 459 455 445 455 c 2
 420 455 l 2
 313 455 248 427 248 333 c 0
EndSplineSet
EndChar

StartChar: afii10077
Encoding: 1083 1083 309
Width: 552
VWidth: 0
Flags: MW
HStem: -12 52<380 475.283> 455 35<343.849 443.132> 470 20<221 256.6>
VStem: 17 108<43 62>
DStem2: 355 86 445 95 0.224951 0.97437<-21.0132 373.654>
LayerCount: 2
Back
SplineSet
213 470 m 1
 218 490 l 1
 555 490 l 1
 547 455 l 1
 301 455 l 1
 213 470 l 1
385 86 m 2
 489 490 l 1
 578 502 l 1
 475 95 l 2
 466 63 465 40 485 40 c 0
 513 40 557 111 575 146 c 1
 599 132 l 1
 565 56 509 -12 437 -12 c 0
 383 -12 370 29 385 86 c 2
301 455 m 9
 338 455 l 17
 313.297 348 304 283 265 192 c 0
 236.461 125.408 176 -12 86 -12 c 0
 46 -12 22 14 22 43 c 0
 22 67 39 93 65 93 c 0
 99 93 99 62 125 62 c 0
 157 62 205.35 147.451 229 203 c 0
 272 304 276.066 347 301 455 c 9
EndSplineSet
Fore
SplineSet
17 43 m 0xd0
 17 71 36 96 65 96 c 0
 99 96 99 62 125 62 c 0
 165 62 208 147 232 203 c 0
 271 294 297 425 297 425 c 2
 303 450 288 457 274 460 c 2
 216 470 l 1
 221 490 l 1
 545 490 l 1xb0
 445 95 l 2
 437 63 435 40 455 40 c 0
 483 40 527 111 545 146 c 1
 569 132 l 1
 535 56 479 -12 407 -12 c 0
 353 -12 340 29 355 86 c 2
 442 424 l 2
 448 450 433 455 417 455 c 2
 382 455 l 2
 347 455 336 434 326 392 c 8
 283.552 213.719 230 -12 86 -12 c 0
 46 -12 17 14 17 43 c 0xd0
EndSplineSet
EndChar

StartChar: afii10078
Encoding: 1084 1084 310
Width: 750
VWidth: 0
Flags: W
HStem: -12 74<59.4907 151.837> -12 52<578 673.283> 0 21G<339.673 401.792> 470 20<195 230.6>
DStem2: 389 490 312 437 0.0662159 -0.997805<47.7851 373.038> 420 118 390 0 0.507908 0.861412<0 375.332> 530.375 -12 618.297 -12 0.224951 0.97437<79.5646 449.486> 541.341 -12 629.104 -12 0.224951 0.97437<75.594 447.469>
LayerCount: 2
Back
SplineSet
20 43 m 0
 20 68 38 93 65 93 c 0
 97 93 99 62 125 62 c 0
 200 62 244 316 271 425 c 0
 276 445 262 457 248 460 c 2
 190 470 l 1
 195 490 l 1
 389 490 l 1
 416 102 l 1
 419 102 l 1
 643 490 l 1
 753 490 l 1
 651 95 l 2
 643 63 641 40 661 40 c 0
 689 40 733 111 751 146 c 1
 775 132 l 1
 741 56 685 -12 613 -12 c 0
 559 -12 546 29 561 86 c 2
 650 424 l 17
 648 424 l 1
 398 0 l 1
 341 0 l 1
 312 437 l 1
 310 437 l 17
 258 198 220 -12 86 -12 c 0
 46 -12 20 14 20 43 c 0
EndSplineSet
Fore
SplineSet
20 43 m 0x90
 20 68 38 93 65 93 c 0
 97 93 99 62 125 62 c 0x90
 200 62 244 316 271 425 c 0
 276 445 262 457 248 460 c 2
 190 470 l 1
 195 490 l 1
 389 490 l 1
 417 118 l 1
 420 118 l 1
 635 490 l 1
 745 490 l 1
 643 95 l 2
 635 63 633 40 653 40 c 0
 681 40 725 111 743 146 c 1
 767 132 l 1
 733 56 677 -12 605 -12 c 0x50
 551 -12 538 29 553 86 c 2
 642 424 l 17
 640 424 l 1
 390 0 l 1
 341 0 l 1x30
 312 437 l 1
 310 437 l 17
 258 198 220 -12 86 -12 c 0
 46 -12 20 14 20 43 c 0x90
EndSplineSet
EndChar

StartChar: afii10194
Encoding: 1123 1123 311
Width: 835
Flags: W
HStem: -12 35<546.068 659.797> 279 35<603.797 714.32> 450 52<435.633 547> 450 24<132 177.25>
VStem: 746 97<103.065 251.988>
DStem2: 435 190 524 185 0.327479 0.944858<-62.4161 249.945>
LayerCount: 2
Fore
SplineSet
126 450 m 1xd8
 132 474 l 1xd8
 313 502 l 1
 318 497 l 1
 251 274 l 1
 254 274 l 1
 323 400 417 502 512 502 c 0
 582 502 604 449 574 353 c 2
 524 185 l 2
 506 125 499 23 603 23 c 0
 643 23 746 62 746 194 c 0
 746 243 713 279 655 279 c 0
 614 279 555 251 524 185 c 1
 542 249 l 1
 545 249 l 1
 579 288 619 314 676 314 c 0
 784 314 843 268 843 177 c 0
 843 90 752 -12 577 -12 c 0
 446 -12 402 96 435 190 c 2
 496 366 l 18
 512 428 496 450 466 450 c 0xe8
 383 450 285 280 241 173 c 0
 219 119 214 102 185 0 c 1
 98 -12 l 1
 201 397 l 2
 209 429 211 443 187 445 c 2
 126 450 l 1xd8
EndSplineSet
EndChar

StartChar: afii10146
Encoding: 1122 1122 312
Width: 771
Flags: W
HStem: 0 35<190 245 393.5 565.844> 355 35<451.752 600.494> 572 35<223.849 389.306 503.279 658.803> 663 29<333 385 545 600>
VStem: 125 28<453 480.641> 407 96<607 650.657> 669 108<127.994 291.247> 682 28<453 482.944>
DStem2: 287 83 387 99 0.224951 0.97437<-7.37593 298.73 326.28 492.086>
LayerCount: 2
Fore
SplineSet
125 453 m 1xfe
 164 607 l 1
 407 607 l 1
 407 610 424 656 385 659 c 2
 326 663 l 1
 333 692 l 1
 607 692 l 1
 600 663 l 1
 545 658 l 2
 507 655 503 608 503 607 c 1
 746 607 l 1
 710 453 l 1
 682 453 l 1xfd
 691 551 665 572 575 572 c 0
 505 572 494 569 482 517 c 2
 451 380 l 1
 482 389 516 390 560 390 c 0
 685 390 777 319 777 217 c 0
 777 160 761 0 484 0 c 2
 184 0 l 1
 190 29 l 1
 245 35 l 2
 269 37 280 51 287 83 c 2
 386 517 l 2
 398 569 389 572 319 572 c 0
 229 572 191 554 153 453 c 1
 125 453 l 1xfe
481 35 m 0
 636 35 669 157 669 212 c 0xfe
 669 290 618 355 530 355 c 0
 502 355 457 348 442 342 c 1
 387 99 l 2
 378 60 382 35 481 35 c 0
EndSplineSet
EndChar

StartChar: uni2116
Encoding: 8470 8470 313
Width: 1131
Flags: MW
HStem: -12 35<133.233 196.139> 0 35<793 1041> 107 32<909.337 986.092> 361 32<955.908 1032.66> 663 29<285 337> 672 35<882.861 945.767>
VStem: 47 106<57.2923 152.906> 833 66<145.201 293.998> 926 106<542.094 637.708> 1043 66<206.002 354.799>
DStem2: 218.669 0 265.824 0 0.224951 0.97437<49.715 617.093> 465 692 405 591 0.385613 -0.922661<70.052 577.384> 654.292 0 702 0 0.224951 0.97437<163.182 678.065>
LayerCount: 2
Back
SplineSet
153 -12 m 0
 78 -12 46 39 46 84 c 0
 46 113 58 174 111 174 c 0
 137 174 155 159 155 136 c 0
 155 95 130 83 130 50 c 0
 130 36 135 23 151 23 c 0
784 0 m 25
 916 564 l 25
1040 0 m 25
 1172 564 l 25
839 208 m 0
 839 256 871 393 1002 393 c 0
 1048 393 1102 372 1102 296 c 0
 1102 266 1093 218 1067 178 c 0
 1041 137 1002 107 941 107 c 0
 871 107 839 148 839 208 c 0
893 185 m 0
 893 146 911 126 943 126 c 0
 1019 126 1048 276 1048 315 c 0
 1048 350 1036 374 1002 374 c 0
 928 374 893 246 893 185 c 0
802 -118 m 1
 457 709 l 1
651 0 m 1
 404 591 l 1
134 0 m 1
 139 29 l 1
 170 32 l 2
 200 35 217 43 229 75 c 0
 241 108 252 146 264 199 c 2
 358 609 l 2
 366 642 359 655 336 657 c 2
 277 663 l 1
 284 692 l 1
 474 692 l 1
 558 505 594 318 680 131 c 1
 684 131 l 1
 766 493 l 2
 778 546 784 584 787 617 c 0
 790 650 773 655 741 659 c 2
 702 663 l 1
 707 692 l 1
 943 692 l 1
 938 663 l 1
 907 660 l 2
 877 657 860 649 848 617 c 0
 836 584 825 546 813 493 c 2
 701 0 l 1
 636 0 l 1
 544 203 502 406 408 609 c 1
 405 609 l 1
 311 199 l 2
 299 146 293 108 290 75 c 0
 287 44 304 35 336 32 c 2
 375 29 l 1
 370 0 l 1
 134 0 l 1
EndSplineSet
Fore
SplineSet
47 72 m 0
 47 126 64 174 115 174 c 0
 142 174 153 158 153 140 c 0
 153 84 131 84 131 56 c 0
 131 32 134 23 154 23 c 0
 224 23 248 126 272 231 c 2
 359 609 l 2
 367 642 360 655 337 657 c 2
 278 663 l 1
 285 692 l 1
 465 692 l 1
 687 159 l 1
 691 159 l 1
 761 469 l 2
 785 575 816 707 918 707 c 0
 993 707 1032 662 1032 623 c 0
 1032 569 1015 521 964 521 c 0
 937 521 926 537 926 555 c 0
 926 611 948 611 948 639 c 0
 948 663 945 672 925 672 c 0
 855 672 831 569 807 464 c 2
 702 0 l 1
 652 0 l 1
 405 591 l 1
 402 591 l 1
 318 226 l 2
 294 120 263 -12 161 -12 c 0
 86 -12 47 33 47 72 c 0
833 204 m 0
 833 297 892 393 999 393 c 0
 1068 393 1109 359 1109 296 c 0
 1109 203 1050 107 943 107 c 0
 874 107 833 141 833 204 c 0
899 192 m 0
 899 157 914 139 949 139 c 0
 1021 139 1043 268 1043 308 c 0
 1043 343 1028 361 993 361 c 0
 921 361 899 232 899 192 c 0
785 0 m 1
 793 35 l 1
 1049 35 l 1
 1041 0 l 1
 785 0 l 1
EndSplineSet
EndChar

StartChar: afii10195
Encoding: 1139 1139 314
Width: 537
Flags: W
HStem: -12 35<242 322.5> 235 35<187 451> 467 35<311 407.5>
VStem: 84 97<115.5 183 93.5 212> 460 97<326.5 393>
LayerCount: 2
Fore
SplineSet
179 235 m 1
 187 270 l 1
 459 270 l 1
 451 235 l 1
 179 235 l 1
EndSplineSet
Refer: 79 111 N 1 0 0 1 0 0 2
EndChar

StartChar: afii10147
Encoding: 1138 1138 315
Width: 753
Flags: W
HStem: -15 35<344 463 344 495.5> 341 38<234 674> 672 35<451 559>
VStem: 114 105<187.5 272 160.5 303> 684 105<437.5 516.5 394.5 536.5>
LayerCount: 2
Fore
SplineSet
234 379 m 1
 682 379 l 1
 674 341 l 1
 226 341 l 1
 234 379 l 1
EndSplineSet
Refer: 47 79 N 1 0 0 1 0 0 2
EndChar

StartChar: afii10101
Encoding: 1108 1108 316
Width: 431
Flags: W
HStem: -12 49<210.316 322.312> 238 35<193 373> 467 35<298.688 385.779>
VStem: 81 99<67.5246 274.225> 407 93<374.039 450.42>
LayerCount: 2
Back
SplineSet
81 148 m 0
 81 312 193 502 371 502 c 0
 446 502 500 464 500 413 c 0
 500 380 460 357 436 357 c 0
 418 357 409 369 407 387 c 0
 401 447 379 467 347 467 c 0
 255 467 180 298 180 168 c 0
 180 97 195 37 268 37 c 0
 335 37 394 108 428 154 c 1
 452 135 l 1
 383 20 298 -12 224 -12 c 0
 154 -12 81 26 81 148 c 0
EndSplineSet
Fore
SplineSet
185 238 m 1
 193 273 l 1
 381 273 l 1
 373 238 l 1
 185 238 l 1
81 148 m 0
 81 312 193 502 371 502 c 0
 446 502 500 464 500 413 c 0
 500 380 460 357 436 357 c 0
 418 357 409 369 407 387 c 0
 401 447 379 467 347 467 c 0
 255 467 180 298 180 168 c 0
 180 97 195 37 268 37 c 0
 332 37 384 99 421 144 c 1
 445 126 l 1
 372 14 294 -12 224 -12 c 0
 154 -12 81 26 81 148 c 0
EndSplineSet
EndChar

StartChar: afii10053
Encoding: 1028 1028 317
Width: 661
Flags: W
HStem: -15 35<334.194 515.189> 345 38<234 539> 672 35<435.279 622.93>
VStem: 114 107<154.532 407.061> 642 33<151.133 174> 692 30<504 533.167>
LayerCount: 2
Back
SplineSet
114 275 m 4
 114 344 127 436 182 525 c 4
 240 619 349 707 537 707 c 4
 607 707 701 690 758 654 c 5
 722 504 l 5
 692 504 l 5
 697 613 654 672 529 672 c 4
 422 672 343 614 293 530 c 4
 245 450 221 339 221 249 c 4
 221 95 304 20 420 20 c 4
 543 20 594 86 649 186 c 5
 679 186 l 5
 630 27 l 5
 566 -5 498 -15 427 -15 c 4
 179 -15 114 143 114 275 c 4
EndSplineSet
Fore
SplineSet
234 383 m 1
 547 383 l 1
 539 345 l 1
 226 345 l 1
 234 383 l 1
529 672 m 0
 307 672 221 427 221 249 c 0
 221 95 304 20 420 20 c 0
 536 20 585 75 642 174 c 1
 675 174 l 1
 630 27 l 1
 566 -5 498 -15 427 -15 c 0
 179 -15 114 143 114 275 c 0
 114 494 248 707 537 707 c 0
 607 707 701 690 758 654 c 1
 722 504 l 1
 692 504 l 1
 697 613 654 672 529 672 c 0
EndSplineSet
EndChar

StartChar: afii10193
Encoding: 1119 1119 320
Width: 618
Flags: HMW
HStem: -215 25<216.04 236.763> -12 52<232 249> 450 52<126 314>
VStem: 124 92 294 64<-158.345 -63.0445> 423 88
DStem2: 134 133 223 128 0.251781 0.967784<-57.0164 316.163> 431 96 515 94 0.253676 0.967289<-30.1552 118.642 159.182 406.987>
LayerCount: 2
Back
SplineSet
292 -74 m 0
 292 -30 330 -20 330 4 c 0
 330 11 325 9 320 6 c 1
 376 55 l 1
 357 17 349 -3 349 -24 c 0
 349 -57 358 -77 358 -113 c 0
 358 -168 300 -194 218 -215 c 1
 211 -190 l 1
 278 -164 294 -143 294 -112 c 0
 294 -101 292 -86 292 -74 c 0
EndSplineSet
Refer: 85 117 N 1 0 0 1 0 0 2
Fore
SplineSet
211 -190 m 1
 278 -164 294 -144 294 -116 c 0
 294 -105 292 -90 292 -78 c 0
 292 -39 326 0 353 25 c 1
 370 4 l 1
 352 -20 350 -25 350 -46 c 0
 350 -79 358 -81 358 -117 c 0
 358 -169 300 -194 218 -215 c 1
 211 -190 l 1
EndSplineSet
Refer: 85 117 N 1 0 0 1 0 0 2
EndChar

StartChar: ghe.ital
Encoding: 63172 63172 321
Width: 461
VWidth: 0
Flags: MW
HStem: -12 21G<110.771 198> 455 35<308.482 466.688>
VStem: 488 29<337 367.6>
DStem2: 106 -12 198 0 0.224951 0.97437<32.3879 477.044>
LayerCount: 2
Back
SplineSet
32 0 m 1
 39 29 l 1
 112 34 115 36 127 87 c 2
 200 403 l 2
 212 454 209 456 138 461 c 1
 145 490 l 1
 552 490 l 1
 518 342 l 1
 489 342 l 1
 497 434 489 455 381 455 c 0
 305 452 305 451 293 400 c 2
 221 87 l 2
 209 36 212 34 283 29 c 1
 276 0 l 1
 32 0 l 1
EndSplineSet
Fore
SplineSet
106 -12 m 1
 210 424 l 18
 216 449 202 458 188 460 c 2
 130 470 l 1
 135 490 l 1
 552 490 l 1
 517 337 l 1
 488 337 l 1
 499 424 483 455 381 455 c 0
 322 455 306 453 294 402 c 2
 198 0 l 1
 106 -12 l 1
EndSplineSet
EndChar

StartChar: afii10145
Encoding: 1039 1039 326
Width: 766
Flags: W
HStem: 0 35<47 102 169 605 681 733> 663 29<189 242 402 457 608 661 821 876>
VStem: 333 32<-190 -134.75>
DStem2: 144 83 242 91 0.224951 0.97437<-17.6712 582.677> 564 88 659 83 0.224951 0.97437<-26.0218 577.58>
LayerCount: 2
Fore
SplineSet
882 692 m 1
 876 663 l 1
 821 657 l 2
 797 655 786 641 779 609 c 2
 659 83 l 2
 652 53 658 35 681 33 c 2
 740 29 l 1
 733 0 l 1
 40 0 l 1
 47 29 l 1
 102 34 l 2
 127 36 137 52 144 83 c 2
 264 609 l 2
 271 640 266 657 242 659 c 2
 183 663 l 1
 189 692 l 1
 463 692 l 1
 457 663 l 1
 402 657 l 2
 378 655 367 641 360 609 c 2
 242 91 l 2
 230 37 243 35 309 35 c 2
 471 35 l 2
 541 35 553 38 564 88 c 2
 683 609 l 2
 690 640 685 657 661 659 c 2
 602 663 l 1
 608 692 l 1
 882 692 l 1
605 0 m 1
 428 0 408 -26 365 -190 c 1
 333 -190 l 1
 337 -155 340 -125 340 -101 c 0
 340 -24 307 0 161 0 c 1
 169 35 l 1
 610 35 l 1
 605 0 l 1
EndSplineSet
EndChar

StartChar: afii10060
Encoding: 1035 1035 327
Width: 836
Flags: HW
HStem: 0 29<139 204 374 440 552 597 757 809> 373 62<525.015 663.052> 657 35<243.081 382 478 651.686>
VStem: 137 30<525 555.763> 675 30<525 555.763>
DStem2: 252 81 348 81 0.224951 0.97437<-18.8128 590.481> 639 83 735 83 0.224951 0.97437<-21.3735 252.728>
LayerCount: 2
Fore
SplineSet
816 29 m 1
 809 0 l 1
 545 0 l 1
 552 30 l 1
 597 34 l 2
 622 36 631 52 639 83 c 2
 677 239 l 2
 698 326 676 373 601 373 c 0
 575 373 546 373 499 365 c 0
 469 360 403 324 394 285 c 1
 410 358 l 1
 412 358 l 1
 467 395 557 435 650 435 c 0
 769 435 793 321 765 209 c 2
 735 83 l 2
 728 53 734 35 757 33 c 2
 816 29 l 1
137 525 m 1
 175 692 l 1
 743 692 l 1
 705 525 l 1
 675 525 l 1
 684 615 685 657 561 657 c 2
 478 657 l 1
 410 358 l 1
 394 285 l 1
 348 81 l 2
 341 50 346 35 374 33 c 2
 447 29 l 1
 440 0 l 1
 132 0 l 1
 139 29 l 1
 204 33 l 2
 234 35 245 50 252 81 c 2
 382 657 l 1
 333 657 l 2
 235 657 199 627 167 525 c 1
 137 525 l 1
EndSplineSet
EndChar

StartChar: afii10051
Encoding: 1026 1026 328
Width: 775
Flags: HMW
HStem: -12 35<512.279 598.649> 0 29<139 204> 373 62<527.408 647.135> 525 167<675 705> 657 35<243.081 382 478 651.686>
VStem: 137 30<525 555.763> 437 105<55.3904 153.408> 675 30<525 555.763> 678 105<125.912 341.817>
DStem2: 252 81 330 0 0.224951 0.97437<-51.7485 590.481>
LayerCount: 2
Back
SplineSet
543 -12 m 0
 468 -12 436 39 436 84 c 0
 436 113 448 174 501 174 c 0
 527 174 545 159 545 136 c 0
 545 95 520 83 520 50 c 0
 520 36 525 23 541 23 c 0
816 29 m 1
 809 0 l 1
 545 0 l 1
 552 30 l 1
 597 34 l 2
 622 36 631 52 639 83 c 2
 677 239 l 2
 698 326 676 373 601 373 c 0
 575 373 546 373 499 365 c 0
 469 360 403 324 394 285 c 1
 410 358 l 1
 412 358 l 1
 467 395 557 435 650 435 c 0
 769 435 793 321 765 209 c 2
 735 83 l 2
 728 53 734 35 757 33 c 2
 816 29 l 1
137 525 m 1
 175 692 l 1
 743 692 l 1
 705 525 l 1
 675 525 l 1
 684 615 685 657 561 657 c 2
 478 657 l 1
 348 81 l 2
 341 50 346 35 374 33 c 2
 447 29 l 1
 440 0 l 1
 132 0 l 1
 139 29 l 1
 204 33 l 2
 234 35 245 50 252 81 c 2
 382 657 l 1
 333 657 l 2
 235 657 199 627 167 525 c 1
 137 525 l 1
EndSplineSet
Fore
SplineSet
783 241 m 0
 783 65 666 -12 541 -12 c 0
 472 -12 437 35 437 84 c 0
 437 131 457 171 496 171 c 0
 523 171 542 152 542 134 c 0
 542 92 521 84 521 54 c 0
 521 38 522 23 549 23 c 0
 659 23 678 230 678 256 c 0
 678 315 661 373 589 373 c 0
 570 373 514 372 480 359 c 0
 454 349 409 325 395 289 c 1
 400 351 l 1
 410 358 l 1
 412 358 l 1
 466 396 551 435 612 435 c 0
 754 435 783 320 783 241 c 0
137 525 m 1
 175 692 l 1
 743 692 l 1
 705 525 l 1
 675 525 l 1
 684 615 685 657 561 657 c 2
 478 657 l 1
 410 358 l 1
 406 347 l 1
 395 289 l 1
 330 0 l 1
 132 0 l 1
 139 29 l 1
 204 33 l 2
 234 35 245 50 252 81 c 2
 382 657 l 1
 333 657 l 2
 235 657 199 627 167 525 c 1
 137 525 l 1
EndSplineSet
EndChar

StartChar: afii10059
Encoding: 1034 1034 330
Width: 1056
Flags: MW
HStem: 0 35<46 101 261 314 475 530 678.5 850.844> 0 29<46 101 261 314 475 530 694.252 829.26> 341 38<306 631> 355 35<736.752 885.494> 663 29<189 241 401 456 618 670 830 885>
VStem: 954 108<127.994 291.247>
DStem2: 143 83 239 83 0.224951 0.97437<-21.2857 286.03 325.081 582.099> 572 83 672 99 0.224951 0.97437<-7.37592 264.66 326.28 582.099>
LayerCount: 2
Fore
SplineSet
766 35 m 0x5c
 921 35 954 157 954 212 c 0
 954 290 903 355 815 355 c 0
 787 355 742 348 727 342 c 1
 672 99 l 2
 663 60 667 35 766 35 c 0x5c
40 0 m 1
 46 29 l 1
 101 35 l 2
 125 37 135 49 143 83 c 2
 263 609 l 2
 270 641 264 657 241 659 c 2
 182 663 l 1
 189 692 l 1
 463 692 l 1
 456 663 l 1
 401 658 l 2
 376 656 367 642 359 609 c 2
 306 379 l 1
 640 379 l 1x6c
 692 609 l 2
 699 639 693 657 670 659 c 2
 611 663 l 1
 618 692 l 1
 892 692 l 1
 885 663 l 1
 830 658 l 2
 805 656 796 642 788 609 c 2
 736 380 l 1
 767 389 801 390 845 390 c 0x5c
 970 390 1062 319 1062 217 c 0
 1062 160 1046 0 769 0 c 2
 469 0 l 1
 475 29 l 1
 530 35 l 2
 554 37 565 51 572 83 c 2
 631 341 l 1
 297 341 l 1x6c
 239 83 l 2
 232 50 237 35 261 33 c 2
 320 29 l 1
 314 0 l 1
 40 0 l 1
EndSplineSet
EndChar

StartChar: afii10108
Encoding: 1115 1115 331
Width: 607
Flags: MW
HStem: -12 52<435.5 529.707> 307 52<375.095 510.5> 455 35<133 514> 695 47<161 347>
DStem2: 92 -12 218 178 0.228524 0.973538<31.564 184.146 213.766 710.338> 412 96 499 95 0.297889 0.9546<-24.3458 200.965>
LayerCount: 2
Back
SplineSet
125.045 455 m 1
 133.125 490 l 1
 522.125 490 l 1
 514.045 455 l 1
 125.045 455 l 1
92 -12 m 1
 238 639 l 2
 247 678 243 685 218 688 c 2
 161 695 l 1
 167 718 l 1
 347 742 l 1
 352 737 l 1
 206.986 136 l 1
 209.986 136 l 1
 273.986 256 374.986 359 469.986 359 c 0
 550.986 359 563.986 293 539.986 214 c 2xf4
 499 95 l 2
 488.013 63.0996 489 40 509 40 c 0
 537 40 581 111 599 146 c 1
 623 132 l 1
 589 56 533 -12 464 -12 c 0
 407 -12 391.445 30.1084 412 96 c 2xf8
 455.986 237 l 2
 467.986 278 455.986 307 423.986 307 c 0
 336.986 307 243.75 154.701 212.986 77 c 0
 204.151 54.6854 190.5 25 179 0 c 1
 92 -12 l 1
EndSplineSet
Fore
SplineSet
125 455 m 1
 133 490 l 1
 522 490 l 1
 514 455 l 1
 125 455 l 1
92 -12 m 1
 238 639 l 2
 247 678 243 685 218 688 c 2
 161 695 l 1
 167 718 l 1
 347 742 l 1
 352 737 l 1
 218 178 l 1
 220 178 l 1
 284 298 375 359 470 359 c 0
 551 359 564 293 540 214 c 2
 499 95 l 2
 488 63 489 40 509 40 c 0
 537 40 581 111 599 146 c 1
 623 132 l 1
 589 56 533 -12 464 -12 c 0
 407 -12 391 30 412 96 c 2
 456 237 l 2
 468 278 456 307 424 307 c 0
 337 307 254 206 224 125 c 0
 215 103 190 32 179 0 c 1
 92 -12 l 1
EndSplineSet
EndChar

StartChar: afii10099
Encoding: 1106 1106 332
Width: 574
Flags: MW
HStem: -242 21G<186.2 273> -12 21G<96.4854 179> 307 52<370.175 451.426> 455 35<133 514> 695 47<161 347>
VStem: 466 98<87.0518 291.321>
DStem2: 92 -12 218 178 0.224951 0.97437<31.2632 183.782 213.474 710.768> 125 455 238 639 0.224951 0.97437<0 35.9026>
LayerCount: 2
Back
SplineSet
125 455 m 1
 133 490 l 1
 522 490 l 1
 514 455 l 1
 125 455 l 1
92 -12 m 1
 238 639 l 2
 247 678 243 685 218 688 c 2
 161 695 l 1
 167 718 l 1
 347 742 l 1
 352 737 l 1
 218 178 l 1
 220 178 l 1
 284 298 375 359 470 359 c 0
 551 359 564 293 540 214 c 2xf4
 499 95 l 2
 488 63 489 40 509 40 c 0
 537 40 581 111 599 146 c 1
 623 132 l 1
 589 56 533 -12 464 -12 c 0
 407 -12 391 30 412 96 c 2xf8
 456 237 l 2
 468 278 456 307 424 307 c 0
 337 307 254 206 224 125 c 0
 215 103 190 32 179 0 c 1
 92 -12 l 1
EndSplineSet
Fore
SplineSet
92 -12 m 1
 238 639 l 2
 247 678 243 685 218 688 c 2
 161 695 l 1
 167 718 l 1
 347 742 l 1
 352 737 l 1
 218 178 l 1
 220 178 l 1
 284 298 381 359 444 359 c 0
 524 359 564 274 564 194 c 0
 564 -5 351 -153 195 -242 c 1
 184 -217 l 1
 360 -110 466 33 466 217 c 0
 466 256 458 307 413 307 c 0
 339 307 254 206 224 125 c 0
 215 103 190 32 179 0 c 1
 92 -12 l 1
125 455 m 1
 133 490 l 1
 522 490 l 1
 514 455 l 1
 125 455 l 1
EndSplineSet
EndChar

StartChar: afii10106
Encoding: 1113 1113 333
Width: 772
VWidth: 0
Flags: HMW
HStem: -12 35<483.18 596.797> 279 35<540.559 651.32> 455 35<343.849 443.428>
VStem: 17 108<43 62> 683 97<103.065 251.988>
DStem2: 372 190 461 185 0.277217 0.960807<-77.687 268.769>
LayerCount: 2
Back
SplineSet
461 185 m 1
 479 249 l 1
 481 249 l 1
 515 288 556 314 613 314 c 0
 721 314 780 268 780 177 c 0
 780 90 689 -12 514 -12 c 0
 383 -12 343 96 372 190 c 2
 435 397 l 2
 444 428 444 443 420 445 c 2
 358 450 l 1
 364 474 l 1
 546 502 l 1
 551 497 l 1
 461 185 l 2
 446 127 436 23 540 23 c 0
 580 23 683 62 683 194 c 0
 683 243 650 279 592 279 c 0
 551 279 492 251 461 185 c 1
17 43 m 0
 17 71 36 96 65 96 c 0
 99 96 99 62 125 62 c 0
 165 62 208 147 232 203 c 0
 271 294 297 425 297 425 c 2
 303 450 288 457 274 460 c 2
 216 470 l 1
 221 490 l 1
 545 490 l 1
 445 95 l 2
 437 63 435 40 455 40 c 0
 483 40 527 111 545 146 c 1
 569 132 l 1
 535 56 479 -12 407 -12 c 0
 353 -12 340 29 355 86 c 2
 442 424 l 2
 448 450 433 455 417 455 c 2
 382 455 l 2
 347 455 336 434 326 392 c 8
 283.552 213.719 230 -12 86 -12 c 0
 46 -12 17 14 17 43 c 0
EndSplineSet
Fore
SplineSet
17 43 m 0
 17 71 36 96 65 96 c 0
 99 96 99 62 125 62 c 0
 165 62 208 147 232 203 c 0
 271 294 297 425 297 425 c 2
 303 450 288 457 274 460 c 2
 216 470 l 1
 221 490 l 1
 549 490 l 1
 461 185 l 2
 444 127 436 23 540 23 c 0
 580 23 683 62 683 194 c 0
 683 243 650 279 592 279 c 0
 551 279 492 251 461 185 c 1
 479 249 l 1
 481 249 l 1
 515 288 556 314 613 314 c 0
 721 314 780 268 780 177 c 0
 780 90 689 -12 514 -12 c 0
 383 -12 344 96 372 190 c 2
 442 424 l 2
 449 448 433 455 417 455 c 2
 382 455 l 2
 347 455 336 434 326 392 c 8
 284 214 230 -12 86 -12 c 0
 46 -12 17 14 17 43 c 0
EndSplineSet
EndChar

StartChar: afii10107
Encoding: 1114 1114 334
Width: 836
Flags: HMW
HStem: -12 35<547.172 660.797> 235 35<237 237> 279 35<604.559 715.32> 451 51<120 304>
VStem: 747 97<103.065 251.988>
DStem2: 98 -12 190 0 0.232855 0.972511<33.0928 272.577 306.149 463.288> 436 190 525 185 0.275922 0.96118<-77.8325 54.5659 90.4146 313.463>
LayerCount: 2
Back
SplineSet
525 185 m 1
 543 249 l 1
 545 249 l 1
 579 288 620 314 677 314 c 0
 785 314 844 268 844 177 c 0
 844 90 753 -12 578 -12 c 0
 447 -12 407 96 436 190 c 2
 499 397 l 2
 508 428 508 443 484 445 c 2
 422 450 l 1
 428 474 l 1
 610 502 l 1
 615 497 l 1
 525 185 l 2
 510 127 500 23 604 23 c 0
 644 23 747 62 747 194 c 0
 747 243 714 279 656 279 c 0
 615 279 556 251 525 185 c 1
227 235 m 1
 235 270 l 1
 485 270 l 1
 477 235 l 1
 227 235 l 1
98 -12 m 1
 195 395 l 2
 204 434 205 442 175 445 c 2
 120 451 l 1
 126 474 l 1
 304 502 l 1
 309 497 l 1
 190 0 l 1
 98 -12 l 1
415 86 m 2
 519 490 l 1
 608 502 l 1
 505 95 l 2
 496 63 495 40 515 40 c 0
 543 40 587 111 605 146 c 1
 629 132 l 1
 595 56 539 -12 467 -12 c 0
 413 -12 400 29 415 86 c 2
EndSplineSet
Fore
SplineSet
616 502 m 1
 525 185 l 2
 508 127 500 23 604 23 c 0
 644 23 747 62 747 194 c 0
 747 243 714 279 656 279 c 0
 615 279 556 251 525 185 c 1
 543 249 l 1
 545 249 l 1
 579 288 620 314 677 314 c 0
 785 314 844 268 844 177 c 0
 844 90 753 -12 578 -12 c 0
 447 -12 407 96 436 190 c 2
 527 490 l 17
 616 502 l 1
237 235 m 1
 235 270 l 1
 485 270 l 1
 477 235 l 1
 237 235 l 1
98 -12 m 1
 195 395 l 2
 204 434 205 442 175 445 c 2
 120 451 l 1
 126 474 l 1
 304 502 l 1
 309 497 l 1
 190 0 l 1
 98 -12 l 1
EndSplineSet
EndChar

StartChar: afii10148
Encoding: 1140 1140 335
Width: 767
Flags: MW
HStem: 0 21G<284.414 367.715> 663 29<136 171 317 381> 672 35<751.095 798.693>
VStem: 782 111<536.926 641.556>
DStem2: 300 624 208 611 0.128229 -0.991745<-30.4542 528.009> 367 100 356 0 0.505437 0.862864<0 697.914>
LayerCount: 2
Back
SplineSet
771 707 m 0
 850 707 893 655 893 615 c 0
 893 559 873 519 831 519 c 0
 799 519 782 537 782 563 c 0
 782 591 806 618 806 638 c 0
 806 656 799 672 773 672 c 0
EndSplineSet
Fore
SplineSet
131 663 m 1
 136 692 l 1
 386 692 l 1
 381 663 l 1
 317 657 l 2
 299 655 298 643 300 624 c 0
 308 541 318 454 330 366 c 2
 365 100 l 1
 367 100 l 1
 621 537 l 2
 685 643 725 707 781 707 c 0
 852 707 893 657 893 613 c 0
 893 568 881 519 827 519 c 0
 805 519 782 532 782 562 c 0
 782 594 801 612 801 643 c 0
 801 666 792 672 779 672 c 0
 752 672 735 646 677 548 c 2
 356 0 l 1
 287 0 l 1
 208 611 l 2
 203 647 194 655 171 658 c 2
 131 663 l 1
EndSplineSet
EndChar

StartChar: te.ital
Encoding: 63176 63176 336
Width: 919
Flags: HW
HStem: -12 52<170.743 287.29 476.37 586.617 768.041 846.821> 450 52<126 314> 565 35<252 934>
LayerCount: 2
Fore
SplineSet
244 565 m 1
 252 600 l 1
 942 600 l 1
 934 565 l 1
 244 565 l 1
EndSplineSet
Refer: 266 1096 N 1 0 0 1 0 0 2
EndChar

StartChar: pe.ital
Encoding: 63175 63175 337
Width: 618
Flags: HW
HStem: -12 52<232 249> 450 52<126 314> 565 35<253 635>
VStem: 124 92 423 88
LayerCount: 2
Fore
SplineSet
245 565 m 1
 253 600 l 1
 643 600 l 1
 635 565 l 1
 245 565 l 1
EndSplineSet
Refer: 85 117 N 1 0 0 1 0 0 2
EndChar

StartChar: uni0261
Encoding: 609 609 338
Width: 559
Flags: W
HStem: -243 35<147.029 259.796> -12 52<143.5 249.472> 467 35<354.451 488.494>
VStem: 73 99<48.8735 229.279>
DStem2: 408 96 490 56 0.224951 0.97437<-164.393 96.5397 135.252 367.668>
LayerCount: 2
Back
SplineSet
73 107 m 0
 73 244 174 502 423 502 c 0
 470 502 505 489 521 480 c 1
 564 525 l 1
 602 525 l 1
 424 -222 l 1
 331 -242 l 1
 430 190 l 1
 427 190 l 1
 353 66 251 -12 168 -12 c 0
 119 -12 73 20 73 107 c 0
172 123 m 0
 172 76 184 40 220 40 c 0
 261 40 317 84 372 156 c 0
 426 228 470 331 494 446 c 1
 479 457 456 467 424 467 c 0
 258 467 172 221 172 123 c 0
EndSplineSet
Fore
SplineSet
73 107 m 0
 73 244 174 502 423 502 c 0
 470 502 505 489 521 480 c 1
 564 525 l 1
 602 525 l 1
 490 56 l 2
 464 -32 433 -99 378 -166 c 0
 350 -200 264 -243 187 -243 c 0
 76 -243 35 -203 35 -160 c 0
 35 -133 50 -110 87 -110 c 0
 139 -110 101 -208 199 -208 c 0
 268 -208 327 -143 345 -109 c 0
 362 -76 392 18 408 96 c 2
 430 190 l 1
 427 190 l 1
 353 66 251 -12 168 -12 c 0
 119 -12 73 20 73 107 c 0
172 123 m 0
 172 76 184 40 220 40 c 0
 288 40 438 176 494 446 c 1
 479 457 456 467 424 467 c 0
 258 467 172 221 172 123 c 0
EndSplineSet
EndChar

StartChar: afii10196
Encoding: 1141 1141 340
Width: 574
Flags: W
HStem: 0 21G<220 305.721> 429 25<74 95.5> 441 61<556.198 653.5>
VStem: 220 74<72 209.684>
DStem2: 296 72 294 0 0.492938 0.870065<0 381.701>
LayerCount: 2
Back
SplineSet
508 433 m 0
 562 489 602 502 633 502 c 0
 685 502 710 485 710 453 c 0
 710 428 689 395 661 395 c 0
 625 395 625 441 595 441 c 0
 571 441 551 428 537 414 c 0
593 467 m 0xb0
 572 467 529 400 437 242 c 2
 296 0 l 1
 224 0 l 1
 197 216 l 2
 188 285 180 350 168 416 c 0
 162 453 154 457 107 461 c 1xd0
 114 490 l 1
 338 490 l 1
 331 461 l 1xd0
 285 456 l 2
 266 454 260 446 263 427 c 2
 283 258 l 1
 305 90 l 1
 307 90 l 1
 412 275 l 2
 503 433 544 502 604 502 c 0
EndSplineSet
Fore
SplineSet
71 454 m 1xd0
 239 502 l 1
 247 498 l 1
 261 425 292 228 294 72 c 1
 296 72 l 1
 462 365 l 2
 523 473 569 502 631 502 c 0xb0
 676 502 710 489 710 454 c 0xd0
 710 434 694 395 661 395 c 0
 622 395 628 441 594 441 c 0xb0
 553 441 532 407 420 215 c 2
 294 0 l 1
 220 0 l 1
 220 80 188 285 177 363 c 0
 169 415 164 432 142 431 c 2
 74 429 l 1
 71 454 l 1xd0
EndSplineSet
EndChar

StartChar: afii10098
Encoding: 1169 1169 341
Width: 434
VWidth: 0
Flags: MW
HStem: -12 21G<110.771 198> 455 35<308.482 460.402> 603 20G<518.5 571>
VStem: 543 28<594.535 623>
LayerCount: 2
Back
SplineSet
106 -12 m 5
 210 424 l 22
 216 449 202 458 188 460 c 6
 130 470 l 5
 135 490 l 5
 552 490 l 5
 517 337 l 5
 488 337 l 5
 499 424 483 455 381 455 c 4
 322 455 306 453 294 402 c 6
 198 0 l 5
 106 -12 l 5
EndSplineSet
Fore
SplineSet
106 -12 m 1
 210 424 l 18
 216 449 202 458 188 460 c 2
 130 470 l 1
 135 490 l 1
 358 490 l 2
 468 490 494 514 543 623 c 1
 571 623 l 1
 533 455 l 1
 381 455 l 2
 322 455 306 453 294 402 c 2
 198 0 l 1
 106 -12 l 1
EndSplineSet
EndChar

StartChar: afii10050
Encoding: 1168 1168 342
Width: 529
Flags: HMW
HStem: 0 29<44 100 260 329> 657 35<186 239 364.65 590.471> 815 20G<662.5 711>
VStem: 620 30<521 551.692> 681 30<804.62 835>
DStem2: 141 80 237 80 0.224951 0.97437<-18.1418 583.66>
LayerCount: 2
Back
SplineSet
38 0 m 1
 44 29 l 1
 100 34 l 2
 124 36 134 50 141 80 c 2
 261 612 l 2
 268 641 262 655 239 657 c 2
 180 663 l 1
 186 692 l 1
 689 692 l 1
 650 521 l 1
 620 521 l 1
 630 610 624 657 501 657 c 2
 390 657 l 2
 372 657 367 652 361 627 c 2
 237 80 l 2
 230 50 236 36 260 34 c 2
 335 29 l 1
 329 0 l 1
 38 0 l 1
EndSplineSet
Fore
SplineSet
38 0 m 1
 44 29 l 1
 100 34 l 2
 124 36 134 50 141 80 c 2
 261 612 l 2
 268 641 262 655 239 657 c 2
 180 663 l 1
 186 692 l 1
 483 692 l 2
 600 692 644 726 681 835 c 1
 711 835 l 1
 661 618 l 1
 631 618 l 1
 626 649 624 657 535 657 c 2
 390 657 l 2
 372 657 367 652 361 627 c 2
 237 80 l 2
 230 50 236 36 260 34 c 2
 335 29 l 1
 329 0 l 1
 38 0 l 1
EndSplineSet
EndChar

StartChar: caron.cap
Encoding: 63178 63178 343
Width: 400
Flags: W
HStem: 734 79<344.88 411.545>
VStem: 247 306
LayerCount: 2
Fore
SplineSet
247 869 m 1
 265 888 l 1
 355 828 l 2
 367 820 378 813 387 813 c 0
 395 813 410 820 423 827 c 2
 540 888 l 1
 553 868 l 1
 413 757 l 2
 395 742 384 734 371 734 c 0
 359 734 349 745 338 759 c 2
 247 869 l 1
EndSplineSet
EndChar

StartChar: ring.cap
Encoding: 61427 61427 346
Width: 400
Flags: W
HStem: 715 33<346.829 416.048> 884 33<361.992 429.387>
VStem: 280 57<753.728 864.115> 439 57<765.476 879.471>
LayerCount: 2
Fore
SplineSet
280 801 m 0
 280 835 298 917 401 917 c 0
 451 917 496 886 496 826 c 0
 496 778 471 715 376 715 c 0
 322 715 280 745 280 801 c 0
337 801 m 0
 337 765 356 748 378 748 c 0
 433 748 439 815 439 836 c 0
 439 867 421 884 399 884 c 0
 350 884 337 823 337 801 c 0
EndSplineSet
EndChar

StartChar: perthousandzero
Encoding: 61698 61698 347
Width: 405
Flags: W
HStem: -12 30<172.675 254.496> 324 30<233.413 311.669>
VStem: 74 77<42.2062 211.71> 332 77<123.05 299.583>
LayerCount: 2
Fore
SplineSet
74 121 m 0
 74 207 126 354 274 354 c 0
 367 354 409 293 409 217 c 0
 409 135 363 -12 213 -12 c 0
 110 -12 74 56 74 121 c 0
151 98 m 0
 151 67 158 18 214 18 c 0
 308 18 332 198 332 244 c 0
 332 275 327 324 273 324 c 0
 184 324 151 147 151 98 c 0
EndSplineSet
EndChar

StartChar: dotaccent.cap
Encoding: 61421 61421 348
Width: 400
Flags: W
HStem: 738 110<343.339 423.856>
VStem: 330 107<750.915 834.817>
LayerCount: 2
Fore
SplineSet
330 787 m 0
 330 823 356 848 389 848 c 0
 419 848 437 824 437 799 c 0
 437 765 414 738 379 738 c 0
 347 738 330 758 330 787 c 0
EndSplineSet
EndChar

StartChar: macron.cap
Encoding: 63184 63184 349
Width: 400
Flags: W
HStem: 759 59<236 528>
VStem: 222 320
LayerCount: 2
Fore
SplineSet
222 759 m 1
 236 818 l 1
 542 818 l 1
 528 759 l 1
 222 759 l 1
EndSplineSet
EndChar

StartChar: breve.cap
Encoding: 61422 61422 350
Width: 400
Flags: W
HStem: 749 59<302.523 472.8>
VStem: 254 28<835.622 870> 520 28<851.399 870>
LayerCount: 2
Fore
SplineSet
254 870 m 1
 282 870 l 1
 279 851 296 808 387 808 c 0
 478 808 513 851 520 870 c 1
 548 870 l 1
 535 814 491 749 373 749 c 0
 255 749 241 814 254 870 c 1
EndSplineSet
EndChar

StartChar: hungarumlaut.cap
Encoding: 63183 63183 351
Width: 400
Flags: MW
HStem: 744 150
VStem: 225 167<766 846> 395 167<766 846>
LayerCount: 2
Fore
SplineSet
395 766 m 1
 465 855 l 2
 480 874 497 894 518 894 c 0
 538 894 562 867 562 846 c 0
 562 830 551 821 515 800 c 2
 414 744 l 1
 395 766 l 1
225 766 m 1
 295 855 l 2
 310 874 327 894 348 894 c 0
 368 894 392 867 392 846 c 0
 392 830 381 821 345 800 c 2
 244 744 l 1
 225 766 l 1
EndSplineSet
EndChar

